<?xml version="1.0" standalone="no"?>
<!DOCTYPE svg PUBLIC "-//W3C//DTD SVG 1.0//EN" "http://www.w3.org/TR/2001/REC-SVG-20010904/DTD/svg10.dtd" >
<svg xmlns="http://www.w3.org/2000/svg" width="100%" height="100%"><defs><font horiz-adv-x="535" id="metacomppro-normal"><font-face font-family="MetaCompPro-Normal" units-per-em="1000" panose-1="2 11 5 4 3 1 1 2 1 2" ascent="763" descent="-237" alphabetic="0" /><missing-glyph horiz-adv-x="556" d="M76 686H480V0H76V686ZM430 50V636H126V50H430Z" /><glyph unicode=" " glyph-name="space" horiz-adv-x="230" /><glyph unicode="!" glyph-name="exclam" horiz-adv-x="292" d="M175 198H115L96 686L194 699L175 198ZM207 56Q207 30 190 12T146-7Q120-7 103 11T85 55Q85 81 102 98T146 116Q172 116 189 99T207 56Z" /><glyph unicode="&quot;" glyph-name="quotedbl" horiz-adv-x="409" d="M242 468V708H314V468H242ZM95 468V708H167V468H95Z" /><glyph unicode="#" glyph-name="numbersign" horiz-adv-x="566" d="M424 431L403 279H501V213H393L363 0H296L326 213H200L170 0H103L133 213H35V279H143L163 431H65V497H173L203 708H270L240 497H366L396 708H463L433 497H531V431H424ZM231 431L210 279H336L357
431H231Z" /><glyph unicode="$" glyph-name="dollar" horiz-adv-x="570" d="M545 194Q545 157 530 123T489 61T426 15T346-10V-107H287V-13Q227-13 176 3T76 49L112 113Q154 84 196 69T287 54V323L262 331Q215 346 188 359T140 392Q97 438 97 504Q97 585 148 637T287 699V783H346V700Q442
692 526 635L490 576Q447 604 415 617T346 633V394L379 384Q425 370 452 355T500 315Q521 291 533 259T545 194ZM454 182Q454 266 346 304V58Q370 62 390 73T424 100T446 138T454 182ZM287 631Q239 623 213 595T186 521Q186 482 209 457T287 412V631Z" /><glyph unicode="%" glyph-name="percent" horiz-adv-x="858" d="M813 156Q813 79 770 35T652-10Q577-10 534 36T491 162Q491 242 533 287T651 332Q734 332 773 283T813 156ZM367 515Q367 438 324 394T206 349Q131 349 88 395T45 521Q45 601 87 646T205 691Q288
691 327 642T367 515ZM298 0H232L565 681H631L298 0ZM300 511Q300 533 297 555T284 596T255 625T204 636Q156 636 135 608T113 529Q113 467 134 436T209 404Q252 404 276 431T300 511ZM746 152Q746 174 743 196T730 237T701 266T650 277Q602 277 581 249T559 170Q559
108 580 77T655 45Q698 45 722 72T746 152Z" /><glyph unicode="&amp;" glyph-name="ampersand" horiz-adv-x="684" d="M560 0L493 65Q463 28 410 7T297-15Q243-15 200-2T127 36T81 95T65 170Q65 203 74 228T102 273T146 311T205 344Q156 388 132 424T108 498Q108 532 122 561T161 611T218 644T286 656Q323
656 356 646T415 617T455 568T470 502Q470 473 461 451T433 409T388 373T327 337L488 178Q496 195 501 230T505 332H574Q574 287 572 255T564 200T552 160T537 126L664 0H560ZM252 303Q151 255 151 164Q151 111 190 79T299 46Q350 46 390 65T450 110L252 303ZM384
503Q384 545 357 572T287 599Q269 599 252 594T222 578T200 549T192 508Q192 494 195 481T209 454T236 422T282 380Q341 408 362 437T384 503Z" /><glyph unicode="&apos;" glyph-name="quotesingle" horiz-adv-x="262" d="M95 468V708H167V468H95Z" /><glyph unicode="(" glyph-name="parenleft" horiz-adv-x="325" d="M328-155Q265-131 215-77T135 51Q124 80 116 115T104 186T97 256T95 321Q95 386 101 437T120 530T150 605T190 665Q218 700 254 728T328 770L347 732Q296 702 258 661T201 553Q188 507 182
448T175 323Q175 226 187 143T235-3Q256-40 283-66T350-115L328-155Z" /><glyph unicode=")" glyph-name="parenright" horiz-adv-x="325" d="M230 296Q230 231 224 180T205 87T175 12T135-48Q107-83 71-111T-3-153L-22-115Q29-85 67-44T124 64Q137 110 143 169T150 294Q150 391 138 474T90 620Q69 657 42 683T-25 732L-3 772Q60
748 110 694T190 566Q201 537 209 502T221 431T228 361T230 296Z" /><glyph unicode="*" glyph-name="asterisk" horiz-adv-x="472" d="M286 501L375 382L326 344L236 467L149 344L99 382L186 501L45 549L64 607L206 559V708H266V559L408 607L427 549L286 501Z" /><glyph unicode="+" glyph-name="plus" horiz-adv-x="538" d="M305 214V36H233V214H55V286H233V464H305V286H483V214H305Z" /><glyph unicode="," glyph-name="comma" horiz-adv-x="290" d="M215 29Q215 3 205-23T177-74Q162-94 139-112T93-143L65-99Q124-70 132-10Q130-11 126-11H121Q98-11 82 8T66 53Q66 83 86 104T136 125Q171 125 193 98T215 29Z" /><glyph unicode="-" glyph-name="hyphen" horiz-adv-x="301" d="M55 229V305H246V229H55Z" /><glyph unicode="." glyph-name="period" horiz-adv-x="284" d="M209 56Q209 27 190 7T143-13Q114-13 95 7T75 56Q75 84 94 103T141 122Q170 122 189 103T209 56Z" /><glyph unicode="/" glyph-name="slash" horiz-adv-x="455" d="M131-148H65L324 757H390L131-148Z" /><glyph unicode="0" glyph-name="zero" horiz-adv-x="570" d="M514 327Q514 250 497 187T449 79T376 9T281-16Q217-16 174 20T105 109T67 224T55 336Q55 403 73 463T122 568T194 639T282 666Q347 666 391 633T463 549T502 439T514 327ZM426 326Q426 380 422 417T405
493Q388 546 357 574T284 603Q254 603 226 581T178 518Q144 450 144 332Q144 277 149 233T164 160Q182 106 214 76T283 45Q317 45 348 71T399 141Q414 176 420 222T426 326Z" /><glyph unicode="1" glyph-name="one" horiz-adv-x="570" d="M149 0V63H263V559Q260 557 252 552T234 539T212 525T189 513Q179 508 166 502T141 491T119 482T105 475L88 518L280 653H342V63H443V0H149Z" /><glyph unicode="2" glyph-name="two" horiz-adv-x="570" d="M468 0H86V45Q115 65 151 99T236 188Q277 234 306 273T354 345T382 409T391 467Q391 523 357 559T270 596Q248 596 229 591T191 577T155 557T117 533L83 571Q139 619 191 642T297 665Q336 665 370 651T429
612T468 553T483 480Q483 437 466 391T419 303Q384 256 331 199Q306 173 283 149T241 106T207 75T187 60Q195 61 221 62T272 64H484L468 0Z" /><glyph unicode="3" glyph-name="three" horiz-adv-x="570" d="M483 200Q483 167 471 137T439 81T390 35T330 0Q295-15 246-24T143-33Q125-33 117-33T94-30L76 24Q83 23 88 22T99 21T110 20H127Q193 20 245 33T343 88Q370 112 382 143T395 208Q395 249 373
279T312 320Q301 323 292 325T271 327T240 328T191 329H181V385H190Q244 385 275 387T324 397Q350 408 365 434T380 492Q380 540 348 569T261 599Q216 599 177 583T102 540L67 581Q86 599 111 614T163 641T219 658T275 665Q317 665 351 653T411 619T451 568T465
502Q465 448 433 409T344 354Q372 347 397 334T441 301T471 256T483 200Z" /><glyph unicode="4" glyph-name="four" horiz-adv-x="570" d="M455 125Q446 125 438 125T428 126Q428 123 428 112T429 87V-4L352-27V86Q352 98 352 110T353 126Q350 126 339 126T313 125H55V187L292 655H379L173 247Q162 226 151 208T137 184Q140 185 152 186T176
187H331Q339 187 345 187T353 186Q353 189 353 199T352 214Q352 227 353 239T355 269L367 446L429 465V217Q429 205 429 197T428 186Q430 186 436 186T451 187H510V125H455Z" /><glyph unicode="5" glyph-name="five" horiz-adv-x="570" d="M478 203Q478 173 469 143T444 87T404 39T353 3Q319-14 275-24T189-35Q178-35 169-34L152-33Q144-33 136-31T115-26L101 34Q111 29 119 27T136 23T153 21T175 20Q221 20 260 34T329 72T375
130T392 202Q392 248 367 282Q348 308 319 320T242 332Q206 332 172 327T116 310L148 647H444L432 581H219L202 388Q215 389 223 390T239 391T253 392H270Q379 392 436 325Q456 300 467 268T478 203Z" /><glyph unicode="6" glyph-name="six" horiz-adv-x="570" d="M515 201Q515 154 498 115T452 46T382 0T295-17Q244-17 203 2T132 57T86 143T70 255Q70 336 93 397T166 518Q222 584 288 626T436 692L455 642Q385 619 322 574T217 469Q200 445 190 417T170 346Q196
370 235 384T316 398Q358 398 394 383T457 342T499 280T515 201ZM425 199Q425 263 392 299Q375 317 351 327T300 338Q266 338 232 325T165 285Q163 268 163 258T162 234Q162 201 168 167T189 106T229 62T295 44Q355 44 390 85T425 199Z" /><glyph unicode="7" glyph-name="seven" horiz-adv-x="570" d="M494 566Q445 498 399 426T314 277Q299 248 282 212T250 137T223 61T205-10L108-34Q113-1 126 39T157 123T199 213T246 304Q291 388 340 462T433 581Q426 581 400 581T341 580H77L96 646H513L494 566Z" /><glyph unicode="8" glyph-name="eight" horiz-adv-x="570" d="M509 180Q509 133 490 97T440 35T367-4T283-17Q235-17 195-3T124 35T78 94T61 168Q61 201 72 228T102 278T147 317T202 344Q145 370 115 410T84 499Q84 545 102 576T150 627T218 656T295 665Q338
665 373 654T434 623T473 575T487 513Q487 481 475 456T444 411T399 376T347 351Q381 336 411 321T462 286T496 241T509 180ZM427 161Q427 205 401 233Q384 251 351 270T251 320Q228 307 208 294T173 263T150 224T141 173Q141 113 181 78T289 42Q351 42 389 75T427
161ZM411 507Q411 553 377 580T285 608Q228 608 194 581T160 506Q160 479 173 459T206 423T251 396T296 376Q357 408 384 439T411 507Z" /><glyph unicode="9" glyph-name="nine" horiz-adv-x="570" d="M513 426Q513 341 478 256T380 102Q345 64 305 37T211-14Q190-23 176-28T148-38T122-44T90-48L51 0Q66 2 78 4T100 9T122 16T147 26Q214 55 274 102T373 218Q378 226 385 241T399 274Q343 235
275 235Q231 235 195 250T132 293T90 359T75 443Q75 491 92 532T140 603T211 650T299 667Q350 667 390 648T457 595T499 518T513 426ZM427 425Q427 465 418 498T391 555T349 592T295 605Q235 605 199 560T163 442Q163 373 195 334T285 294Q320 294 351 306T417
347Q423 373 425 388T427 425Z" /><glyph unicode=":" glyph-name="colon" horiz-adv-x="304" d="M219 56Q219 27 200 8T151-12Q123-12 104 7T85 55Q85 84 104 103T153 123Q180 123 199 104T219 56ZM219 372Q219 343 200 324T152 304Q124 304 105 323T85 370Q85 399 104 419T153 439Q180 439 199
420T219 372Z" /><glyph unicode=";" glyph-name="semicolon" horiz-adv-x="320" d="M235 29Q235 3 225-23T197-74Q182-94 159-112T113-143L85-99Q144-70 152-10Q147-11 145-11H141Q118-11 102 8T86 53Q86 83 106 104T156 125Q191 125 213 98T235 29ZM220 372Q220 343
201 323T153 303Q125 303 105 324T85 374Q85 400 104 419T152 438Q180 438 200 419T220 372Z" /><glyph unicode="&lt;" glyph-name="less" horiz-adv-x="327" d="M216 43L25 300L216 557L282 514L122 300L282 86L216 43Z" /><glyph unicode="=" glyph-name="equal" horiz-adv-x="632" d="M55 348V414H577V348H55ZM55 192V258H577V192H55Z" /><glyph unicode="&gt;" glyph-name="greater" horiz-adv-x="328" d="M111 43L45 86L205 300L45 514L111 557L303 300L111 43Z" /><glyph unicode="?" glyph-name="question" horiz-adv-x="438" d="M383 548Q383 511 369 483T337 435T301 403T278 386Q228 345 228 274Q228 249 234 222H167Q158 258 158 290Q158 328 171 361T214 423Q229 437 244 448T273 471T295 501T304 544Q304 581 279 604T214
627Q178 627 147 616T78 581L45 636Q80 663 130 679T229 695Q298 695 340 655T383 548ZM275 55Q275 26 256 6T208-14Q180-14 160 6T140 55Q140 83 159 102T207 122Q235 122 255 103T275 55Z" /><glyph unicode="@" glyph-name="at" horiz-adv-x="921" d="M856 277Q856 211 839 157T791 65T722 7T639-14Q604-14 583-3T549 25T535 62T535 103Q524 83 507 64T469 31T424 7T374-2Q354-2 334 6T298 33T273 78T263 141Q263 201 280 257T330 356T412 426T527
453Q563 453 593 444T650 421Q645 405 639 378T627 329L589 148Q576 88 588 64T642 39Q672 39 698 57T744 108T774 184T785 277Q785 339 762 392T698 486T598 548T469 571Q393 571 332 540T228 458T161 341T137 204Q137 134 161 76T228-23T328-87T451-110Q492
-110 527-105T588-91L601-145Q572-155 533-160T451-165Q373-165 303-141T180-70T96 46T65 204Q65 292 95 369T179 503T307 592T469 625Q551 625 621 601T744 531T826 421T856 277ZM571 387Q561 393 549 397T520 401Q469 401 434 376T376 312T343 227T333
137Q333 93 348 75T395 57Q413 57 433 65T473 91T507 135T531 198L571 387Z" /><glyph unicode="A" glyph-name="A" horiz-adv-x="583" d="M480 0L415 211H159L93 0H10L239 686H346L573 0H480ZM289 614L181 278H394L289 614Z" /><glyph unicode="B" glyph-name="B" horiz-adv-x="609" d="M544 188Q544 131 516 86T437 20Q423 15 410 11T379 5T336 1T272 0H95V686H194Q245 686 278 686T334 683T370 678T398 671Q451 653 483 610T515 514Q515 460 483 422T392 364Q424 358 444 350T482 328Q516
302 530 264T544 188ZM458 195Q458 240 435 274T375 316Q361 319 341 321T295 323H174V67H320Q396 67 427 100T458 195ZM424 503Q424 544 403 573T346 611Q332 615 315 616T271 617H174V391H293Q321 391 340 393T373 403T396 421T413 450Q424 475 424 503Z" /><glyph unicode="C" glyph-name="C" horiz-adv-x="573" d="M538 45Q496 18 447 4T347-11Q291-11 239 12T147 80Q103 130 84 197T65 341Q65 417 86 482T146 594T238 668T353 695Q403 695 447 681T526 639L482 586Q451 609 421 619T352 629Q292 629 250 599T183
511Q168 476 161 433T154 329Q154 279 159 247T176 184Q202 119 251 88T360 56Q398 56 429 66T494 100L538 45Z" /><glyph unicode="D" glyph-name="D" horiz-adv-x="633" d="M568 342Q568 251 547 188T490 86Q467 61 444 45T396 18T340 4T274 0H95V686H232Q271 686 301 685T356 678T404 662T452 633Q511 591 539 517T568 342ZM479 332Q479 409 467 462T420 556Q403 576 386 588T350
607T308 616T259 619H177V68H259Q286 68 311 70T358 79T400 101T433 140Q456 180 467 229T479 332Z" /><glyph unicode="E" glyph-name="E" horiz-adv-x="520" d="M95 0V686H470L459 618H178V393H413V322H178V71H480V0H95Z" /><glyph unicode="F" glyph-name="F" horiz-adv-x="441" d="M443 618H178V393H398V326H178V0H95V686H456L443 618Z" /><glyph unicode="G" glyph-name="G" horiz-adv-x="640" d="M555 41Q518 17 467 3T362-11Q231-11 151 75Q107 123 87 187T66 341Q66 440 92 510T172 629Q244 694 351 694Q460 694 539 626L502 575Q460 604 427 616T353 628Q293 628 248 600T182 512Q155 435 155
338Q155 270 167 217T203 130Q215 113 233 100T273 77T320 62T369 57Q434 57 478 84V293H340L324 361H555V41Z" /><glyph unicode="H" glyph-name="H" horiz-adv-x="641" d="M464 0V332H175V0H95V686H175V399H464V686H546V0H464Z" /><glyph unicode="I" glyph-name="I" horiz-adv-x="270" d="M95 0V686H175V0H95Z" /><glyph unicode="J" glyph-name="J" horiz-adv-x="279" d="M184 117Q184 84 183 61T180 20T172-12T159-40Q125-100 43-128L3-77Q31-66 52-48T85-10Q95 7 98 34T102 115V686H184V117Z" /><glyph unicode="K" glyph-name="K" horiz-adv-x="556" d="M275 364L549 0H444L182 363L446 686H551L275 364ZM95 0V686H178V0H95Z" /><glyph unicode="L" glyph-name="L" horiz-adv-x="463" d="M437 0H95V686H177V69H448L437 0Z" /><glyph unicode="M" glyph-name="M" horiz-adv-x="806" d="M654 0L614 503Q613 519 612 538T611 575T610 605T609 619Q608 617 606 606T599 579T591 546T582 512L435 0H365L229 487Q215 538 206 573Q197 605 195 616Q195 612 194 599Q193 584 192 564T190 524T187
488L149 0H70L130 686H250L375 238Q388 190 394 157T402 119Q403 123 409 156T427 230L556 686H677L736 0H654Z" /><glyph unicode="N" glyph-name="N" horiz-adv-x="646" d="M465 0L245 420Q230 448 218 474T195 521T177 559Q170 575 167 584Q168 576 169 558Q170 539 171 514T174 458T176 398L180 0H95V686H190L418 248Q431 224 442 199T461 154T475 121T482 104Q482 105 481
124T478 172T475 239T473 313L470 686H551V0H465Z" /><glyph unicode="O" glyph-name="O" horiz-adv-x="681" d="M616 332Q616 233 592 167T516 53Q478 18 437 3T342-13Q279-13 231 10T147 74Q65 168 65 346Q65 428 84 493T138 603T224 673T338 698Q383 698 417 688T478 661T523 624T554 586Q586 538 601 477T616
332ZM524 320Q524 396 516 449T491 538Q473 576 436 604T338 632Q290 632 251 611T191 552Q173 518 165 473T156 363Q156 285 168 222T200 124Q210 107 226 94T261 71T303 56T346 50Q388 50 419 65T474 109Q487 125 496 144T512 188T521 245T524 320Z" /><glyph unicode="P" glyph-name="P" horiz-adv-x="548" d="M523 490Q523 437 509 398T461 327Q426 296 387 285T295 273H175V0H95V686H285Q341 686 374 679T435 654Q523 596 523 490ZM432 474Q432 549 392 583Q371 601 341 609T262 617H175V340H290Q334 340 357
348T397 377Q432 416 432 474Z" /><glyph unicode="Q" glyph-name="Q" horiz-adv-x="681" d="M670-115Q652-124 611-124Q595-124 577-119T542-106T508-89T480-72Q454-56 436-47T403-31T372-21T335-13Q271-13 225 13T148 74Q65 169 65 346Q65 428 84 493T138 603T224 673T338 698Q378
698 411 689T472 665T519 629T554 586Q586 536 601 476T617 332Q617 233 593 168T516 53Q495 34 472 20Q493 13 518-1T564-27Q578-35 601-45T656-55Q670-55 681-54T697-50L670-115ZM525 320Q525 396 517 449T491 538Q483 555 470 572T439 602T396 624T338
632Q290 632 252 610T193 552Q174 518 165 473T156 363Q156 285 168 222T201 124Q221 90 261 70T347 50Q389 50 420 64T474 109Q487 125 496 145T512 190T522 247T525 320Z" /><glyph unicode="R" glyph-name="R" horiz-adv-x="556" d="M428 0Q420 17 405 44T368 106T316 181T253 266Q233 292 217 300T175 310V0H95V686H255Q290 686 317 683T364 674T400 660T428 642Q440 633 452 620T473 588T489 548T496 498Q496 456 483 421T446 362T389
324T314 310H304Q321 296 340 274T373 233Q383 220 405 188T452 118T499 48L531 0H428ZM410 499Q410 533 391 562T343 603Q326 610 306 613T257 617H175V361H251Q297 361 326 369T375 396Q392 412 401 438T410 499Z" /><glyph unicode="S" glyph-name="S" horiz-adv-x="579" d="M524 194Q524 146 500 102T429 29Q395 7 359-3T275-13Q213-13 160 2T55 49L91 113Q134 82 178 68T275 54Q314 54 338 60T384 84Q433 121 433 182Q433 273 310 310L241 331Q194 345 167 358T119 392Q76
438 76 504Q76 548 92 584T137 646T207 686T298 701Q407 701 505 635L469 576Q444 592 423 603T383 621T344 631T302 634Q237 634 201 604T165 521Q165 479 191 454T279 409L358 384Q404 370 431 355T479 315Q500 291 512 259T524 194Z" /><glyph unicode="T" glyph-name="T" horiz-adv-x="464" d="M474 617H288V0H209V617H25V686H479L474 617Z" /><glyph unicode="U" glyph-name="U" horiz-adv-x="635" d="M545 198Q545 136 535 102T493 41Q461 14 419 1T313-12Q233-12 186 12T110 87Q96 112 93 141T90 194V686H171V224Q171 198 173 170T183 125Q188 114 197 102T223 80T262 64T317 58Q360 58 391 69T438
101Q455 124 459 148T464 208V686H545V198Z" /><glyph unicode="V" glyph-name="V" horiz-adv-x="577" d="M327 0H246L15 686H104L249 244Q256 221 263 198T275 153T284 115T289 91Q292 104 302 141T331 234L478 686H562L327 0Z" /><glyph unicode="W" glyph-name="W" horiz-adv-x="822" d="M640 0H533L448 381Q440 419 434 452T423 511T415 553T412 574Q411 571 409 555T402 512T391 454T377 387L293 0H187L25 686H113L200 285Q207 253 213 218T225 153T233 102T237 77Q237 79 241 99T250 149T263
212T276 275L367 686H460L555 260Q563 222 569 190T580 134T587 94Q589 83 590 79Q591 83 593 98Q597 117 602 146T614 213T630 288L715 686H797L640 0Z" /><glyph unicode="X" glyph-name="X" horiz-adv-x="546" d="M437 0L267 315L106 0H10L213 368L31 686H128L265 432L396 686H492L320 374L536 0H437Z" /><glyph unicode="Y" glyph-name="Y" horiz-adv-x="519" d="M301 267V0H216V272L-5 686H96L226 424Q236 404 244 386T261 347Q263 353 273 375T298 424L430 686H524L301 267Z" /><glyph unicode="Z" glyph-name="Z" horiz-adv-x="518" d="M452 0H45V63L338 552Q355 581 367 597T382 618Q377 618 358 618T311 617H55L78 686H469V616L184 135Q169 109 157 91T142 69Q147 69 163 69T201 70H473L452 0Z" /><glyph unicode="[" glyph-name="bracketleft" horiz-adv-x="285" d="M95-156V732H260V672H167V-96H260V-156H95Z" /><glyph unicode="\" glyph-name="backslash" horiz-adv-x="414" d="M326-43L25 726L88 750L389-18L326-43Z" /><glyph unicode="]" glyph-name="bracketright" horiz-adv-x="285" d="M25-156V-96H118V672H25V732H190V-156H25Z" /><glyph unicode="^" glyph-name="asciicircum" horiz-adv-x="636" d="M497 275L318 624L139 275H65L288 708H348L571 275H497Z" /><glyph unicode="_" glyph-name="underscore" horiz-adv-x="510" d="M5-131V-72H505V-131H5Z" /><glyph unicode="`" glyph-name="grave" horiz-adv-x="360" d="M279 565L55 665L98 742L305 612L279 565Z" /><glyph unicode="a" glyph-name="a" horiz-adv-x="529" d="M432-19Q406-11 389 8T364 54Q328 18 296 3T220-13Q174-13 143 0T94 33T68 78T60 129Q60 214 129 261T324 308H339Q347 308 359 307V342Q359 375 357 391T343 420Q331 434 315 440T276 447Q255 447
232 442T188 429T148 410T117 388L78 444Q178 511 287 511Q393 511 425 433Q433 413 435 385T436 323L432 159Q431 129 432 109T437 76T450 53T472 37L432-19ZM357 253Q349 254 338 254T318 255Q271 255 238 247T185 224T156 187T147 136Q147 45 233 45Q271 45
304 66T354 123L357 253Z" /><glyph unicode="b" glyph-name="b" horiz-adv-x="572" d="M507 256Q507 196 493 147T453 62T391 8T309-12Q270-12 232 7T172 54Q170 38 168 27T158 0H80Q88 18 91 45T95 124V614Q95 658 90 684T82 716L160 731Q162 725 167 695T173 613V497Q173 480 172 464T171
442Q208 478 241 493T314 509Q359 509 394 492T455 441T493 361T507 256ZM420 261Q420 311 414 342T391 395Q377 415 352 426T297 438Q260 438 226 420T172 373V117Q192 91 226 74T295 57Q321 57 346 69T385 101Q399 121 409 159T420 261Z" /><glyph unicode="c" glyph-name="c" horiz-adv-x="469" d="M424 55Q389 20 354 5T272-11Q165-11 113 64Q88 100 77 142T65 241Q65 323 86 372T140 453Q198 511 275 511Q322 511 353 495T411 457L368 403Q342 425 322 434T273 443Q244 443 219 428T179 387Q151
335 151 224Q151 139 182 95T274 51Q336 51 381 105L424 55Z" /><glyph unicode="d" glyph-name="d" horiz-adv-x="571" d="M411 0Q409 4 405 19T400 51Q373 20 343 7T268-7Q171-7 118 59T65 245Q65 405 168 476Q192 493 214 500T264 507Q306 507 341 491T399 444Q399 450 399 473T398 521V730L476 717V161Q476 96 479 59T491
0H411ZM397 391Q378 417 350 430T276 443Q215 443 183 391Q165 362 158 331T151 247Q151 203 155 171T171 117Q188 86 212 73T271 59Q302 59 322 66T367 91Q379 99 387 110T397 127V391Z" /><glyph unicode="e" glyph-name="e" horiz-adv-x="521" d="M155 236V224Q155 189 160 162T178 115Q199 83 231 69T302 54Q373 54 424 101L454 51Q421 21 378 5T286-11Q182-11 124 59T65 254Q65 317 79 360T125 442Q184 511 274 511Q357 511 409 457Q425 440 436
422T453 380T463 324T466 247V236H155ZM383 295Q382 336 377 362T360 406Q347 426 323 438T270 450Q161 450 155 295H383Z" /><glyph unicode="f" glyph-name="f" horiz-adv-x="303" d="M319 640Q305 648 285 655T245 663Q177 663 177 575V498H315L291 439H177V0H95V439H47V498H95V576Q95 604 100 624T114 658T132 682T150 698Q185 724 238 724Q304 724 348 695L319 640Z" /><glyph unicode="g" glyph-name="g" horiz-adv-x="514" d="M514 454Q491 437 472 431T430 424Q409 424 396 430Q426 392 426 345Q426 303 407 267T352 208Q333 196 310 191T259 186Q208 168 189 155T169 128Q169 104 209 104H289Q333 104 359 98T409 76Q438 56
451 30T464-29Q464-110 411-148T266-186Q207-186 166-176T100-149T62-109T50-59Q50-45 52-33T60-6L142 1Q137-7 133-19T128-44Q128-84 157-102Q175-113 201-119T258-125Q316-125 347-105T379-38Q379 4 352 22Q338 32 315 36T254 40H235Q225
40 214 40T193 39H177Q132 39 108 58T83 111Q83 141 102 160T173 196Q122 212 92 251T61 340Q61 377 74 408T112 461T170 496T245 508Q273 508 292 504T326 494T358 485T397 480Q417 480 432 485T466 502L514 454ZM335 344Q335 395 314 419T243 444Q149 444 149
341Q149 293 173 268T245 242Q335 242 335 344Z" /><glyph unicode="h" glyph-name="h" horiz-adv-x="567" d="M395 0V344Q395 372 391 389T376 418Q367 427 352 432T318 438Q282 438 244 416T173 354V0H95V614Q95 658 90 684T82 716L160 731Q162 725 167 695T173 613V497Q173 476 172 455T170 429Q204 461 246 484T336
508Q381 508 417 486T464 429Q469 414 470 399T472 357V0H395Z" /><glyph unicode="i" glyph-name="i" horiz-adv-x="271" d="M95 0V496L176 509V0H95ZM198 652Q198 626 181 609T137 591Q111 591 94 608T76 651Q76 677 93 695T137 713Q163 713 180 696T198 652Z" /><glyph unicode="j" glyph-name="j" horiz-adv-x="270" d="M175 10Q175-22 172-51T161-100Q147-135 121-158T59-198L20-146Q46-135 61-120T83-86T93-41T95 17V494L175 510V10ZM196 652Q196 626 179 609T135 591Q109 591 92 608T74 652Q74 678 91 695T135
713Q161 713 178 696T196 652Z" /><glyph unicode="k" glyph-name="k" horiz-adv-x="514" d="M95 0V614Q95 658 90 684T82 716L160 731Q162 725 167 695T173 613V0H95ZM405 0L176 282L366 498H464L268 282L509 0H405Z" /><glyph unicode="l" glyph-name="l" horiz-adv-x="269" d="M228 1Q213-6 204-8T178-10Q141-10 119 11Q107 22 101 38T95 82V610Q95 654 90 680T83 712L161 727Q163 721 168 691T174 609V100Q174 71 179 61T202 50Q204 50 212 52L228 1Z" /><glyph unicode="m" glyph-name="m" horiz-adv-x="812" d="M637 0V368Q637 441 573 441Q539 441 510 421T441 364V0H362V354Q362 377 359 392T348 418Q331 438 297 438Q268 438 239 423T170 372V0H95V386Q95 434 88 460T77 492L153 510Q156 504 163 482T171 436Q183
450 200 463T236 487T276 504T316 511Q353 511 385 490T432 428Q468 466 511 488T592 511Q648 511 682 474T717 376V0H637Z" /><glyph unicode="n" glyph-name="n" horiz-adv-x="556" d="M382 0V337Q382 357 381 370T378 392T373 407T364 420Q346 441 309 441Q294 441 276 436T239 421T202 398T171 371V0H95V384Q95 432 87 458T76 489L152 510Q155 505 162 482T170 432Q247 509 327 509Q368
509 401 489T449 436Q461 409 461 378V0H382Z" /><glyph unicode="o" glyph-name="o" horiz-adv-x="549" d="M489 241Q489 179 473 132T429 52T361 4T275-13Q172-13 116 58T60 252Q60 374 116 443T272 513Q335 513 376 488T443 426Q466 392 477 347T489 241ZM400 235Q400 338 377 385Q361 418 332 433T271 449Q238
449 210 435T169 395Q157 372 151 341T145 265Q145 212 153 169T176 102Q190 79 217 66T277 52Q316 52 344 71T385 127Q393 150 396 174T400 235Z" /><glyph unicode="p" glyph-name="p" horiz-adv-x="569" d="M504 250Q504 190 495 151T464 78Q437 34 398 11T310-13Q272-13 236 2T173 45V-193L95-208V390Q95 441 91 466T84 497L164 511Q165 508 167 490T169 435Q231 508 316 508Q354 508 389 492T449 446Q477
411 490 364T504 250ZM421 240Q421 285 415 322T398 383Q386 409 361 423T306 438Q231 438 173 368V117Q230 52 295 52Q330 52 358 69T400 114Q411 138 416 168T421 240Z" /><glyph unicode="q" glyph-name="q" horiz-adv-x="569" d="M489 498Q487 491 481 459T474 370V-187L399-203V56Q343-9 259-9Q224-9 197 0T145 31Q108 62 87 110T65 234Q65 308 76 353T112 433Q140 471 178 492T261 513Q302 513 336 496T402 443Q402 448 403
455T405 471T408 486T412 498H489ZM399 372Q379 404 344 423T272 443Q240 443 213 427T171 382Q165 370 161 357T153 329T149 296T148 252Q148 211 152 184T162 138T177 108T195 87Q211 72 230 65T278 58Q316 58 347 78T399 135V372Z" /><glyph unicode="r" glyph-name="r" horiz-adv-x="324" d="M307 423Q297 427 285 427Q238 427 202 391Q185 374 179 359T173 312V0H95V384Q95 433 88 459T78 490L156 511Q159 505 166 482T172 430Q199 468 236 490T312 513Q321 513 329 511T339 508L307 423Z" /><glyph unicode="s" glyph-name="s" horiz-adv-x="481" d="M426 148Q426 112 413 82T374 31T315-3T238-15Q190-15 142-2T55 35L85 93Q162 46 243 46Q289 46 316 69T344 132Q344 166 325 185T262 214L200 227Q138 240 106 276T74 364Q74 398 87 426T123 474T179
505T251 517Q290 517 330 506T403 477L374 419Q341 435 312 445T249 455Q206 455 181 433T155 373Q155 344 171 327T227 301L293 287Q426 259 426 148Z" /><glyph unicode="t" glyph-name="t" horiz-adv-x="320" d="M276 439H172V118Q172 76 185 60T236 44Q253 44 263 46T285 54L296 4Q258-16 208-16Q188-16 173-13T143-2Q117 11 106 35T95 97V439H30V498H95Q95 514 96 533T98 571T101 603T103 624L185 642Q184
636 183 621T180 586T177 543T175 498H300L276 439Z" /><glyph unicode="u" glyph-name="u" horiz-adv-x="557" d="M446-21Q421-1 409 16T392 59Q335-17 234-17Q186-17 153 2T103 54Q96 68 93 87T90 128V494L167 509V151Q167 116 173 98T197 67Q209 59 225 55T258 50Q295 50 330 74T385 140V493L462 506V143Q462
96 469 73T496 32L446-21Z" /><glyph unicode="v" glyph-name="v" horiz-adv-x="473" d="M271-5H194L15 494L95 511L211 168Q220 141 226 116T235 83H237Q239 89 244 113T261 167L375 498H458L271-5Z" /><glyph unicode="w" glyph-name="w" horiz-adv-x="695" d="M534-4H457L358 346Q352 368 349 383T344 401H342Q342 398 341 392T338 379T334 363T331 350L231-4H158L20 494L98 511L178 182Q186 151 190 128T196 99H199Q200 104 204 125T216 171L305 498H390L477
167Q479 158 482 147T488 125T493 106T497 94H499L514 163L593 498H675L534-4Z" /><glyph unicode="x" glyph-name="x" horiz-adv-x="467" d="M367 0L232 212L97 0H5L191 276L37 498H133L232 332L328 498H419L271 276L462 0H367Z" /><glyph unicode="y" glyph-name="y" horiz-adv-x="459" d="M273-18Q261-56 247-86T213-141T170-181T112-205L89-152Q113-145 130-134T160-106T183-63T204 1L172-4Q170 8 164 30T151 79T136 130T122 175L15 487L92 513L194 190Q199 174 204 155T213
118T220 86T224 66H226Q234 92 241 118T257 171L355 498H444L273-18Z" /><glyph unicode="z" glyph-name="z" horiz-adv-x="459" d="M377 0H45V60L316 436H66V498H398V434L139 60H414L377 0Z" /><glyph unicode="{" glyph-name="braceleft" horiz-adv-x="331" d="M236-156Q217-156 199-148T165-124T141-85T131-31V144Q131 171 124 192T104 228T77 250T45 258V318Q61 318 76 326T104 348T123 384T131 431V607Q131 637 141 660T166 700T199 724T236 732H306V672H252Q236
672 227 666T212 648T205 622T203 593V417Q203 383 193 360T169 321T141 299T117 289V287Q126 286 140 280T169 259T193 220T203 158V-17Q203-32 204-46T211-71T226-89T252-96H306V-156H236Z" /><glyph unicode="|" glyph-name="bar" horiz-adv-x="256" d="M95-208V756H161V-208H95Z" /><glyph unicode="}" glyph-name="braceright" horiz-adv-x="331" d="M286 258Q270 258 255 251T227 228T208 192T200 144V-31Q200-61 191-84T166-124T133-148T95-156H25V-96H79Q95-96 104-89T119-71T126-46T128-17V158Q128 195 138 219T162 258T190 279T214
287V289Q205 291 191 298T162 321T138 359T128 417V593Q128 608 126 622T119 647T105 665T79 672H25V732H95Q113 732 131 724T165 700T190 661T200 607V431Q200 405 207 384T227 349T254 326T286 318V258Z" /><glyph unicode="~" glyph-name="asciitilde" horiz-adv-x="590" d="M525 324Q513 308 501 293T474 265T441 244T399 236Q370 236 343 246T289 270T236 293T182 304Q149 304 130 282T98 234L65 282Q76 298 88 313T115 341T148 362T190 370Q219 370 246 360T300
336T353 313T407 302Q440 302 459 324T492 372L525 324Z" /></font>
</defs>
</svg>
