<?xml version="1.0" standalone="no"?>
<!DOCTYPE svg PUBLIC "-//W3C//DTD SVG 1.1//EN" "http://www.w3.org/Graphics/SVG/1.1/DTD/svg11.dtd">
<svg><metadata>2009 Erik Spiekermann published by FSI FontShop International GmbH</metadata><defs><font id="MetaCompPro-BoldIta" horiz-adv-x="540"><font-face font-family="MetaCompPro-BoldIta" font-weight="700" font-style="italic" font-stretch="normal" units-per-em="1000" panose-1="2 11 8 4 3 1 1 2 1 2" ascent="763" descent="-237" x-height="512" cap-height="695" bbox="-246307 1316 1133" underline-thickness="98" underline-position="-21" slope="-12" unicode-range="U+0020-FB06" /><missing-glyph horiz-adv-x="551"  d="M25 695h501v-695h-501v695zM469 57v581h-387v-581h387z" /><glyph glyph-name="uniFB00" unicode="ff" horiz-adv-x="623" d="M707 628q-29 1554 15q-26 044.515t-24.543l-1573h130l-5492h-91l-82420q-73620.569t-3161.5t-37.552.5t-3941l-82 74q10 10 22 27.5t23 37.5t19.5 42t12.5 43l84 420h-168l-82420q-73620.569t-3161.5t-37.552.5t-3941l-82 74q10 10 22 27.5t23 37.5t19.5 42t12.5 43l84 420h-50l20 92h49q1 17 4 30.5t8 39.5q17 81 67.5 120t129.5 39q33 0 63.59t50.523l-5881q-29 1554 15q-26 044.515t-24.543l-1573h172q1 15 4.5 33t7.5 37q16 81 67 120t130 39q33 0 63.59t50.523z" /><glyph glyph-name="fi" unicode="fi" horiz-adv-x="595" d="M474 0h-134l89 420h-174l-82420q-73620.569t-3161.5t-37.552.5t-3941l-82 74q10 10 22 27.5t23 37.5t19.5 42t12.5 43l84 420h-50l20 92h49q1 16 4.5 33.5t7.5 36.5q16 81 67 120t130 39q32 0 60.55.5t49.519.5l-5881q-8 422.5 6t-27.5 2q-26 044.515t-24.543l-1573h312zM629 653q0352459t-5924q-34 058 24t-24 59t24.5 59t59.5 24q34 0 57.524t23.559z" /><glyph glyph-name="fl" unicode="fl" horiz-adv-x="599" d="M402 633q-10 523 7.5t-25 2.5q-26 044.515t-24.543l-1573h125l-5492h-86l-82420q-73620.569t-3161.5t-37.552.5t-3941l-82 74q10 10 22 27.5t23 37.5t19.5 42t12.5 43l84 420h-50l20 92h49q1 16 4 32t8 38q17 81 67.5 120t129.5 39q32 0 607t4919zM622 740q021762.5t-1890.5l-81379q-104513.566.5t-3.532.5q029 2629q10 0 15 2l680q-37148314q-54 080 26t-26 66q0 14 4.5 39.5t10.5 53.5l81 382q5 25 9.5 49.5t8 45t5.5 36t2 23.5z" /><glyph glyph-name="uniFB03" unicode="ffi" horiz-adv-x="896" d="M775 0h-132l89 420h-174l-82420q-73620.569t-3161.5t-37.552.5t-3941l-82 74q10 10 22 27.5t23 37.5t19.5 42t12.5 43l84 420h-172l-82420q-73620.569t-3161.5t-37.552.5t-3941l-82 74q10 10 22 27.5t23 37.5t19.5 42t12.5 43l84 420h-50 l20 92h49q1 16 4.5 33t7.5 37q16 81 67 120t130 39q33 0 63.59t50.523l-5881q-29 1554 15q-26 044.515t-24.543l-1573h176q1 16 4 32.5t8 37.5q17 81 67.5 120t129.5 39q31 0 597t4919l-5982q-12 623.5 8t-23.5 2q-26 044.515t-24.543l-1573h310zM930 653q0352459t-5924q-34 058 24t-24 59t24.5 59t59.5 24q34 0 57.524t23.559z" /><glyph glyph-name="uniFB04" unicode="ffl" horiz-adv-x="897" d="M697 633q-21 1044 10q-26 044.515t-24.543l-1573h125l-5392h-87l-82420q-73620.569t-3161.5t-37.552.5t-3941l-82 74q10 10 22 27.5t23 37.5t19.5 42t12.5 43l84 420h-168l-82420q-73620.569t-3161.5t-37.552.5t-3941l-82 74 q10 10 22 27.5t23 37.5t19.5 42t12.5 43l84 420h-50l20 92h49q1 16 4.5 33t7.5 37q16 81 67 120t130 39q33 0 63.59t50.523l-5881q-29 1554 15q-26 044.515t-24.543l-1573h172q1 16 4 32.5t8 37.5q17 81 67.5 120t129.5 39q29 0 577.5t4818.5zM919 734q020761t-1786l-81379q-104513.566.5t-3.532.5q029 2629q10 0 15 2l680q-37148314q-54 080 26t-26 66q0 14 4.5 39.5t10.5 53.5l81 382q11 51 17.5 92.5t6.5 61.5l144 31v-6z" /><glyph glyph-name=".notdef" horiz-adv-x="551" d="M25 695h501v-695h-501v695zM469 57v581h-387v-581h387z" /><glyph glyph-name=".null" horiz-adv-x="0"  /><glyph glyph-name="nonmarkingreturn" horiz-adv-x="225"  /><glyph glyph-name="space" unicode=" " horiz-adv-x="225"  /><glyph glyph-name="exclam" unicode="!" horiz-adv-x="313" d="M191 221h-102l69 466l165 23zM193 70q03524.559t-59.524q-34 057.5 24t-23.5 59t24 59t59 24q34 0 5824t2459z" /><glyph glyph-name="quotedbl" unicode="&#x22;" horiz-adv-x="416" d="M383 426h-126l59 282h126zM151 426h-126l59 282h126z" /><glyph glyph-name="numbersign" unicode="#" horiz-adv-x="532" d="M456 417l-36126h79v-90h-103l-57201h-97l57 201h-99l-57201h-97l57 201h-78v90h102l36 126h-78v90h102l56 201h97l-56201h99l56 201h97l-56201h79v-90h-103zM260 417l-36126h99l36 126h-99z" /><glyph glyph-name="dollar" unicode="$" horiz-adv-x="622" d="M556 549q-42 2978 39.5t-75 10.5q-24 0457.5t-36.520t-2530t-9.536.5q021 14.534t49.525l8027q6823 102.561t34.598q05320.5100t-5983.5t-9460t-125.529.5l-1781h-86l17 81q-49 596 20.5t-85 40.5l74 107q4426 85.540t94.514q66 0 105.5 31.5t39.5 83.5q0 2618 43t-56 30l-73 25q-30 1053.5 22t-40 28.5t-25 39.5t-8.5 55q0 50 19.5 94t53.5 77.5t81 55.5t101 28l16 72h86l-1573q515 95.522.5t76.544.5z" /><glyph glyph-name="percent" unicode="%" horiz-adv-x="830" d="M433 575q0421481t-4169t-6748t-9218q-65 0101 32.5t-36 89.5q0 51 16 92.5t44.5 71t67 45t83.5 15.5q66 0 10335t3795zM794 207q0421481t-4169t-6748t-9218q-65 0101 32.5t-36 89.5q0 51 16 92.5t44.5 71t67 45t83.5 15.5q66 0 10335t3795zM236 0h-107l512 695h107zM685 215q0 2610.5 37t-33.5 11t-4012t-2833t-16.549.5t-5.561.5q023 12.532t35.59q21 0 37 12.5t27 33t16.5 47.5t5.5 56zM324 583q0 2610.5 37t-33.5 11t-4012t-2833t-16.549.5t-5.561.5q023 12.532t35.59q21 0 37 12.5t27 33t16.5 47.5t5.5 56z" /><glyph glyph-name="ampersand" unicode="&#x26;" horiz-adv-x="711" d="M484 0l-34 44q-372684.542t-120.516q-52 092.5 12t-68 33.5t-41.5 51t-14 63.5q0 63 42.5 116t125.5 88q-31 2941.5 55.5t-10.5 59.5q0 42 18 78.5t50 63.5t75.5 43t94.5 16q78 0 12334.5t4589.5q0296.554.5t-23.549t-4745.5t-7744l-136l92111q7 10 12.5 26t10 31.5t7.5 29.5t4 21h112q-95129104.5t-4791.5l115144h-177zM254 276q-38205850.5t-2068.5q035 24.554t69.519q72 0 114 36zM414 524q0 2213.5 35.5t-36.5 13.5q-33 05724t-2458q016 8.534.5t31.545.5q43 17 67 48t24 65z" /><glyph glyph-name="quotesingle" unicode="'" horiz-adv-x="265" d="M231 426h-126l59 282h126z" /><glyph glyph-name="parenleft" unicode="(" horiz-adv-x="345" d="M470 699q-362361.541.5t-4436.5t-32.538t-2846q-234240.599t-29.5114q-52510.554.5t-1059.5t-7.558.5t-350.5q036 4.564.5t1551.5t2942.5t46.537.5l-4874q-84 31131.5 102t-47.5 180q0 44 7 98t19 111q23 112 67.5 201.5t118.5 155.5q75 66 167 102z" /><glyph glyph-name="parenright" unicode=")" horiz-adv-x="345" d="M302 500q021247.5t-5.554t-854.5t-9.551q-2311267202.5t-119156.5q-7466168102l-17 85q36 22 61 40t43 35.5t32 37.5t29 46q23 42 40.5 100t30.5 115q6 25 11 54.5t8.5 59t6 57.5t2.5 51q0 333.5 60.5t-13.5 51.5t-28 44.5t-46 38.5l47 74q8332 129.5101.5t46.5180.5z" /><glyph glyph-name="asterisk" unicode="*" horiz-adv-x="472" d="M386 476l83114l-8361l-84 115l-81110l-81 61l84 109l-133 46l32 95l13147v138h102v-138l131 43l3095z" /><glyph glyph-name="plus" unicode="+" horiz-adv-x="629" d="M578 240h-206l-45211h-137l45 211h-204l27 126h204l45 211h137l-45211h206z" /><glyph glyph-name="comma" unicode="," horiz-adv-x="289" d="M192 48q03516.567t-42.558t-58.544t-63.526l-38 57q33 12 57.5 27t24.5 31q0 1914 27q-15 924.5 28t-9.5 44q0 19 7 35.5t19.5 28.5t28.5 18.5t34 6.5q44 0 7027.5t2680.5z" /><glyph glyph-name="hyphen" unicode="-" horiz-adv-x="359" d="M294 219h-240l25 110h240z" /><glyph glyph-name="period" unicode="." horiz-adv-x="288" d="M194 73q018734.5t-1928.5t-2819t-347q-37 062.5 26t-25.5 63q0 36 25.5 61.5t61.5 25.5q37 0 6325.5t2661.5z" /><glyph glyph-name="slash" unicode="/" horiz-adv-x="415" d="M40154h-96l463 918h96z" /><glyph glyph-name="zero" unicode="0" horiz-adv-x="570" d="M561 464q0589.5113.5t-26.5105.5t-41.593t-54.576q-414588.567.5t-105.522.5q-85 0131 58.5t-46 161.5q0 58 9.5 114t28 106.5t44.5 93.5t59 76q41 40 88 60.5t96 20.5q85 0 131.558t46.5155zM418 494q0 264.5 42.5t-12 26t-17.5 13t-22 3.5q-20 038.512t-33.534q-233339.581.5t-28100t-1799.5t-5.580q054 15.571t40.517q21 0 41 14.5t37 40.5q21 35 37 83.5t26.5 98.5t15.5 96.5t5 76.5z" /><glyph glyph-name="one" unicode="1" horiz-adv-x="570" d="M356 109h87l-23109h-325l23 109h107l86 404q-321771.536.5t-74.530.5l-19 76l238 145h91z" /><glyph glyph-name="two" unicode="2" horiz-adv-x="570" d="M561 528q07242.5135t-122.5134q-171541.536t-50.542t-51.541t-45.533q17 2 46.5 3.5t54.5 1.5h200l-53112h-429l20 94q18 14 44 35.5t54.5 45t56 47t48.5 42.5q56 50 87.5 87t47.5 64.5t19.5 47.5t3.5 36q0 3320 46.5t-49 13.5q-32 068.517t-86.552l-54 88q64 48 126.5 73.5t139.5 25.5q38 0 6911t52.530.5t3347t11.560.5z" /><glyph glyph-name="three" unicode="3" horiz-adv-x="570" d="M559 529q05331.599.5t-105.573.5q4210 6639t2471q05732107.5t-8788.5t-128.560t-157.522h-21q-9 018 0.5t-19 1.5t-24 3l-13 99q225 36.56t38.51q56 0 105 14.5t85.5 38.5t57.5 54.5t21 62.5q0 3525.5 51.5t-95.5 16.5q-9 0270.5t-240.5l24 112q61 282.5t401.5q63 0 97 26t34 74q0 2418 39t-54 15q-51 092.519.5t-67.538.5l-52 87q60 41 126.5 62.5t127.5 21.5q42 0 7611.5t57.531t3647t12.558.5z" /><glyph glyph-name="four" unicode="4" horiz-adv-x="570" d="M521 125h-45q-13 021 1t-10 1v-12q09324l-24115l-13116l31 143l7 25q-21102t-221h-267l19 91l289 453h143l-214338q-182935.553.5t-30.539.5q2 0 8 1t13 1h110q8 0 150.5t90.5q0 2 1 8.5t2 9.5q5 21 14.5 58.5t20.5 74.5l36 117l110 24l-57262q-315521.5t-38.5q3 0 13.5 0.5t18.5 0.5h42z" /><glyph glyph-name="five" unicode="5" horiz-adv-x="570" d="M532 551h-196l-43136q22 3 48 3q81 0 127.541.5t46.5110.5q05926112.5t-74.594.5t-117.565t-15624q-24 038 1t-37 6l-8 101q278 4810.5t432.5q48 0 87.5 14t68 38t44 54.5t15.5 63.5q0 3723.5 58t-65.5 21q-31 065.54t-85.519l111 374h341z" /><glyph glyph-name="six" unicode="6" horiz-adv-x="570" d="M567 621q-40118228.5t-82.544t-77.564t-6586.5q20 14 49.5 20.5t61.5 6.5q40 0 72.512.5t5535.5t34.554.5t1268.5q05020.598t-58.586t-9161t-11723q-46 083 15t-62.5 43t-39.5 66.5t-14 85.5q0 88 38 170t105 151t158 121t198 81zM403 243q0 3516.5 54.5t-56.5 19.5q-24 050.58t-60.525q-5118.525t-6.529t-4.529.5t-1.525.5q086 7686q26 0 49.5 13t41 34.5t28 49t10.5 57.5z" /><glyph glyph-name="seven" unicode="7" horiz-adv-x="570" d="M571 548q-293272.590t-91132t-92160.5t-75.5174.5l-15537q52 114 98 204t88.5 161.5t83.5 127.5t83 101q-8218.53t-21.51h-265l55 121h425z" /><glyph glyph-name="eight" unicode="8" horiz-adv-x="570" d="M584 538q0331262t-3452.5t-52.541t-66.527.5q227 4419t39.528.5t28.538t1147.5q05826103t-69.576t-100.547t-11916q-52 091 12t-65 33t-39 49t-13 60q0 69 39.5 124t113.5 84q-31 1649.5 45.5t-18.5 67.5q0 48 21 88.5t58.5 70.5t89.5 46.5t114 16.5q90 0 143.538t53.5101zM386 189q0 3334.5 54.5t-93.5 44.5q-422265.558.5t-23.572.5t24.557t69.521q54 0 88.5 31.5t34.5 78.5zM434 524q0 2618 40.5t-60 14.5q-23 0437.5t-3520.5t-23.529t-8.533q018 1132.5t3628.5q116 1810l199q31 14 51 28t32 28.5t16.5 29t4.5 29.5z" /><glyph glyph-name="nine" unicode="9" horiz-adv-x="570" d="M579 486q09838.5183t-104.5154t-153.5121.5t-186.586.5l-56 84q43 10 90 33t90 53t77.5 63t52.5 65q-25114415t-414q-39 071 13t-54.5 35.5t-35 52.5t-12.5 65q0 59 22 112t61.5 92.5t94 63t119.5 23.5q93 0 141.550t48.5141zM438 490q0 4019.5 62t-54.5 22q-26 048.514.5t-39.538t-2753t-1058.5q038 2160t5922q25 0 44.5 8.5t43.5 28.5q14 29 22.5 61.5t8.5 63.5z" /><glyph glyph-name="colon" unicode=":" horiz-adv-x="302" d="M265 368q03625.561t-61.525t-61.5 25t-25.5 61t25.5 61.5t61.5 25.5t61.525.5t25.561.5zM201 70q03625.561t-61.525t-61.5 25t-25.5 61t25.5 61.5t61.5 25.5t61.525.5t25.561.5z" /><glyph glyph-name="semicolon" unicode=";" horiz-adv-x="325" d="M212 48q03516.567t-42.558t-58.544t-63.526l-38 57q33 12 57.5 27t24.5 31q0 1914 27q-15 924.5 28t-9.5 44q0 19 7 35.5t19.5 28.5t28.5 18.5t34 6.5q44 0 7027.5t2680.5zM272 368q03625.561t-61.525t-61.5 25t-25.5 61t25.5 61.5t61.5 25.5t61.525.5t25.561.5z" /><glyph glyph-name="less" unicode="&#x3c;" horiz-adv-x="379" d="M194 292l119218l-11986l-175 311l307 311l8895z" /><glyph glyph-name="equal" unicode="=" horiz-adv-x="676" d="M652 343h-548l27 126h548zM608 137h-548l26 126h548z" /><glyph glyph-name="greater" unicode="&#x3e;" horiz-adv-x="379" d="M8112l-87 95l220 223l-119 218l119 86l175311z" /><glyph glyph-name="question" unicode="?" horiz-adv-x="454" d="M488 563q05934105t-9379q-331954.540.5t-3443.5t-1843.5t-7.540.5h-115q-5 76 32 132t101 96q18 11 33.5 21t27 21.5t18.5 25t7 31.5q0 2819.5 40.5t-48.5 12.5q-38 06817t-5234l-42 89q11 10 30.5 23t45.5 25t59 20t72 8q36 0 65.510.5t50.529.5t32.545t11.557zM257 70q03524.559t-59.524q-34 057.5 24t-23.5 59t24 59t59 24q34 0 5824t2459z" /><glyph glyph-name="at" unicode="@" horiz-adv-x="906" d="M860 276q06618120.5t-4993t-72.560t-87.521.5q-38 060 8t-33.5 21t-16 29.5t-5.5 33.5q-263265.556t-84.524q-61 096 37.5t-35 112.5q0 62 19 119t55 100.5t89 69.5t121 26q37 0 73.512t68.529q-206734.5134t-28.5135q-838855q021 10.528t33.57t42.5 16t33.5 45t22 69t8 88q0 5918.5 108t-53 83.5t-84.5 53.5t-113 19q-60 011528t-9776t-67.5111.5t-25.5133.5q069 21.5121t5987.5t8853t108.517.5q41 0 76.5 5.5t67.5 16.5l1885q-371278.520t-83.58q-86 0158.5 24t-125 71t-82.5 116t-30 159q0 88 32.5 167.5t89.5 140t134.5 96t167.5 35.5q84 0 154.525.5t122.572t81112t29144.5zM548 372q-8 415.5 5.5t-20.5 1.5q-45 07622t-5156.5t-2977t-984.5q030 9.546.5t32.516.5q15 0 34 8.5t36 24t31.5 39t20.5 53.5z" /><glyph glyph-name="A" unicode="A" horiz-adv-x="588" d="M398 0l-14 165h-204l-84165h-151l376 697h151l71697h-145zM365 426q-3 403 74v44q-369.521.5t-15.535t-18.540.5t-17.537l-62129h136z" /><glyph glyph-name="B" unicode="B" horiz-adv-x="598" d="M601 545q0268.552t-2650t-4543.5t-66.530.5q4811 7648.5t2886.5q0173.537t-11.541.5t-2042.5t-3039q-19204034t-4723t-5813t-724h-252l148 695h247q39 0 72.59.5t57.528t37.547t13.565.5zM405 237q0 3721 51t-68 14h-87l-40188h91q22 0 40 5.5t32 14.5q23 16 38 45t15 58zM450 515q0 3216.5 46.5t-60.5 14.5h-87l-33159h82q29 0 44.5 5.5t28.5 14.5q17 12 29.5 32t12.5 46z" /><glyph glyph-name="C" unicode="C" horiz-adv-x="563" d="M544 563q-22 2049 28t-56 8q-35 070.517t-59.545q-23264166t-3084t-18.586.5t-6.572.5q069 32100.5t9131.5q31 0 61.5 11.5t66.5 36.5l4891q-483498.549.5t-110.515.5q-118 0182 63t-64 181q0 40 7.5 84t21 86.5t33 82t43.5 71.5q57 76 135.5 115t163.5 39q52 0 96.515t67.540z" /><glyph glyph-name="D" unicode="D" horiz-adv-x="630" d="M617 458q043890.5t-23.595t-39.591t-5677.5q-272955.549t-62.532t-77.517.5t-100.55.5h-169l148 695h160q87 0 142.513.5t88.554.5q2431 38.569t14.5100zM466 460q0 244.5 46.5t-16.5 40t-33.5 28t-56.5 10.5h-63l-100471h69q45 0 78 21.5t52 50.5q23 36 37.5 78.5t23 81t11.5 69.5t3 45z" /><glyph glyph-name="E" unicode="E" horiz-adv-x="495" d="M526 581h-236l-34161h197l-24114h-196l-39186h262l-26120h-405l148 695h396z" /><glyph glyph-name="F" unicode="F" horiz-adv-x="438" d="M510 582h-219l-34159h175l-24114h-175l-66309h-142l148 695h377z" /><glyph glyph-name="G" unicode="G" horiz-adv-x="666" d="M574 541q-29 2862.5 40t-73.5 12q-31 059.510t-49.527q-302452.566.5t-3790.5t-2295t-7.578q069 32.599t92.530q47 0 82 17l34 158h-103v114h272l-72336q-6032120.545t-122.513q-61 0107 17t-77.5 48.5t-47.5 76t-16 98.5q0 60 12.5 117t34.5 107t51.5 91.5t63.5 69.5q61 51 117 70t124 19q63 0 114.520t89.560z" /><glyph glyph-name="H" unicode="H" horiz-adv-x="633" d="M506 0h-142l66 310h-200l-66310h-139l148 695h139l-58270h200l58 270h142z" /><glyph glyph-name="I" unicode="I" horiz-adv-x="297" d="M170 0h-145l148 695h145z" /><glyph glyph-name="J" unicode="J" horiz-adv-x="297" d="M199 135q-7341255.5t-9.536t-8.524.5t-920q-14323858.5t-51.547.5t-5736t-54.524l-49 75q31 17 58 40t41 44q6 9 11.5 20t10 25.5t9.5 34.5t11 48l122 575h145z" /><glyph glyph-name="K" unicode="K" horiz-adv-x="600" d="M392 368l168368h-178l-137 363l-77363h-143l148 695h143l-68317l263 317h175z" /><glyph glyph-name="L" unicode="L" horiz-adv-x="472" d="M392 0h-367l148 695h143l-123579h249z" /><glyph glyph-name="M" unicode="M" horiz-adv-x="827" d="M723 0h-135l53 371q5 33 9.5 60.5t10.5 55.5q-13302353t-2654l-191380h-119l-21 365q-2 263 59.5t1 63.5q-7311562t-1763l-101363h-141l213 695h177l17348q119 134v-51q012125q11 27 22.5 54.5t26.5 58.5l168 345h180z" /><glyph glyph-name="N" unicode="N" horiz-adv-x="635" d="M508 0h-144l-62 266q-8 3315.5 67t-14.5 64.5t-12 56.5q-5 246 40q-321745q-4268.552.5t-1052t-9.547.5l-59297h-135l148 695h153l74278q1556 24109t1291q2 20 5.5 46.5t7.5 53.5t8 51.5t8 42.5l58 284h133z" /><glyph glyph-name="O" unicode="O" horiz-adv-x="694" d="M682 454q06616132t-46124.5t-72.5104.5t-95.571q-693315733q-65 0110 18.5t-73.5 51.5t-41.5 79t-13 100q0 74 16 137t42.5 114t59.5 89.5t67 62.5q15 11 34 22.5t43.5 20.5t55.5 14.5t71 5.5q115 0 175.566.5t60.5183.5zM525 483q0 5123.5 82t-80.5 31q-35 067.516.5t-53.544.5q-21273867t-2984t-18.588t-6.579q067 27.594t80.527q30 0 59.5 11.5t53.5 40.5q22 28 40 70t30.5 89t19 93.5t6.5 82.5z" /><glyph glyph-name="P" unicode="P" horiz-adv-x="571" d="M606 536q09141.5155.5t-119.5100.5q-261266.518t-82.56h-74l-54256h-143l148 695h183q71 0 112.57.5t67.524.5q3320 51.553t18.574zM455 509q0 3519 54t-58 19h-86l-45212h70q41 0 64.5 8.5t37.5 25.5q16 19 26 47t10 58z" /><glyph glyph-name="Q" unicode="Q" horiz-adv-x="695" d="M683 454q06615.5131t-45122.5t-70.5103.5t-9273q145 2714.5t2417.5q1711 40.521t46.510q20 0 37 2t25 4l-4688q-42205.5t-413.5q-38 071.5 15.5t-57.5 33.5q-26 1959 39t-69 31q-64 0109 18.5t-73.5 51.5t-42 78.5t-13.5 100.5q0 74 16 137t42 113.5t58.5 89t66.5 62.5q15 11 34.5 22.5t44 20.5t56 15t71.5 6q115 0 175.566.5t60.5183.5zM526 483q0 5123.5 82t-80.5 31q-35 067.516.5t-53.544.5q-21273867t-2984t-18.588t-6.579q067 27.594t80.527q30 0 59.5 11.5t53.5 40.5q22 28 40 70t30.5 89t19 93.5t6.5 82.5z" /><glyph glyph-name="R" unicode="R" horiz-adv-x="576" d="M598 543q05116.593t-4473t-63.550.5t-7626.5q96 1716.5t1318.5q713 16.535t2048t2154t19.553t1645t1130h-165l-36 113q-15 4827.5 79.5t-22.5 51t-18.5 29t-17.5 13.5q-8 417 4l-62290h-141l148 695h259q79 0 122.541t43.5111zM448 515q0 3622.5 52t-66.5 16h-69l-40188h43q45 0 69 5t41 19q20 16 32.5 44.5t12.5 51.5z" /><glyph glyph-name="S" unicode="S" horiz-adv-x="612" d="M550 550q-34 2671.5 37.5t-82.5 11.5q-24 0457t-36.519t-2528t-9.534q021 14.537.5t49.529.5l8030q6725 10264.5t3599.5q05723.5105.5t-6784t-10655.5t-140.520q-74 0129.5 17.5t-99.5 45.5l74 107q4426 85.540t94.514q66 0 105.5 31.5t39.5 83.5q0 2618 43.5t-56 31.5l-73 27q-59 2293 57.5t-34 96.5q0 52 23 97t63.5 77.5t94.5 51t116 18.5q64 0 121.518.5t95.551.5z" /><glyph glyph-name="T" unicode="T" horiz-adv-x="501" d="M564 579h-164l-123579h-144l123 579h-170l25 116h501z" /><glyph glyph-name="U" unicode="U" horiz-adv-x="644" d="M570 227q-73314.559.5t-1747.5t-23.538t-3432q-161234.523.5t-4320t-56.514t-755.5q-102 0157.5 41t-55.5 109q0 36 8 74l103 484h143l-97457q-5206.535.5t-1.527.5q019 732t1921t2811.5t333.5q48 0 79.5 23.5t43.5 60.5q2 5 3.5 10t3 11t3.5 15t5 23l95 445h142z" /><glyph glyph-name="V" unicode="V" horiz-adv-x="595" d="M3055h-127l-87 700h149l36372q223 453t268q7 16 15.5 34.5t18 37t19 36t17.5 31.5l193 354h151z" /><glyph glyph-name="W" unicode="W" horiz-adv-x="822" d="M6064h-153l-2 281q0 35 0.5 64.5t2.5 55.5t4.5 51.5t5.5 51.5q-491131q-8231954t-24.566.5t-27.569.5l-118283h-156l-17 699h145l1274q0441.582.5t-3.569.5t-3.552t-2.529q14 44 34.5 102t49.5 124l122 281h151l-2311q023151.5t-2.556t-3.549.5q-120229q3 9 11 32q9 27 22 61.5t27.5 72t27.5 67.5l113 264h150z" /><glyph glyph-name="X" unicode="X" horiz-adv-x="538" d="M384 366l134366h-164l-74 240l-171240h-180l300 375l-122 320h163l61194l136 194h167z" /><glyph glyph-name="Y" unicode="Y" horiz-adv-x="554" d="M356 286l-61286h-146l61 286l-129 409h162l48190q829 1149t540q10 15 24.5 38.5t31.5 48.5l131 192h171z" /><glyph glyph-name="Z" unicode="Z" d="M576 594l-346435q-141726.529.5t-16.515.5q6 0 26.5 1t39.5 1h228l-48116h-444l21 98l342 423q17 21 33 38.5t21 22.5q-5123.52t-46.51h-207l45 116h424z" /><glyph glyph-name="bracketleft" unicode="[" horiz-adv-x="315" d="M349 642h-90l-150708h90l-1990h-210l189 888h210z" /><glyph glyph-name="backslash" unicode="\" horiz-adv-x="425" d="M24249l-135 779l124 26l133779z" /><glyph glyph-name="bracketright" unicode="]" horiz-adv-x="315" d="M157156h-210l19 90h90l150 708h-90l20 90h210z" /><glyph glyph-name="asciicircum" unicode="^" horiz-adv-x="598" d="M420 343l-61 238l-162238h-142l257 365h146l103365h-141z" /><glyph glyph-name="underscore" unicode="_" horiz-adv-x="473" d="M400168h-501l24 98h501z" /><glyph glyph-name="grave" unicode="`" horiz-adv-x="302" d="M320 557l-216 100l66 106l196134z" /><glyph glyph-name="a" unicode="a" d="M519 487q-4128.527.5t-932.5t-8.534t-732l-41194q-419438q036 2362l-11183q-18 1227 30t-12 33q-293061.545.5t-74.515.5q-70 0105.5 41.5t-35.5 121.5q0 93 31 170t77 123q42 42 91 61t113 19q45 0 91.58t78.527zM367 410q-5 316 5.5t-20 2.5q-12 023.51t-22.55.5t-2313t-2524.5q-161927.546t-19.557t-1260.5t-455.5q035 9.550.5t31.515.5q16 0 31.5 7.5t28.5 19t23.5 25.5t15.5 28z" /><glyph glyph-name="b" unicode="b" horiz-adv-x="564" d="M534 347q0471092.5t-28.586t-46.575.5t-6460q-36267236t-7510q-31 060.5 3.5t-56.5 10.5t-49.5 15.5t-38.5 19.5q5 14 11 36t9 37l96 451q7 33 10.5 58.5t3.5 45.5q0 234 39l139 43q415 443q0212.545.5t-7.547.5l-1781q-163.516t-5.520.5t-5.519.5t-4.513q22 26 59 45.5t82 19.5q72 0 104.547t32.5131zM388 349q0 6740 67q-31 06122.5t-5057.5l-50228q88 2615t437q22 0 46 17.5t38 42.5q10 19 19 47.5t15.5 58t10 56t3.5 41.5z" /><glyph glyph-name="c" unicode="c" horiz-adv-x="446" d="M393 382q-17 1937 28.5t-39 9.5q-36 06330q-14162742t-22.557.5t-15.564.5t-663q040 1758t4418q28 0 55.5 14t56.5 37l4583q-423286.550t-101.518q-86 0131 46.5t-45 129.5q0 48 10.5 92.5t28 84t41 71.5t50.5 55q35 29 74.5 45t93.5 16q35 0 71.514.5t64.546.5z" /><glyph glyph-name="d" unicode="d" horiz-adv-x="549" d="M464 187q-146519102t-557q019 328h-115q-2 64 21t-1 26q-24285944t-7016q-81 0119 45t-38 135q0 38 7.5 77t21.5 76t35 70t48 59q35 33 77.5 51.5t87.5 18.5q28 0 53.55t33.59q1 6 3 21t7 38l37 176l12921zM374 392q-20 2065 20q-39 07040q-141925.544.5t-19.553t-12.555.5t-4.552q074 5274q11 0 25 6.5t27.5 17t24.5 22t17 22.5z" /><glyph glyph-name="e" unicode="e" horiz-adv-x="514" d="M502 383q03616.568t-4956t-8138t-112.514q-22 039 2.5t-22 4.5q-283.523t-1.523q044 2263t6419q35 0 70.5 14t71.5 40l3484q-523610353t-10517q-92 0143 47t-51 141q0 40 8.5 79.5t23.5 76t36 68.5t47 57q38 37 81.5 52.5t94.5 15.5q38 0 708t5524.5t3643.5t1364zM367 372q0 2312 38t-42 15q-38 06626t-4393q31 14.53t23.52q22 0 44 4t40 12.5t29.5 22t11.5 32.5z" /><glyph glyph-name="f" unicode="f" horiz-adv-x="324" d="M408 628q-29 1554 15q-26 044.515t-24.543l-1573h130l-5492h-91l-82420q-73620.569t-3161.5t-37.552.5t-3941l-82 74q10 10 22 27.5t23 37.5t19.5 42t12.5 43l84 420h-50l20 92h47q1 16 3.5 34.5t6.5 35.5q17 83 69.5 121t131.5 38q33 0 63.59t50.523z" /><glyph glyph-name="g" unicode="g" horiz-adv-x="556" d="M537 488q-133.511t-5.518t-5.520.5t-4.518.5l-57263q-83813.567t-952.5t-6.542t-735.5q-115238.586.5t-64.555t-8129t-898.5q-51 097.5 12.5t-81.5 33.5l46 90q2617 62.526.5t81.59.5q55 0 87.5 24t41.5 64q3 14 7 31.5t8 29.5q-232052.531.5t-58.511.5q-85 0122 43t-37 133q0 38 7 78t21.5 77.5t35 71.5t47.5 60q35 33 82 53t104 20q66 0 112.57.5t90.527.5zM380 405q-8 623 9t-33 3q-20 045.513t-39.531q-141925.544.5t-19.553.5t-1256t-452q037 1457.5t4020.5q13 0 27 6.5t27 17t23 22t16 22.5z" /><glyph glyph-name="h" unicode="h" horiz-adv-x="572" d="M535 423q012227t-738l-76358h-131l73 344q4 17 4 33q0 2010 28.5t-31 8.5q-14 030.57t-33.518t-33.525.5t-28.530.5l-71333h-133l120 561q8 38 11.5 63t3.5 44q0 111 19t-3 16l135 43q515 543q023351t-853l-1885q-16315t-4.518t-517t-4.512q29 32 74 53t92 21q61 0 9026.5t2976.5z" /><glyph glyph-name="i" unicode="i" horiz-adv-x="280" d="M159 0h-134l107 503l138 21zM314 653q0352459t-5924q-34 058 24t-24 59t24.5 59t59.5 24q34 0 57.524t23.559z" /><glyph glyph-name="j" unicode="j" horiz-adv-x="268" d="M152 14q-8361762.5t-18.545t-18.530.5t-1821q-454712075l-42 78q17 7 34.5 23.5t28.5 30.5q13 17 21 39.5t16 58.5l105 493l137 21zM304 653q0352459t-5924q-34 058 24t-24 59t24.5 59t59.5 24q34 0 57.524t23.559z" /><glyph glyph-name="k" unicode="k" horiz-adv-x="515" d="M294 746q26 315.5t122.5q025563t-1692l-118553h-134l120 562q8 34 11 59t3 45q0 111 20t-3 17zM354 290l138290h-158l-110 290l173 222h166z" /><glyph glyph-name="l" unicode="l" horiz-adv-x="282" d="M290 746q16 1.516t0.523q0252.556.5t-9.563.5l-81379q-104513.566.5t-3.532.5q029 2629q10 0 15 2l680q-37148314q-54 080 26t-26 66q0 14 4.5 39.5t10.5 53.5l81 382q8 35 12 62.5t4 49.5q0 214 36z" /><glyph glyph-name="m" unicode="m" horiz-adv-x="800" d="M760 417q030867l-74350h-130l72 338q6 28 6 44q0 177.5 23t-25.5 6q-26 054.521t-51.556l-71334h-127l71 333q7 31 7 50q0 167.5 22t-24.5 6q-26 053.520t-54.557l-71334h-131l75 350q3 14 4.5 30t1.5 31q0 212 39.5t-6 29.5l124 49q512 9.537t2.545q38 38 79.5 57t84.5 19q39 0 64.518t29.558q42 42 83 59t82 17q43 0 7324.5t3081.5z" /><glyph glyph-name="n" unicode="n" horiz-adv-x="551" d="M511 422q017236t-636l-74350h-132l71 333q3 15 5 26.5t2 19.5q0 198.5 25.5t-26.5 6.5q-24 05217t-6060l-71334h-132l73 345q9 40 9 74t-9 61l124 49q36 617t4.523t2.523.5t019.5q32 35 74 56t99 21q49 0 7627t2774z" /><glyph glyph-name="o" unicode="o" horiz-adv-x="546" d="M512 347q06818132t-55114.5t-93.581t-132.530.5q-88 0135 46.5t-47 134.5q0 72 21.5 136t60 112t93 76t120.5 28q87 0 136.545t49.5130zM368 347q0 4516 60.5t-46 15.5q-34 05930.5t-41.573t-24.588t-874.5q037 1754t4617q32 0 57 26.5t41.5 66.5t25 85t8.5 83z" /><glyph glyph-name="p" unicode="p" horiz-adv-x="565" d="M535 354q035775.5t-20.580.5t-32.575t-4258q-353579.555.5t-94.520.5q-30 058.5 5t-45.5 15q17117t-418l-34160l-13634l122 573q9 43 7.5 73.5t-9.5 53.5l124 49q35 615.5t4.522.5t2.523.5t020.5q29 30 71 53t90 23q66 0 101.545.5t35.5123.5zM391 350q0 3110.5 46t-36.5 15q-25 055.518.5t-59.562.5l-47219q68 2715t417q32 0 51 13t31 31q14 21 25 49.5t18.5 58.5t11.5 59t4 50z" /><glyph glyph-name="q" unicode="q" horiz-adv-x="558" d="M540 486q-82316.556.5t-16.567.5l-116550l-13634l41 194q3 15 9 36.5t11 33.5q-25236239t-6716q-75 0112.5 39.5t-37.5 129.5q0 40 7.5 80t21 77.5t33.5 70t44 57.5q38 38 89 60t122 22q57 0 1078.5t7928.5zM388 410q-13 527.5 6t-37.5 1q-17 036.58.5t-31.518.5q-211735.544.5t-23.558t-1360.5t-452q051 17.568.5t39.517.5q24 0 50 19t48 56z" /><glyph glyph-name="r" unicode="r" horiz-adv-x="368" d="M365 395q-17 1039 10q-20 04314.5t-5455.5l-71335h-134l72 338q11 48 10.5 82.5t-8.5 59.5l124 49q613 10.537t1.546q34 35 69.5 56.5t73.5 21.5q14 0 232t239z" /><glyph glyph-name="s" unicode="s" horiz-adv-x="484" d="M416 390q-34 2065 27.5t-60 7.5q-33 054.512.5t-21.540.5q032 5451l5821q197 37.518t32.526t2335t945q0381573t-4661.5t-7742t-10915.5q-57 0106 15.5t-93 41.5l54 98q1511 34.520.5t4116.5t44.511.5t454.5q33 0 56 19t23 45q0 2016.5 30.5t-48.5 21.5l-57 20q-40 1467 45t-27 84q0 33 13 64.5t41.5 56t73 39.5t107.5 15q51 0 9413t7533z" /><glyph glyph-name="t" unicode="t" horiz-adv-x="316" d="M335 420h-89l-54257q-313424.5t-120.5q021 1129t348q9 0 24 2.5t26 7.5v-81q-291158.516.5t-55.55.5q-58 089.5 25t-31.5 63q0 14 1.5 31t5.5 35l59 278h-51l20 92h51q8 38 14 65t17 56l141 34q-11352275.5t-1979.5h119z" /><glyph glyph-name="u" unicode="u" horiz-adv-x="547" d="M447 133q-5262.556t13.548l-11646q-9 1415.5 32t-8.5 36q-29266645t-8219q-60 092.5 28t-32.5 76q0 14 2 33.5t8 47.5l69 328l138 25l-70329q-5207.539t-2.530q017 1028t2211q15 0 31.5 7.5t31.5 18.5t27 24.5t20 25.5l71 333l135 27z" /><glyph glyph-name="v" unicode="v" horiz-adv-x="464" d="M239 0h-111l-79 504l138 17l25231q326 562t161q8 23 23.5 57.5t35.5 72.5l115 215h143z" /><glyph glyph-name="w" unicode="w" horiz-adv-x="699" d="M501 0h-123l-9 176q-2 312.5 64.5t0.5 59.5q1 18 1 27t2 24q-38514.5t-513t-6.515.5t-9.523q-7171840t-22.548.5t-2349.5t-19.542l-48105h-125l-33 503l134 15v-197q022148t-1.549.5t-1.540.5q-115118q1 4 7 19q7 17 17 41.5t23 54.5t28 60l85 172h126l5169q132 162v-54q024141.5t-123.5q3 8 9.5 26t15 41.5t18.5 49.5t21 50l78 183h140z" /><glyph glyph-name="x" unicode="x" horiz-adv-x="468" d="M314 265l128265h-158q-9 2619 51.5t-18.5 48t-14.5 41t-8 30.5q-6112233t-35.547.5t-39.550t-3340.5h-176l251 276l-96 213l138 37q615 13.534t1540t1441.5t11.537.5q9 14 22 33.5t27.5 39.5t27.5 37.5t21 28.5h162z" /><glyph glyph-name="y" unicode="y" horiz-adv-x="514" d="M2788q-213738.564.5t-33.547t-3133.5t-3124q-291963.530.5t-70.516.5l-27 90q23 5 48 13t42 19q15 9 26.5 18.5t21.5 21.5t19.5 27t21.5 35h-37q-1 142 32t-3 37.5t-4 38.5t-4 36l-46 360l138 16l25299q111 1.526.5t131.5t129t0.519q3 7 9.5 23.5t16 38.5t21 46t22.5 45l129 244h144z" /><glyph glyph-name="z" unicode="z" horiz-adv-x="426" d="M441 420l-295327h226l-4293h-377l8 83l313 335h-214l14 94h379z" /><glyph glyph-name="braceleft" unicode="{" horiz-adv-x="398" d="M454 618h-49q-23 0376t-22.515.5t-12.521t-621.5l-34161q-8352255t-3130.5t-35.514t-34.54.5v-2q131 27.53.5t26.59t2020t835.5q08116.5t-318.5l-34162q-312324q016 10.528t43.512h49l-24114h-105q-45 074 23.5t-29 76.5q0 11 1 22t4 24l36 172q1 5 1 13q0 1911.5 30t-27 17t-31 7.5t-24.5 1.5l24 114q9 0 27.5 2t38 9t36 21t21.5 37l37 173q17 78 60.5 111.5t99.5 33.5h105z" /><glyph glyph-name="bar" unicode="|" horiz-adv-x="315" d="M147208h-126l204 964h126z" /><glyph glyph-name="braceright" unicode="}" horiz-adv-x="398" d="M366 231q-11 029.52t-37.59t-3521t-2137l-36173q-177860.5111.5t-99.533.5h-105l24 114h49q23 0 37.5 6t23 15.5t12.5 21t6 21.5l34 161q7 35 21 55t31 30.5t35.5 13.5t34.5 5v2q-13 127.5 3.5t-26.5 9t-20 19.5t-8 36q0 8 1 16.5t3 18.5l35 162q3 10 3 23q0 1610.5 28.5t-44.5 12.5h-49l25 114h108q43 0 71.523.5t28.576.5q011122t-424l-37172q-15113q019 1130t2617t317.5t261.5z" /><glyph glyph-name="asciitilde" unicode="~" horiz-adv-x="571" d="M526 290q-12162731t-3427t-4119t-477q-29 054 10.5t-48 23.5t-45 23.5t-45 10.5q-15 0296t-26.515.5t-24.521t-2323.5l-27 104q12 16 27.5 31.5t34.5 28t41.5 20.5t47.5 8t50.510.5t5023.5t48.523.5t4710.5q30 0 53 18.5t46 41.5z" /><glyph glyph-name="uni00A0" unicode="&#xa0;" horiz-adv-x="225"  /><glyph glyph-name="exclamdown" unicode="&#xa1;" horiz-adv-x="313" d="M151201l-16523l132 489h102zM283 416q0352459t-5924q-34 058 24t-24 59t24.5 59t59.5 24q34 0 57.524t23.559z" /><glyph glyph-name="cent" unicode="&#xa2;" horiz-adv-x="622" d="M471 382q-17 1937 28.5t-39 9.5q-36 06330q-14162742t-22.557.5t-15.564.5t-663q040 1758t4418q28 0 55.5 14t56.5 37l4583q-32256641.5t-7322.5l-22102h-94l22 102q-64 1197.5 55.5t-33.5 116.5q0 48 10.5 92.5t28 84t41 71.5t50.5 55q26 21 53.5 35.5t60.5 20.5l20 95h94l-2095q265 5119t4537z" /><glyph glyph-name="sterling" unicode="&#xa3;" horiz-adv-x="622" d="M586 551q-16 2041.5 28.5t-45.5 8.5q-33 05811t-4228.5t-27.540t-15.545.5l-1049h156l-22102h-156l-42198h253l-24114h-499l24 114h96l42 198h-96l22 102h96l15 71q10 50 34 93t61.5 74.5t88 49.5t114.5 18q57 0 10617.5t8355.5z" /><glyph glyph-name="currency" unicode="&#xa4;" horiz-adv-x="622" d="M486 374q1223 1253q018439t-11.541.5t-19.540t-2834.5l3270l-12063l-26 69q-8218.52.5t-20.50.5t-19 1t-15 2l-5271l-100 69l59 68q-11 2111 53q0 19 4.5 41t13 43t19.5 39.5t24 31.5l-32 70l120 62l2669q3 1 13 2t22 1.5t230.5t172l52 71l9969zM380 269q7 28 7 49q0 2712 39t-35 12q-20 033.57.5t-22.520.5t-1430t-935q-3175.531.5t-2.526.5q021 1033.5t3812.5q20 0 33.5 9t22.5 23.5t14 31.5t9 33z" /><glyph glyph-name="yen" unicode="&#xa5;" horiz-adv-x="622" d="M484 415h103l-22103h-158l-1926l-1150h172l-22103h-172l-28133h-146l28 133h-169l22 103h169l11 50l-9 26h-155l22 103h101l-88 280h163l48190q829 1149t540q10 15 24.5 38.5t31.5 48.5l131 192h170z" /><glyph glyph-name="brokenbar" unicode="&#xa6;" horiz-adv-x="276" d="M215 342h-126l88 414h126zM99208h-126l88 414h126z" /><glyph glyph-name="section" unicode="&#xa7;" horiz-adv-x="549" d="M448 548q-5 2929.5 43.5t-53.5 14.5q-14 027.54t-2512t-18.519.5t-725.5q020 1935.5t4830t6230t6235.5t4846t1961q05733.597.5t-81.562.5q1716 25.535.5t8.546.5q0542494.5t-6467.5t-92.540.5t-108.513.5q-37 070 6.5t-59 21t-45 39t-28 60.5l134 61q118 1031t22.521t30.512t344q13 0 29 3.5t30 11t23.5 19.5t9.5 28q0 2218.5 37.5t-46 29t-59.5 27t-59.5 32.5t-46 45.5t-18.5 66.5q0 49 34 95.5t89 76.5q-20 1530.5 35.5t-10.5 55.5q0 47 22 83t57.5 61t81 37.5t92.5 12.5q32 0 635t57.517.5t4733t30.551.5zM399 264q0 2316 37.5t-36 25.5l-99 53q-231138.531t-15.543q014 624.5t1619t2215t2312.5l8644q11 6 20.5 15t16.5 19t11 20.5t4 18.5z" /><glyph glyph-name="dieresis" unicode="&#xa8;" horiz-adv-x="436" d="M482 635q03222.554.5t-54.522.5t-54 22.5t-22 54.5q0 16 6 30t16.5 24.5t25 16.5t30.5 6q31 0 5322.5t2254.5zM271 635q03222.554.5t-54.522.5q-31 053.5 22.5t-22.5 54.5t23 54.5t55 22.5q31 0 5322.5t2254.5z" /><glyph glyph-name="copyright" unicode="&#xa9;" horiz-adv-x="850" d="M823 354q07729.5144.5t-80118t-11880t-144.529.5t-144.5 29.5t-118 80t-80 118t-29.5 144.5t29.5 144.5t80 118t118 80t144.5 29.5t144.529.5t11880t80118t29.5144.5zM721 354q0 5821 109.5t-58 89.5t-86 60.5t-105 22.5t-10522.5t-8660.5t-5889.5t-21109.5t21109.5t5889.5t8660.5t10522.5t105 22.5t86 60.5t58 89.5t21 109.5zM579 198q-31235933t-6310q-41 074.5 13.5t-57.5 38.5t-37 60t-13 79q0 45 13 83t36.5 65.5t57.5 43t76 15.5q31 0 609.5t5228.5l-4666q-20 1435 19.5t-30 5.5q-75 075114q069 18.598.5t60.529.5q20 0 36.5 7t30.5 21z" /><glyph glyph-name="ordfeminine" unicode="&#xaa;" horiz-adv-x="437" d="M476 740q-82014.547t-11.547l-30143q-151.59.5t-0.59.5q011 520.5t1622.5l-8966q-14 821 18t-11 20q-20174226t-499q-51 079 31t-28 91q0 63 22.5 120t56.5 91q31 31 66 44.5t81 13.5q32 0 66.56.5t63.522.5zM415 239h-365l17 78h365zM350 678q-10 216 2q-16 0304t-3124q-111318.531t-12.538.5t-7.541t-2.537.5q019 428.5t179.5q20 0 37 17t24 34z" /><glyph glyph-name="guillemotleft" unicode="&#xab;" horiz-adv-x="573" d="M423 245l77171l-10259l-109 234l209 234l8063zM181 245l77171l-10259l-109 234l209 234l8063z" /><glyph glyph-name="logicalnot" unicode="&#xac;" horiz-adv-x="519" d="M442 58h-123l30 140h-318l23 109h441z" /><glyph glyph-name="uni00AD" unicode="&#xad;" horiz-adv-x="359" d="M294 219h-240l25 110h240z" /><glyph glyph-name="registered" unicode="&#xae;" horiz-adv-x="850" d="M823 354q07729.5144.5t-80118t-11880t-144.529.5t-144.5 29.5t-118 80t-80 118t-29.5 144.5t29.5 144.5t80 118t118 80t144.5 29.5t144.529.5t11880t80118t29.5144.5zM721 354q0 5821 109.5t-58 89.5t-86 60.5t-105 22.5t-10522.5t-8660.5t-5889.5t-21109.5t21109.5t5889.5t8660.5t10522.5t105 22.5t86 60.5t58 89.5t21 109.5zM504 171q-7 1112 19t-9.5 15t-8.5 14t-10 17q-14 2323 38l-15 25q-6 109.5 15t-6.5 8v-151h-97v382h153q57 0 9032t3385q0432571.5t-6332.5q177 2922t2230q914 19.531t2032.5t16.528.5l1117h-115zM486 435q0 2112 30t-37 9h-27v-77h26q29 0 39.5 9t10.5 29z" /><glyph glyph-name="macron" unicode="&#xaf;" horiz-adv-x="328" d="M414 666h-314l16 78h314z" /><glyph glyph-name="degree" unicode="&#xb0;" horiz-adv-x="411" d="M376 533q-8382570t-4355t-60.536t-77.513q-66 0103 34.5t-37 94.5q0 48 16.5 87.5t45 68.5t66.5 45t80 16q63 0 10333.5t4091.5q019547zM265 535q6 27 6 46q0 2613 38t-36 12q-22 03813.5t-26.535t-15.548t-553.5q020 11.533.5t37.513.5q32 0 50.5 23.5t28.5 77.5z" /><glyph glyph-name="plusminus" unicode="&#xb1;" horiz-adv-x="504" d="M474 283h-150l-30143h-123l30 143h-150l24 113h150l29 137h123l-29137h150zM412 0h-419l24 113h419z" /><glyph glyph-name="twosuperior" unicode="&#xb2;" horiz-adv-x="384" d="M348 565q0361968.5t-4862t-6355.5t-6347q9 0 18 0.5t17 0.5h133l-4083h-275l14 67q12 9 28 21.5t33.5 26.5t34 27.5t28.5 24.5q12 10 27 24.5t28.5 31t23 34.5t9.5 36q0 169 21.5t-23 5.5q-17 038.59t-56.533l-43 63q46 33 88 49t91 16q50 0 77.524.5t27.566.5z" /><glyph glyph-name="threesuperior" unicode="&#xb3;" horiz-adv-x="376" d="M355 577q0341960.5t-4843.5q4124 4167q0452776t-6650.5t-8328.5t-799q-14 024 0.5t-32 3.5l-11 74q255 356t241q19 0 44.5 4.5t48.5 15t39 27.5t16 43q0 118.5 17t-20.5 9t-25.5 3.5t-23.5 0.5h-26l17 81q112 253t251t23 2.5t21.5 7.5t15.5 14t6 23q0 2535 25q-28 05210.5t-4625.5l-41 64q41 26 81.5 41t85.5 15q53 0 8624.5t3364.5z" /><glyph glyph-name="acute" unicode="&#xb4;" horiz-adv-x="338" d="M156 554l-40 75l231 133l48105z" /><glyph glyph-name="mu" unicode="&#xb5;" horiz-adv-x="548" d="M448 133q-317332q037 1561l-10754q-11 918.5 21.5t-10.5 28.5q-302467.536.5t-76.512.5q-21 034 11q02110.5t-317.5l-34156l-13634l153 720l138 25l-70329q-523738.5t-234.5q015 1225t3210q12 0 26 4t27 11t23.5 16t16.5 18l77 360l133 27z" /><glyph glyph-name="paragraph" unicode="&#xb6;" horiz-adv-x="588" d="M437126h-90l162 762h-107l-162762h-90l99 464q-86 0132.5 40t-46.5 104q0 51 19 92.5t54 71.5t86 46t116 16h269z" /><glyph glyph-name="periodcentered" unicode="&#xb7;" horiz-adv-x="311" d="M253 273q018734t-1928t-28.519t-35.57q-37 062.5 26t-25.5 63t26 63.5t64 26.5q37 0 62.526.5t25.564.5z" /><glyph glyph-name="cedilla" unicode="&#xb8;" horiz-adv-x="224" d="M13893q021940t-25.534t-4023.5t-53.58.5q-23 046 8t-36 16l41 62q115 23.59.5t27.54.5q12 0 21.5 5.5t9.5 16.5q0 1623 16q-8 014.52t-13.54l-9 20l43 87l706l-2238q313 43.520.5t12.540.5z" /><glyph glyph-name="onesuperior" unicode="&#xb9;" horiz-adv-x="324" d="M212 331h52l-1881h-215l18 81h64l44 208q-17837.517t-44.517l-16 56l153 89h68z" /><glyph glyph-name="ordmasculine" unicode="&#xba;" horiz-adv-x="437" d="M477 637q0491395.5t-4082.5t-6858t-9622q-65 0100 36.5t-35 100.5q0 52 15.5 98t44 80.5t67.5 54t87 19.5q65 0 101.534t36.597zM411 239h-365l17 78h365zM361 637q0 269.5 36t-26.5 10q-23 03920.5t-2649.5t-1559.5t-549.5q021 9.531t26.510q21 0 37 18t26.5 44.5t16 56.5t5.5 55z" /><glyph glyph-name="guillemotright" unicode="&#xbb;" horiz-adv-x="574" d="M322 15l-80 63l155 175l-77 171l102 59l109234zM80 15l-80 63l155 175l-77 171l102 59l109234z" /><glyph glyph-name="onequarter" unicode="&#xbc;" horiz-adv-x="1032" d="M212 331h52l-1881h-215l18 81h64l44 208q-17837.517t-44.517l-16 56l153 89h68zM206154h-108l723 918h108zM997 71h-37l-7 1q07111l-1675l-9811l19 91l2 5h-178l13 63l166 267h105l-128207q-15232738h69q8 38 18.5 70.5t22.5 70.5l86 18l-22104q-210525.5t-623.5l-27q2 0 4.5 0.5t4.5 0.5h35z" /><glyph glyph-name="onehalf" unicode="&#xbd;" horiz-adv-x="1030" d="M212 331h52l-1881h-215l18 81h64l44 208q-17837.517t-44.517l-16 56l153 89h68zM196154h-108l723 918h108zM1022 315q03318.565t-45.560.5t-58.553.5t-57.544l-1310q9 0 18.5 0.5t17.5 0.5h133l-4183h-275l14 67q12 9 28 21.5t33.5 26.5t34 27.5t28.5 24.5q12 10 27.5 24.5t29 31t22.5 34.5t9 36q0 169 21.5t-23 5.5q-17 038.59t-56.533l-43 63q46 33 88 49t91 16q50 0 77.524.5t27.566.5z" /><glyph glyph-name="threequarters" unicode="&#xbe;" horiz-adv-x="1084" d="M355 577q0341960.5t-4843.5q4124 4167q0452776t-6650.5t-8328.5t-799q-14 024 0.5t-32 3.5l-11 74q255 356t241q19 0 44.5 4.5t48.5 15t39 27.5t16 43q0 118.5 17t-20.5 9t-25.5 3.5t-23.5 0.5h-26l17 81q112 253t251t23 2.5t21.5 7.5t15.5 14t6 23q0 2535 25q-28 05210.5t-4625.5l-41 64q41 26 81.5 41t85.5 15q53 0 8624.5t3364.5zM248154h-108l723 918h108zM1049 71h-37l-7 1q07111l-1675l-9811l19 91l2 5h-178l13 63l166 267h105l-128207q-15232738h69q8 38 18.5 70.5t22.5 70.5l86 18l-22104q-210525.5t-623.5l-27q2 0 4.5 0.5t4.5 0.5h35z" /><glyph glyph-name="questiondown" unicode="&#xbf;" horiz-adv-x="454" d="M340140q-12103223.5t-47.526t-6121t-71.58.5q-33 062 9.5t-50.5 27.5t-33.5 43t-12 56q0 35 9.5 62.5t26 50t39.5 40t50 32.5q33 19 54 39.5t33.5 42t17.5 42t7 39.5h114q37930.5130t-97.591q-251641.527t-2621.5t-13.521.5t-426q027 2039t4912q37 0 67 13t51 31zM365 416q0352459t-5924q-34 058 24t-24 59t24.5 59t59.5 24q34 0 57.524t23.559z" /><glyph glyph-name="Agrave" unicode="&#xc0;" horiz-adv-x="588" d="M398 0l-14 165h-204l-84165h-151l376 697h151l71697h-145zM365 426q-3 403 74v44q-369.521.5t-15.535t-18.540.5t-17.537l-62129h136zM473 720l-216 100l66 106l196134z" /><glyph glyph-name="Aacute" unicode="&#xc1;" horiz-adv-x="588" d="M398 0l-14 165h-204l-84165h-151l376 697h151l71697h-145zM365 426q-3 403 74v44q-369.521.5t-15.535t-18.540.5t-17.537l-62129h136zM331 717l-40 75l231 133l48105z" /><glyph glyph-name="Acircumflex" unicode="&#xc2;" horiz-adv-x="588" d="M398 0l-14 165h-204l-84165h-151l376 697h151l71697h-145zM365 426q-3 403 74v44q-369.521.5t-15.535t-18.540.5t-17.537l-62129h136zM529 715l-123 78l-15178l-36 73l209 135l155135z" /><glyph glyph-name="Atilde" unicode="&#xc3;" horiz-adv-x="588" d="M398 0l-14 165h-204l-84165h-151l376 697h151l71697h-145zM365 426q-3 403 74v44q-369.521.5t-15.535t-18.540.5t-17.537l-62129h136zM581 805q-323162.549t-75.518q-20 034 6t-27 13.5t-27.5 14t-33.5 6.5q-24 04010t-3527l-33 75q32 31 61.5 48.5t68.5 17.5q21 0 35.56.5t28.514t2913.5t376q24 0 39.5 9t35.5 26z" /><glyph glyph-name="Adieresis" unicode="&#xc4;" horiz-adv-x="588" d="M398 0l-14 165h-204l-84165h-151l376 697h151l71697h-145zM365 426q-3 403 74v44q-369.521.5t-15.535t-18.540.5t-17.537l-62129h136zM372 800q03222.554.5t-54.522.5q-31 053.5 22.5t-22.5 54.5t23 54.5t55 22.5q31 0 5322.5t2254.5zM582 800q03222.554.5t-54.522.5q-31 053.5 22.5t-22.5 54.5t23 54.5t55 22.5q31 0 5322.5t2254.5z" /><glyph glyph-name="Aring" unicode="&#xc5;" horiz-adv-x="588" d="M398 0l-14 165h-204l-84165h-151l376 697h151l71697h-145zM365 426q-3 403 74v44q-369.521.5t-15.535t-18.540.5t-17.537l-62129h136zM505 819q0228.541t-2333.5t-33.523t-418.5q-21 040 8.5t-33.5 23t-22.5 33.5t-8 41t8.5 41t23 33.5t34 23t40.5 8.5t408.5t33.523t22.533.5t841zM442 819q0 1812 30.5t-29 12.5q-19 031.512.5t-12.530.5t12.530.5t29.512.5q18 0 30.5 12.5t12.5 30.5z" /><glyph glyph-name="AE" unicode="&#xc6;" horiz-adv-x="789" d="M820 581h-232l-34161h199l-24114h-197l-39186h267l-26120h-409l35 165h-185l-128165h-162l562 695h416zM385 281l51 228q-2212.516.5t-26.536t-35.547.5t-3850.5t-3445.5t-24.532h120z" /><glyph glyph-name="Ccedilla" unicode="&#xc7;" horiz-adv-x="563" d="M544 563q-22 2049 28t-56 8q-35 070.517t-59.545q-23264166t-3084t-18.586.5t-6.572.5q069 32100.5t9131.5q31 0 61.5 11.5t66.5 36.5l4891q-483498.549.5t-110.515.5h-15l-1120q313 43.520.5t12.540.5q021940t-25.534t-4023.5t-53.58.5q-23 046 8t-36 16l41 62q2814 5114q12 0 21.5 5.5t9.5 16.5q0 1623 16q-8 014.52t-13.54l-9 20l36 72q-80 20122.5 80t-42.5 155q0 40 7.5 84t21 86.5t33 82t43.5 71.5q57 76 135.5 115t163.5 39q52 0 96.515t67.540z" /><glyph glyph-name="Egrave" unicode="&#xc8;" horiz-adv-x="495" d="M526 581h-236l-34161h197l-24114h-196l-39186h262l-26120h-405l148 695h396zM419 720l-216 100l66 106l196134z" /><glyph glyph-name="Eacute" unicode="&#xc9;" horiz-adv-x="495" d="M526 581h-236l-34161h197l-24114h-196l-39186h262l-26120h-405l148 695h396zM289 717l-40 75l231 133l48105z" /><glyph glyph-name="Ecircumflex" unicode="&#xca;" horiz-adv-x="495" d="M526 581h-236l-34161h197l-24114h-196l-39186h262l-26120h-405l148 695h396zM512 715l-123 78l-15178l-36 73l209 135l155135z" /><glyph glyph-name="Edieresis" unicode="&#xcb;" horiz-adv-x="495" d="M526 581h-236l-34161h197l-24114h-196l-39186h262l-26120h-405l148 695h396zM350 800q03222.554.5t-54.522.5q-31 053.5 22.5t-22.5 54.5t23 54.5t55 22.5q31 0 5322.5t2254.5zM560 800q03222.554.5t-54.522.5q-31 053.5 22.5t-22.5 54.5t23 54.5t55 22.5q31 0 5322.5t2254.5z" /><glyph glyph-name="Igrave" unicode="&#xcc;" horiz-adv-x="297" d="M170 0h-145l148 695h145zM323 720l-216 100l66 106l196134z" /><glyph glyph-name="Iacute" unicode="&#xcd;" horiz-adv-x="297" d="M170 0h-145l148 695h145zM182 717l-40 75l231 133l48105z" /><glyph glyph-name="Icircumflex" unicode="&#xce;" horiz-adv-x="297" d="M170 0h-145l148 695h145zM385 715l-123 78l-15178l-36 73l209 135l155135z" /><glyph glyph-name="Idieresis" unicode="&#xcf;" horiz-adv-x="297" d="M170 0h-145l148 695h145zM229 800q03222.554.5t-54.522.5q-31 053.5 22.5t-22.5 54.5t23 54.5t55 22.5q31 0 5322.5t2254.5zM439 800q03222.554.5t-54.522.5q-31 053.5 22.5t-22.5 54.5t23 54.5t55 22.5q31 0 5322.5t2254.5z" /><glyph glyph-name="Eth" unicode="&#xd0;" horiz-adv-x="630" d="M617 458q043890.5t-23.595t-39.591t-5677.5q-272955.549t-62.532t-77.517.5t-100.55.5h-169l65 306h-76l19 89h76l64 300h160q87 0 142.513.5t88.554.5q2431 38.569t14.5100zM466 460q0 244.5 46.5t-16.5 40t-33.5 28t-56.5 10.5h-63l-40190h106l-2889h-97l-41192h69q45 0 78 21.5t52 50.5q23 36 37.5 78.5t23 81t11.5 69.5t3 45z" /><glyph glyph-name="Ntilde" unicode="&#xd1;" horiz-adv-x="635" d="M508 0h-144l-62 266q-8 3315.5 67t-14.5 64.5t-12 56.5q-5 246 40q-321745q-4268.552.5t-1052t-9.547.5l-59297h-135l148 695h153l74278q1556 24109t1291q2 20 5.5 46.5t7.5 53.5t8 51.5t8 42.5l58 284h133zM599 805q-323162.549t-75.518q-20 034 6t-27 13.5t-27.5 14t-33.5 6.5q-24 04010t-3527l-33 75q32 31 61.5 48.5t68.5 17.5q21 0 35.56.5t28.514t2913.5t376q24 0 39.5 9t35.5 26z" /><glyph glyph-name="Ograve" unicode="&#xd2;" horiz-adv-x="694" d="M682 454q06616132t-46124.5t-72.5104.5t-95.571q-693315733q-65 0110 18.5t-73.5 51.5t-41.5 79t-13 100q0 74 16 137t42.5 114t59.5 89.5t67 62.5q15 11 34 22.5t43.5 20.5t55.5 14.5t71 5.5q115 0 175.566.5t60.5183.5zM525 483q0 5123.5 82t-80.5 31q-35 067.516.5t-53.544.5q-21273867t-2984t-18.588t-6.579q067 27.594t80.527q30 0 59.5 11.5t53.5 40.5q22 28 40 70t30.5 89t19 93.5t6.5 82.5zM509 720l-216 100l66 106l196134z" /><glyph glyph-name="Oacute" unicode="&#xd3;" horiz-adv-x="694" d="M682 454q06616132t-46124.5t-72.5104.5t-95.571q-693315733q-65 0110 18.5t-73.5 51.5t-41.5 79t-13 100q0 74 16 137t42.5 114t59.5 89.5t67 62.5q15 11 34 22.5t43.5 20.5t55.5 14.5t71 5.5q115 0 175.566.5t60.5183.5zM525 483q0 5123.5 82t-80.5 31q-35 067.516.5t-53.544.5q-21273867t-2984t-18.588t-6.579q067 27.594t80.527q30 0 59.5 11.5t53.5 40.5q22 28 40 70t30.5 89t19 93.5t6.5 82.5zM372 717l-40 75l231 133l48105z" /><glyph glyph-name="Ocircumflex" unicode="&#xd4;" horiz-adv-x="694" d="M682 454q06616132t-46124.5t-72.5104.5t-95.571q-693315733q-65 0110 18.5t-73.5 51.5t-41.5 79t-13 100q0 74 16 137t42.5 114t59.5 89.5t67 62.5q15 11 34 22.5t43.5 20.5t55.5 14.5t71 5.5q115 0 175.566.5t60.5183.5zM525 483q0 5123.5 82t-80.5 31q-35 067.516.5t-53.544.5q-21273867t-2984t-18.588t-6.579q067 27.594t80.527q30 0 59.5 11.5t53.5 40.5q22 28 40 70t30.5 89t19 93.5t6.5 82.5zM574 715l-123 78l-15178l-36 73l209 135l155135z" /><glyph glyph-name="Otilde" unicode="&#xd5;" horiz-adv-x="694" d="M682 454q06616132t-46124.5t-72.5104.5t-95.571q-693315733q-65 0110 18.5t-73.5 51.5t-41.5 79t-13 100q0 74 16 137t42.5 114t59.5 89.5t67 62.5q15 11 34 22.5t43.5 20.5t55.5 14.5t71 5.5q115 0 175.566.5t60.5183.5zM525 483q0 5123.5 82t-80.5 31q-35 067.516.5t-53.544.5q-21273867t-2984t-18.588t-6.579q067 27.594t80.527q30 0 59.5 11.5t53.5 40.5q22 28 40 70t30.5 89t19 93.5t6.5 82.5zM632 805q-323162.549t-75.518q-20 034 6t-27 13.5t-27.5 14t-33.5 6.5q-24 04010t-3527l-33 75q32 31 61.5 48.5t68.5 17.5q21 0 35.56.5t28.514t2913.5t376q24 0 39.5 9t35.5 26z" /><glyph glyph-name="Odieresis" unicode="&#xd6;" horiz-adv-x="694" d="M682 454q06616132t-46124.5t-72.5104.5t-95.571q-693315733q-65 0110 18.5t-73.5 51.5t-41.5 79t-13 100q0 74 16 137t42.5 114t59.5 89.5t67 62.5q15 11 34 22.5t43.5 20.5t55.5 14.5t71 5.5q115 0 175.566.5t60.5183.5zM525 483q0 5123.5 82t-80.5 31q-35 067.516.5t-53.544.5q-21273867t-2984t-18.588t-6.579q067 27.594t80.527q30 0 59.5 11.5t53.5 40.5q22 28 40 70t30.5 89t19 93.5t6.5 82.5zM429 800q03222.554.5t-54.522.5q-31 053.5 22.5t-22.5 54.5t23 54.5t55 22.5q31 0 5322.5t2254.5zM640 800q03222.554.5t-54.522.5q-31 053.5 22.5t-22.5 54.5t23 54.5t55 22.5q31 0 5322.5t2254.5z" /><glyph glyph-name="multiply" unicode="&#xd7;" horiz-adv-x="626" d="M402 303l117149l-10889l-117 149l-181149l-70 89l181 149l-117 149l108 89l117149l181 149l7089z" /><glyph glyph-name="Oslash" unicode="&#xd8;" horiz-adv-x="693" d="M637 616q4464 44162q06616.5132t-46.5124.5t-72.5105t-94.571.5q-35177424.5t-837.5q-45 080.5 9t-61.5 26l-96116l-58 49l99 121q-21 3230.5 72t-9.5 88q0 74 16 137t41.5 114t58 89.5t66.5 62.5q15 11 34.5 22.5t44 20.5t56 14.5t71.5 5.5q82 0 13735l86 104l5948zM499 567q-13 1432 21.5t-47 7.5q-35 067.516.5t-53.544.5q-21273867t-2984t-18.588t-6.579v-6zM234 124q1415 3421.5t476.5q30 0 59.5 11.5t53.5 40.5q22 27 39.5 68.5t30 87.5t19.5 92t7 82z" /><glyph glyph-name="Ugrave" unicode="&#xd9;" horiz-adv-x="644" d="M570 227q-73314.559.5t-1747.5t-23.538t-3432q-161234.523.5t-4320t-56.514t-755.5q-102 0157.5 41t-55.5 109q0 36 8 74l103 484h143l-97457q-5206.535.5t-1.527.5q019 732t1921t2811.5t333.5q48 0 79.5 23.5t43.5 60.5q2 5 3.5 10t3 11t3.5 15t5 23l95 445h142zM501 720l-216 100l66 106l196134z" /><glyph glyph-name="Uacute" unicode="&#xda;" horiz-adv-x="644" d="M570 227q-73314.559.5t-1747.5t-23.538t-3432q-161234.523.5t-4320t-56.514t-755.5q-102 0157.5 41t-55.5 109q0 36 8 74l103 484h143l-97457q-5206.535.5t-1.527.5q019 732t1921t2811.5t333.5q48 0 79.5 23.5t43.5 60.5q2 5 3.5 10t3 11t3.5 15t5 23l95 445h142zM333 717l-40 75l231 133l48105z" /><glyph glyph-name="Ucircumflex" unicode="&#xdb;" horiz-adv-x="644" d="M570 227q-73314.559.5t-1747.5t-23.538t-3432q-161234.523.5t-4320t-56.514t-755.5q-102 0157.5 41t-55.5 109q0 36 8 74l103 484h143l-97457q-5206.535.5t-1.527.5q019 732t1921t2811.5t333.5q48 0 79.5 23.5t43.5 60.5q2 5 3.5 10t3 11t3.5 15t5 23l95 445h142zM564 715l-123 78l-15178l-36 73l209 135l155135z" /><glyph glyph-name="Udieresis" unicode="&#xdc;" horiz-adv-x="644" d="M570 227q-73314.559.5t-1747.5t-23.538t-3432q-161234.523.5t-4320t-56.514t-755.5q-102 0157.5 41t-55.5 109q0 36 8 74l103 484h143l-97457q-5206.535.5t-1.527.5q019 732t1921t2811.5t333.5q48 0 79.5 23.5t43.5 60.5q2 5 3.5 10t3 11t3.5 15t5 23l95 445h142zM410 800q03222.554.5t-54.522.5q-31 053.5 22.5t-22.5 54.5t23 54.5t55 22.5q31 0 5322.5t2254.5zM620 800q03222.554.5t-54.522.5q-31 053.5 22.5t-22.5 54.5t23 54.5t55 22.5q31 0 5322.5t2254.5z" /><glyph glyph-name="Yacute" unicode="&#xdd;" horiz-adv-x="554" d="M356 286l-61286h-146l61 286l-129 409h162l48190q829 1149t540q10 15 24.5 38.5t31.5 48.5l131 192h171zM277 717l-40 75l231 133l48105z" /><glyph glyph-name="Thorn" unicode="&#xde;" horiz-adv-x="573" d="M583 426q09141.5155.5t-119.5100.5q-261266.518t-82.56h-74l-31146h-143l148 695h143l-23110h40q71 0 112.57.5t67.524.5q3320 51.553t18.574zM432 399q0 3519 54t-58 19h-86l-45212h70q41 0 64.5 8.5t37.5 25.5q16 19 26 47t10 58z" /><glyph glyph-name="germandbls" unicode="&#xdf;" horiz-adv-x="610" d="M582 583q0361161.5t-2843.5t-36.530t-36.521t-2817t-1117q015 20.527t45.529.5t45.544t20.571.5q0512294t-59.574t-87.548.5t-10617.5q-22 040.5 2.5t-31.5 9.5l49 92q135 295q54 0 88 35t34 90q0 3317 50t-38 30.5t-38 30.5t-17 51q0 27 9.5 43.5t23 29t30 22.5t30 22.5t23 31t9.5 47.5q0 5251 52q-20 0355t-2719t-21.539t-18.565l-105493q-8362269t-31.561.5t-3852.5t-39.541l-82 74q10 10 22 27.5t23 37.5t19.5 42t13.5 43l89 420h-77l19 92h77l3 16q19 100 79 148.5t172 48.5q88 0 13540.5t47101.5z" /><glyph glyph-name="agrave" unicode="&#xe0;" d="M519 487q-4128.527.5t-932.5t-8.534t-732l-41194q-419438q036 2362l-11183q-18 1227 30t-12 33q-293061.545.5t-74.515.5q-70 0105.5 41.5t-35.5 121.5q0 93 31 170t77 123q42 42 91 61t113 19q45 0 91.58t78.527zM367 410q-5 316 5.5t-20 2.5q-12 023.51t-22.55.5t-2313t-2524.5q-161927.546t-19.557t-1260.5t-455.5q035 9.550.5t31.515.5q16 0 31.5 7.5t28.5 19t23.5 25.5t15.5 28zM423 557l-216 100l66 106l196134z" /><glyph glyph-name="aacute" unicode="&#xe1;" d="M519 487q-4128.527.5t-932.5t-8.534t-732l-41194q-419438q036 2362l-11183q-18 1227 30t-12 33q-293061.545.5t-74.515.5q-70 0105.5 41.5t-35.5 121.5q0 93 31 170t77 123q42 42 91 61t113 19q45 0 91.58t78.527zM367 410q-5 316 5.5t-20 2.5q-12 023.51t-22.55.5t-2313t-2524.5q-161927.546t-19.557t-1260.5t-455.5q035 9.550.5t31.515.5q16 0 31.5 7.5t28.5 19t23.5 25.5t15.5 28zM279 554l-40 75l231 133l48105z" /><glyph glyph-name="acircumflex" unicode="&#xe2;" d="M519 487q-4128.527.5t-932.5t-8.534t-732l-41194q-419438q036 2362l-11183q-18 1227 30t-12 33q-293061.545.5t-74.515.5q-70 0105.5 41.5t-35.5 121.5q0 93 31 170t77 123q42 42 91 61t113 19q45 0 91.58t78.527zM367 410q-5 316 5.5t-20 2.5q-12 023.51t-22.55.5t-2313t-2524.5q-161927.546t-19.557t-1260.5t-455.5q035 9.550.5t31.515.5q16 0 31.5 7.5t28.5 19t23.5 25.5t15.5 28zM476 552l-123 78l-15178l-36 73l209 135l155135z" /><glyph glyph-name="atilde" unicode="&#xe3;" d="M519 487q-4128.527.5t-932.5t-8.534t-732l-41194q-419438q036 2362l-11183q-18 1227 30t-12 33q-293061.545.5t-74.515.5q-70 0105.5 41.5t-35.5 121.5q0 93 31 170t77 123q42 42 91 61t113 19q45 0 91.58t78.527zM367 410q-5 316 5.5t-20 2.5q-12 023.51t-22.55.5t-2313t-2524.5q-161927.546t-19.557t-1260.5t-455.5q035 9.550.5t31.515.5q16 0 31.5 7.5t28.5 19t23.5 25.5t15.5 28zM541 645q-323162.549t-75.518q-20 034 6t-27 13.5t-27.5 14t-33.5 6.5q-24 04010t-3527l-33 75q32 31 61.5 48.5t68.5 17.5q21 0 35.56.5t28.514t2913.5t376q24 0 39.5 9t35.5 26z" /><glyph glyph-name="adieresis" unicode="&#xe4;" d="M519 487q-4128.527.5t-932.5t-8.534t-732l-41194q-419438q036 2362l-11183q-18 1227 30t-12 33q-293061.545.5t-74.515.5q-70 0105.5 41.5t-35.5 121.5q0 93 31 170t77 123q42 42 91 61t113 19q45 0 91.58t78.527zM367 410q-5 316 5.5t-20 2.5q-12 023.51t-22.55.5t-2313t-2524.5q-161927.546t-19.557t-1260.5t-455.5q035 9.550.5t31.515.5q16 0 31.5 7.5t28.5 19t23.5 25.5t15.5 28zM334 635q03222.554.5t-54.522.5q-31 053.5 22.5t-22.5 54.5t23 54.5t55 22.5q31 0 5322.5t2254.5zM545 635q03222.554.5t-54.522.5q-31 053.5 22.5t-22.5 54.5t23 54.5t55 22.5q31 0 5322.5t2254.5z" /><glyph glyph-name="aring" unicode="&#xe5;" d="M519 487q-4128.527.5t-932.5t-8.534t-732l-41194q-419438q036 2362l-11183q-18 1227 30t-12 33q-293061.545.5t-74.515.5q-70 0105.5 41.5t-35.5 121.5q0 93 31 170t77 123q42 42 91 61t113 19q45 0 91.58t78.527zM367 410q-5 316 5.5t-20 2.5q-12 023.51t-22.55.5t-2313t-2524.5q-161927.546t-19.557t-1260.5t-455.5q035 9.550.5t31.515.5q16 0 31.5 7.5t28.5 19t23.5 25.5t15.5 28zM469 659q0228.541t-2333.5t-33.523t-418.5q-21 040 8.5t-33.5 23t-22.5 33.5t-8 41t8.5 41t23 33.5t34 23t40.5 8.5t408.5t33.523t22.533.5t841zM406 659q0 1812 30.5t-29 12.5q-19 031.512.5t-12.530.5t12.530.5t29.512.5q18 0 30.5 12.5t12.5 30.5z" /><glyph glyph-name="ae" unicode="&#xe6;" horiz-adv-x="784" d="M772 379q0331662t-4152q-302984.543.5t-117.514.5q-23 040 1.5t-21 2.5q-15319.5t-223.5q044 2263t6419q35 0 70.5 14t71.5 40l3484q-523610353t-10517q-108 0157 67q-33377854.5t-9317.5q-36 063.5 10t-46 27.5t-28 41t-9.5 49.5q0 46 19.5 84.5t56.5 66t90.5 42.5t121.5 15h13q6 0 171l5 21q5 22 5 40q0 2011.5 28t-37.5 8q-66 016055l-39 93q23 13 52 26t60.5 23.5t64.5 16.5t63 6q40 0 6913.5t4830.5q30 21 63 32.5t72 11.5q36 0 67.57.5t55.524.5t37.544.5t13.567.5zM310 224q-75 0105.523.5t-30.574.5q020 1233.5t3413.5q20 0 39.5 8.5t32.5 25.5q4 5 8.5 20t9 33t8 34.5t5.5 23.5h-13zM637 372q0 2312 38t-42 15q-38 066.527t-42.595q3 0 14.51t23.51q22 0 44 4t40 12.5t29.5 22t11.5 32.5z" /><glyph glyph-name="ccedilla" unicode="&#xe7;" horiz-adv-x="446" d="M393 382q-17 1937 28.5t-39 9.5q-36 06330q-14162742t-22.557.5t-15.564.5t-663q040 1758t4418q28 0 55.5 14t56.5 37l4583q-413183.548.5t-96.519.5l-1119q313 43.520.5t12.540.5q021940t-25.534t-4023.5t-53.58.5q-23 046 8t-36 16l41 62q168 2711t243q12 0 21.5 5.5t9.5 16.5q0 1623 16q-8 014.52t-13.54l-9 20l34 69q-57 1586.5 58.5t-29.5 110.5q0 48 10.5 92.5t28 84t41 71.5t50.5 55q35 29 74.5 45t93.5 16q35 0 71.514.5t64.546.5z" /><glyph glyph-name="egrave" unicode="&#xe8;" horiz-adv-x="514" d="M502 383q03616.568t-4956t-8138t-112.514q-22 039 2.5t-22 4.5q-283.523t-1.523q044 2263t6419q35 0 70.5 14t71.5 40l3484q-523610353t-10517q-92 0143 47t-51 141q0 40 8.5 79.5t23.5 76t36 68.5t47 57q38 37 81.5 52.5t94.5 15.5q38 0 708t5524.5t3643.5t1364zM367 372q0 2312 38t-42 15q-38 06626t-4393q31 14.53t23.52q22 0 44 4t40 12.5t29.5 22t11.5 32.5zM400 557l-216 100l66 106l196134z" /><glyph glyph-name="eacute" unicode="&#xe9;" horiz-adv-x="514" d="M502 383q03616.568t-4956t-8138t-112.514q-22 039 2.5t-22 4.5q-283.523t-1.523q044 2263t6419q35 0 70.5 14t71.5 40l3484q-523610353t-10517q-92 0143 47t-51 141q0 40 8.5 79.5t23.5 76t36 68.5t47 57q38 37 81.5 52.5t94.5 15.5q38 0 708t5524.5t3643.5t1364zM367 372q0 2312 38t-42 15q-38 06626t-4393q31 14.53t23.52q22 0 44 4t40 12.5t29.5 22t11.5 32.5zM254 554l-40 75l231 133l48105z" /><glyph glyph-name="ecircumflex" unicode="&#xea;" horiz-adv-x="514" d="M502 383q03616.568t-4956t-8138t-112.514q-22 039 2.5t-22 4.5q-283.523t-1.523q044 2263t6419q35 0 70.5 14t71.5 40l3484q-523610353t-10517q-92 0143 47t-51 141q0 40 8.5 79.5t23.5 76t36 68.5t47 57q38 37 81.5 52.5t94.5 15.5q38 0 708t5524.5t3643.5t1364zM367 372q0 2312 38t-42 15q-38 06626t-4393q31 14.53t23.52q22 0 44 4t40 12.5t29.5 22t11.5 32.5zM460 552l-123 78l-15178l-36 73l209 135l155135z" /><glyph glyph-name="edieresis" unicode="&#xeb;" horiz-adv-x="514" d="M502 383q03616.568t-4956t-8138t-112.514q-22 039 2.5t-22 4.5q-283.523t-1.523q044 2263t6419q35 0 70.5 14t71.5 40l3484q-523610353t-10517q-92 0143 47t-51 141q0 40 8.5 79.5t23.5 76t36 68.5t47 57q38 37 81.5 52.5t94.5 15.5q38 0 708t5524.5t3643.5t1364zM367 372q0 2312 38t-42 15q-38 06626t-4393q31 14.53t23.52q22 0 44 4t40 12.5t29.5 22t11.5 32.5zM314 635q03222.554.5t-54.522.5q-31 053.5 22.5t-22.5 54.5t23 54.5t55 22.5q31 0 5322.5t2254.5zM525 635q03222.554.5t-54.522.5q-31 053.5 22.5t-22.5 54.5t23 54.5t55 22.5q31 0 5322.5t2254.5z" /><glyph glyph-name="igrave" unicode="&#xec;" horiz-adv-x="280" d="M159 0h-134l107 503l138 21zM282 557l-216 100l66 106l196134z" /><glyph glyph-name="iacute" unicode="&#xed;" horiz-adv-x="280" d="M159 0h-134l107 503l138 21zM149 554l-40 75l231 133l48105z" /><glyph glyph-name="icircumflex" unicode="&#xee;" horiz-adv-x="280" d="M159 0h-134l107 503l138 21zM346 552l-123 78l-15178l-36 73l209 135l155135z" /><glyph glyph-name="idieresis" unicode="&#xef;" horiz-adv-x="280" d="M159 0h-134l107 503l138 21zM189 635q03222.554.5t-54.522.5q-31 053.5 22.5t-22.5 54.5t23 54.5t55 22.5q31 0 5322.5t2254.5zM399 635q03222.554.5t-54.522.5q-31 053.5 22.5t-22.5 54.5t23 54.5t55 22.5q31 0 5322.5t2254.5z" /><glyph glyph-name="eth" unicode="&#xf0;" horiz-adv-x="536" d="M480 320q06317.5123t-53106.5t-87.574.5t-12128q-41 075.5 10.5t-59.5 32t-39.5 55t-14.5 80.5q0 55 20 102t55 81.5t83.5 54t104.5 19.5q15 0 293t256q-11 2826.5 51t-35.5 37l-5147l-73 36l59 54q-27 1460 23.5t-74 14.5l101 95q324 6614t6727l38 36l7436l-4643q2520 45.550.5t35.567.5t2377t879zM341 302q-13 828 11.5t-51 3.5q-30 051.513t-3533.5t-2045.5t-6.549q036 18.557.5t53.521.5q38 0 61.5 23.5t36.5 56.5t17.5 67.5t4.5 57.5z" /><glyph glyph-name="ntilde" unicode="&#xf1;" horiz-adv-x="551" d="M511 422q017236t-636l-74350h-132l71 333q3 15 5 26.5t2 19.5q0 198.5 25.5t-26.5 6.5q-24 05217t-6060l-71334h-132l73 345q9 40 9 74t-9 61l124 49q36 617t4.523t2.523.5t019.5q32 35 74 56t99 21q49 0 7627t2774zM523 645q-323162.549t-75.518q-20 034 6t-27 13.5t-27.5 14t-33.5 6.5q-24 04010t-3527l-33 75q32 31 61.5 48.5t68.5 17.5q21 0 35.56.5t28.514t2913.5t376q24 0 39.5 9t35.5 26z" /><glyph glyph-name="ograve" unicode="&#xf2;" horiz-adv-x="546" d="M512 347q06818132t-55114.5t-93.581t-132.530.5q-88 0135 46.5t-47 134.5q0 72 21.5 136t60 112t93 76t120.5 28q87 0 136.545t49.5130zM368 347q0 4516 60.5t-46 15.5q-34 05930.5t-41.573t-24.588t-874.5q037 1754t4617q32 0 57 26.5t41.5 66.5t25 85t8.5 83zM405 557l-216 100l66 106l196134z" /><glyph glyph-name="oacute" unicode="&#xf3;" horiz-adv-x="546" d="M512 347q06818132t-55114.5t-93.581t-132.530.5q-88 0135 46.5t-47 134.5q0 72 21.5 136t60 112t93 76t120.5 28q87 0 136.545t49.5130zM368 347q0 4516 60.5t-46 15.5q-34 05930.5t-41.573t-24.588t-874.5q037 1754t4617q32 0 57 26.5t41.5 66.5t25 85t8.5 83zM253 554l-40 75l231 133l48105z" /><glyph glyph-name="ocircumflex" unicode="&#xf4;" horiz-adv-x="546" d="M512 347q06818132t-55114.5t-93.581t-132.530.5q-88 0135 46.5t-47 134.5q0 72 21.5 136t60 112t93 76t120.5 28q87 0 136.545t49.5130zM368 347q0 4516 60.5t-46 15.5q-34 05930.5t-41.573t-24.588t-874.5q037 1754t4617q32 0 57 26.5t41.5 66.5t25 85t8.5 83zM460 552l-123 78l-15178l-36 73l209 135l155135z" /><glyph glyph-name="otilde" unicode="&#xf5;" horiz-adv-x="546" d="M512 347q06818132t-55114.5t-93.581t-132.530.5q-88 0135 46.5t-47 134.5q0 72 21.5 136t60 112t93 76t120.5 28q87 0 136.545t49.5130zM368 347q0 4516 60.5t-46 15.5q-34 05930.5t-41.573t-24.588t-874.5q037 1754t4617q32 0 57 26.5t41.5 66.5t25 85t8.5 83zM518 645q-323162.549t-75.518q-20 034 6t-27 13.5t-27.5 14t-33.5 6.5q-24 04010t-3527l-33 75q32 31 61.5 48.5t68.5 17.5q21 0 35.56.5t28.514t2913.5t376q24 0 39.5 9t35.5 26z" /><glyph glyph-name="odieresis" unicode="&#xf6;" horiz-adv-x="546" d="M512 347q06818132t-55114.5t-93.581t-132.530.5q-88 0135 46.5t-47 134.5q0 72 21.5 136t60 112t93 76t120.5 28q87 0 136.545t49.5130zM368 347q0 4516 60.5t-46 15.5q-34 05930.5t-41.573t-24.588t-874.5q037 1754t4617q32 0 57 26.5t41.5 66.5t25 85t8.5 83zM310 635q03222.554.5t-54.522.5q-31 053.5 22.5t-22.5 54.5t23 54.5t55 22.5q31 0 5322.5t2254.5zM521 635q03222.554.5t-54.522.5q-31 053.5 22.5t-22.5 54.5t23 54.5t55 22.5q31 0 5322.5t2254.5z" /><glyph glyph-name="divide" unicode="&#xf7;" horiz-adv-x="584" d="M540 214h-505l23 105h505zM342 68q03525.559.5t-61.524.5q-35 060.5 24.5t-25.5 59.5q0 37 25.5 63t61.5 26t6126t2563zM427 467q03625.561t-61.525q-35 060 25t-25 60q0 18 6.5 34t18 28t27 19t33.5 7q36 0 61.525.5t25.561.5z" /><glyph glyph-name="oslash" unicode="&#xf8;" horiz-adv-x="546" d="M480 456q3243 32109q06818132t-55114.5t-93.581t-132.530.5q-56 098 22l-8098l-49 42l81 97q-36 4736 121q0 72 21.5 136t60 111t93 74.5t120.5 27.5q63 0 10524l82 100l5041zM354 404q-14 1948 19q-30 05325.5t-39.562.5t-26.579t-1375zM190 103q1617 4617q29 0 52 22t39.5 56t26.5 75t13 78z" /><glyph glyph-name="ugrave" unicode="&#xf9;" horiz-adv-x="547" d="M447 133q-5262.556t13.548l-11646q-9 1415.5 32t-8.5 36q-29266645t-8219q-60 092.5 28t-32.5 76q0 14 2 33.5t8 47.5l69 328l138 25l-70329q-5207.539t-2.530q017 1028t2211q15 0 31.5 7.5t31.5 18.5t27 24.5t20 25.5l71 333l135 27zM408 557l-216 100l66 106l196134z" /><glyph glyph-name="uacute" unicode="&#xfa;" horiz-adv-x="547" d="M447 133q-5262.556t13.548l-11646q-9 1415.5 32t-8.5 36q-29266645t-8219q-60 092.5 28t-32.5 76q0 14 2 33.5t8 47.5l69 328l138 25l-70329q-5207.539t-2.530q017 1028t2211q15 0 31.5 7.5t31.5 18.5t27 24.5t20 25.5l71 333l135 27zM269 554l-40 75l231 133l48105z" /><glyph glyph-name="ucircumflex" unicode="&#xfb;" horiz-adv-x="547" d="M447 133q-5262.556t13.548l-11646q-9 1415.5 32t-8.5 36q-29266645t-8219q-60 092.5 28t-32.5 76q0 14 2 33.5t8 47.5l69 328l138 25l-70329q-5207.539t-2.530q017 1028t2211q15 0 31.5 7.5t31.5 18.5t27 24.5t20 25.5l71 333l135 27zM468 552l-123 78l-15178l-36 73l209 135l155135z" /><glyph glyph-name="udieresis" unicode="&#xfc;" horiz-adv-x="547" d="M447 133q-5262.556t13.548l-11646q-9 1415.5 32t-8.5 36q-29266645t-8219q-60 092.5 28t-32.5 76q0 14 2 33.5t8 47.5l69 328l138 25l-70329q-5207.539t-2.530q017 1028t2211q15 0 31.5 7.5t31.5 18.5t27 24.5t20 25.5l71 333l135 27zM317 635q03222.554.5t-54.522.5q-31 053.5 22.5t-22.5 54.5t23 54.5t55 22.5q31 0 5322.5t2254.5zM528 635q03222.554.5t-54.522.5q-31 053.5 22.5t-22.5 54.5t23 54.5t55 22.5q31 0 5322.5t2254.5z" /><glyph glyph-name="yacute" unicode="&#xfd;" horiz-adv-x="514" d="M2788q-213738.564.5t-33.547t-3133.5t-3124q-291963.530.5t-70.516.5l-27 90q23 5 48 13t42 19q15 9 26.5 18.5t21.5 21.5t19.5 27t21.5 35h-37q-1 142 32t-3 37.5t-4 38.5t-4 36l-46 360l138 16l25299q111 1.526.5t131.5t129t0.519q3 7 9.5 23.5t16 38.5t21 46t22.5 45l129 244h144zM237 554l-40 75l231 133l48105z" /><glyph glyph-name="thorn" unicode="&#xfe;" horiz-adv-x="561" d="M531 347q0471092.5t-28.586t-46.575.5t-6460q-36267236t-7510q-21 041 2t-40 5l-38180l-13634l166 780q7 33 10.5 58.5t3.5 45.5q0 234 39l139 43q415 443q0212.545.5t-7.547.5l-1781q-163.516t-5.520.5t-5.519.5t-4.513q22 26 59 45.5t82 19.5q72 0 104.547t32.5131zM385 349q0 6740 67q-31 06122.5t-5057.5l-50228q88 2615t437q22 0 46 17.5t38 42.5q10 19 19 47.5t15.5 58t10 56t3.5 41.5z" /><glyph glyph-name="ydieresis" unicode="&#xff;" horiz-adv-x="514" d="M2788q-213738.564.5t-33.547t-3133.5t-3124q-291963.530.5t-70.516.5l-27 90q23 5 48 13t42 19q15 9 26.5 18.5t21.5 21.5t19.5 27t21.5 35h-37q-1 142 32t-3 37.5t-4 38.5t-4 36l-46 360l138 16l25299q111 1.526.5t131.5t129t0.519q3 7 9.5 23.5t16 38.5t21 46t22.5 45l129 244h144zM300 635q03222.554.5t-54.522.5q-31 053.5 22.5t-22.5 54.5t23 54.5t55 22.5q31 0 5322.5t2254.5zM510 635q03222.554.5t-54.522.5q-31 053.5 22.5t-22.5 54.5t23 54.5t55 22.5q31 0 5322.5t2254.5z" /><glyph glyph-name="Amacron" unicode="&#x100;" horiz-adv-x="588" d="M398 0l-14 165h-204l-84165h-151l376 697h151l71697h-145zM365 426q-3 403 74v44q-369.521.5t-15.535t-18.540.5t-17.537l-62129h136zM550 748h-314l16 78h314z" /><glyph glyph-name="amacron" unicode="&#x101;" d="M519 487q-4128.527.5t-932.5t-8.534t-732l-41194q-419438q036 2362l-11183q-18 1227 30t-12 33q-293061.545.5t-74.515.5q-70 0105.5 41.5t-35.5 121.5q0 93 31 170t77 123q42 42 91 61t113 19q45 0 91.58t78.527zM367 410q-5 316 5.5t-20 2.5q-12 023.51t-22.55.5t-2313t-2524.5q-161927.546t-19.557t-1260.5t-455.5q035 9.550.5t31.515.5q16 0 31.5 7.5t28.5 19t23.5 25.5t15.5 28zM488 590h-294l19 92h294z" /><glyph glyph-name="Abreve" unicode="&#x102;" horiz-adv-x="588" d="M398 0l-14 165h-204l-84165h-151l376 697h151l71697h-145zM365 426q-3 403 74v44q-369.521.5t-15.535t-18.540.5t-17.537l-62129h136zM614 851q-783029t-53.543.5t-6639.5t-67.517q-33 061 17t-50 39.5t-36 43.5t-18 29l52 49q67 18.519.5t30.524.5t4120.5t508.5q22 0 48 9.5t50 21.5t42.5 24t26.5 18z" /><glyph glyph-name="abreve" unicode="&#x103;" d="M519 487q-4128.527.5t-932.5t-8.534t-732l-41194q-419438q036 2362l-11183q-18 1227 30t-12 33q-293061.545.5t-74.515.5q-70 0105.5 41.5t-35.5 121.5q0 93 31 170t77 123q42 42 91 61t113 19q45 0 91.58t78.527zM367 410q-5 316 5.5t-20 2.5q-12 023.51t-22.55.5t-2313t-2524.5q-161927.546t-19.557t-1260.5t-455.5q035 9.550.5t31.515.5q16 0 31.5 7.5t28.5 19t23.5 25.5t15.5 28zM564 684q-783029t-53.543.5t-6639.5t-67.517q-33 061 17t-50 39.5t-36 43.5t-18 29l52 49q67 18.519.5t30.524.5t4120.5t508.5q22 0 48 9.5t50 21.5t42.5 24t26.5 18z" /><glyph glyph-name="Aogonek" unicode="&#x104;" horiz-adv-x="588" d="M541 0q-20 0408.5t-36.522t-2730.5t-10.535q011 5.518t19.57t27 3.5t30 11.5l1467q-28115619t-628q-41 062.5 19t-21.5 51q0 21 7 39.5t18 35t24.5 30.5t27.5 25l-14 165h-204l-84165h-151l376 697h151l71697h-2zM365 426q-3 403 74v44q-369.521.5t-15.535t-18.540.5t-17.537l-62129h136z" /><glyph glyph-name="aogonek" unicode="&#x105;" d="M519 487q-4128.527.5t-932.5t-8.534t-732l-46217q-628 0.558t23.548q-13734.521t-42.532t-3639t-1542q011 618t207t26.5 3.5t29.5 11.5l1467q-28115619t-628q-40 062.5 18.5t-22.5 50.5q0 42 27.5 78.5t69.5 65.5q-5 87.5 17t-4.5 17q-293061.545.5t-74.515.5q-70 0105.5 41.5t-35.5 121.5q0 93 31 170t77 123q42 42 91 61t113 19q45 0 91.58t78.527zM367 410q-5 316 5.5t-20 2.5q-12 023.51t-22.55.5t-2313t-2524.5q-161927.546t-19.557t-1260.5t-455.5q035 9.550.5t31.515.5q16 0 31.5 7.5t28.5 19t23.5 25.5t15.5 28z" /><glyph glyph-name="Cacute" unicode="&#x106;" horiz-adv-x="563" d="M544 563q-22 2049 28t-56 8q-35 070.517t-59.545q-23264166t-3084t-18.586.5t-6.572.5q069 32100.5t9131.5q31 0 61.5 11.5t66.5 36.5l4891q-483498.549.5t-110.515.5q-118 0182 63t-64 181q0 40 7.5 84t21 86.5t33 82t43.5 71.5q57 76 135.5 115t163.5 39q52 0 96.515t67.540zM388 717l-40 75l231 133l48105z" /><glyph glyph-name="cacute" unicode="&#x107;" horiz-adv-x="446" d="M393 382q-17 1937 28.5t-39 9.5q-36 06330q-14162742t-22.557.5t-15.564.5t-663q040 1758t4418q28 0 55.5 14t56.5 37l4583q-423286.550t-101.518q-86 0131 46.5t-45 129.5q0 48 10.5 92.5t28 84t41 71.5t50.5 55q35 29 74.5 45t93.5 16q35 0 71.514.5t64.546.5zM256 554l-40 75l231 133l48105z" /><glyph glyph-name="Ccircumflex" unicode="&#x108;" horiz-adv-x="563" d="M544 563q-22 2049 28t-56 8q-35 070.517t-59.545q-23264166t-3084t-18.586.5t-6.572.5q069 32100.5t9131.5q31 0 61.5 11.5t66.5 36.5l4891q-483498.549.5t-110.515.5q-118 0182 63t-64 181q0 40 7.5 84t21 86.5t33 82t43.5 71.5q57 76 135.5 115t163.5 39q52 0 96.515t67.540zM602 715l-123 78l-15178l-36 73l209 135l155135z" /><glyph glyph-name="ccircumflex" unicode="&#x109;" horiz-adv-x="446" d="M393 382q-17 1937 28.5t-39 9.5q-36 06330q-14162742t-22.557.5t-15.564.5t-663q040 1758t4418q28 0 55.5 14t56.5 37l4583q-423286.550t-101.518q-86 0131 46.5t-45 129.5q0 48 10.5 92.5t28 84t41 71.5t50.5 55q35 29 74.5 45t93.5 16q35 0 71.514.5t64.546.5zM477 552l-123 78l-15178l-36 73l209 135l155135z" /><glyph glyph-name="Cdotaccent" unicode="&#x10a;" horiz-adv-x="563" d="M544 563q-22 2049 28t-56 8q-35 070.517t-59.545q-23264166t-3084t-18.586.5t-6.572.5q069 32100.5t9131.5q31 0 61.5 11.5t66.5 36.5l4891q-483498.549.5t-110.515.5q-118 0182 63t-64 181q0 40 7.5 84t21 86.5t33 82t43.5 71.5q57 76 135.5 115t163.5 39q52 0 96.515t67.540zM561 806q0352459t-5924q-34 058 24t-24 59t24.5 59t59.5 24q34 0 57.524t23.559z" /><glyph glyph-name="cdotaccent" unicode="&#x10b;" horiz-adv-x="446" d="M393 382q-17 1937 28.5t-39 9.5q-36 06330q-14162742t-22.557.5t-15.564.5t-663q040 1758t4418q28 0 55.5 14t56.5 37l4583q-423286.550t-101.518q-86 0131 46.5t-45 129.5q0 48 10.5 92.5t28 84t41 71.5t50.5 55q35 29 74.5 45t93.5 16q35 0 71.514.5t64.546.5zM437 653q0352459t-5924q-34 058 24t-24 59t24.5 59t59.5 24q34 0 57.524t23.559z" /><glyph glyph-name="Ccaron" unicode="&#x10c;" horiz-adv-x="563" d="M544 563q-22 2049 28t-56 8q-35 070.517t-59.545q-23264166t-3084t-18.586.5t-6.572.5q069 32100.5t9131.5q31 0 61.5 11.5t66.5 36.5l4891q-483498.549.5t-110.515.5q-118 0182 63t-64 181q0 40 7.5 84t21 86.5t33 82t43.5 71.5q57 76 135.5 115t163.5 39q52 0 96.515t67.540zM453 718l-156 135l55 73l12376l152 76l3473z" /><glyph glyph-name="ccaron" unicode="&#x10d;" horiz-adv-x="446" d="M393 382q-17 1937 28.5t-39 9.5q-36 06330q-14162742t-22.557.5t-15.564.5t-663q040 1758t4418q28 0 55.5 14t56.5 37l4583q-423286.550t-101.518q-86 0131 46.5t-45 129.5q0 48 10.5 92.5t28 84t41 71.5t50.5 55q35 29 74.5 45t93.5 16q35 0 71.514.5t64.546.5zM336 554l-156 135l55 73l12376l152 76l3473z" /><glyph glyph-name="Dcaron" unicode="&#x10e;" horiz-adv-x="630" d="M617 458q043890.5t-23.595t-39.591t-5677.5q-272955.549t-62.532t-77.517.5t-100.55.5h-169l148 695h160q87 0 142.513.5t88.554.5q2431 38.569t14.5100zM466 460q0 244.5 46.5t-16.5 40t-33.5 28t-56.5 10.5h-63l-100471h69q45 0 78 21.5t52 50.5q23 36 37.5 78.5t23 81t11.5 69.5t3 45zM387 718l-156 135l55 73l12376l152 76l3473z" /><glyph glyph-name="dcaron" unicode="&#x10f;" horiz-adv-x="544" d="M464 187q-146519102t-557q019 328h-115q-2 64 21t-1 26q-24285944t-7016q-81 0119 45t-38 135q0 38 7.5 77t21.5 76t35 70t48 59q35 33 77.5 51.5t87.5 18.5q28 0 53.55t33.59q1 6 3 21t7 38l37 176l12921zM374 392q-20 2065 20q-39 07040q-141925.544.5t-19.553t-12.555.5t-4.552q074 5274q11 0 25 6.5t27.5 17t24.5 22t17 22.5zM775 661q0341863.5t-4852.5q-22174728.5t-5119.5l-31 47q10 3 21.5 8t22 12t17.5 16t9 19q-3 69.5 10.5t-12.5 11t-10.5 16.5t-4.5 27q0 30 22 53.5t64 23.5q35 0 55.524t20.556z" /><glyph glyph-name="Dcroat" unicode="&#x110;" horiz-adv-x="630" d="M617 458q043890.5t-23.595t-39.591t-5677.5q-272955.549t-62.532t-77.517.5t-100.55.5h-169l65 306h-76l19 89h76l64 300h160q87 0 142.513.5t88.554.5q2431 38.569t14.5100zM466 460q0 244.5 46.5t-16.5 40t-33.5 28t-56.5 10.5h-63l-40190h106l-2889h-97l-41192h69q45 0 78 21.5t52 50.5q23 36 37.5 78.5t23 81t11.5 69.5t3 45z" /><glyph glyph-name="dcroat" unicode="&#x111;" horiz-adv-x="549" d="M617 584h-69l-84397q-146519102t-557q019 328h-115q-2 53.5 18t-1.5 24v5q-24285944t-7016q-81 0119 45t-38 135q0 38 7.5 77t21.5 76t35 70t48 59q35 33 77.5 51.5t87.5 18.5q28 0 53.55t33.59q1 6 3 21t7 38l4 20h-112l16 78h112l17 78l12921l-1257h68zM374 392q-20 2065 20q-39 07040q-141925.544.5t-19.553t-12.555.5t-4.552q074 5274q11 0 25 6.5t27.5 17t24.5 22t17 22.5z" /><glyph glyph-name="Emacron" unicode="&#x112;" horiz-adv-x="495" d="M526 581h-236l-34161h197l-24114h-196l-39186h262l-26120h-405l148 695h396zM534 748h-314l16 78h314z" /><glyph glyph-name="emacron" unicode="&#x113;" horiz-adv-x="514" d="M502 383q03616.568t-4956t-8138t-112.514q-22 039 2.5t-22 4.5q-283.523t-1.523q044 2263t6419q35 0 70.5 14t71.5 40l3484q-523610353t-10517q-92 0143 47t-51 141q0 40 8.5 79.5t23.5 76t36 68.5t47 57q38 37 81.5 52.5t94.5 15.5q38 0 708t5524.5t3643.5t1364zM367 372q0 2312 38t-42 15q-38 06626t-4393q31 14.53t23.52q22 0 44 4t40 12.5t29.5 22t11.5 32.5zM468 590h-294l19 92h294z" /><glyph glyph-name="Ebreve" unicode="&#x114;" horiz-adv-x="495" d="M526 581h-236l-34161h197l-24114h-196l-39186h262l-26120h-405l148 695h396zM584 851q-783029t-53.543.5t-6639.5t-67.517q-33 061 17t-50 39.5t-36 43.5t-18 29l52 49q67 18.519.5t30.524.5t4120.5t508.5q22 0 48 9.5t50 21.5t42.5 24t26.5 18z" /><glyph glyph-name="ebreve" unicode="&#x115;" horiz-adv-x="514" d="M502 383q03616.568t-4956t-8138t-112.514q-22 039 2.5t-22 4.5q-283.523t-1.523q044 2263t6419q35 0 70.5 14t71.5 40l3484q-523610353t-10517q-92 0143 47t-51 141q0 40 8.5 79.5t23.5 76t36 68.5t47 57q38 37 81.5 52.5t94.5 15.5q38 0 708t5524.5t3643.5t1364zM367 372q0 2312 38t-42 15q-38 06626t-4393q31 14.53t23.52q22 0 44 4t40 12.5t29.5 22t11.5 32.5zM544 684q-783029t-53.543.5t-6639.5t-67.517q-33 061 17t-50 39.5t-36 43.5t-18 29l52 49q67 18.519.5t30.524.5t4120.5t508.5q22 0 48 9.5t50 21.5t42.5 24t26.5 18z" /><glyph glyph-name="Edotaccent" unicode="&#x116;" horiz-adv-x="495" d="M526 581h-236l-34161h197l-24114h-196l-39186h262l-26120h-405l148 695h396zM463 806q0352459t-5924q-34 058 24t-24 59t24.5 59t59.5 24q34 0 57.524t23.559z" /><glyph glyph-name="edotaccent" unicode="&#x117;" horiz-adv-x="514" d="M502 383q03616.568t-4956t-8138t-112.514q-22 039 2.5t-22 4.5q-283.523t-1.523q044 2263t6419q35 0 70.5 14t71.5 40l3484q-523610353t-10517q-92 0143 47t-51 141q0 40 8.5 79.5t23.5 76t36 68.5t47 57q38 37 81.5 52.5t94.5 15.5q38 0 708t5524.5t3643.5t1364zM367 372q0 2312 38t-42 15q-38 06626t-4393q31 14.53t23.52q22 0 44 4t40 12.5t29.5 22t11.5 32.5zM427 642q0352459t-5924q-34 058 24t-24 59t24.5 59t59.5 24q34 0 57.524t23.559z" /><glyph glyph-name="Eogonek" unicode="&#x118;" horiz-adv-x="495" d="M526 581h-236l-34161h197l-24114h-196l-39186h262l-26120q-20 0408.5t-3722t-27.530.5t-10.535q011 618t207t26.5 3.5t29.5 11.5l1467q-281155.519t-61.58q-41 063 19t-22 51q0 38 23 71t55 59h-262l148 695h396z" /><glyph glyph-name="eogonek" unicode="&#x119;" horiz-adv-x="514" d="M502 383q03616.568t-4956t-8138t-112.514q-23 040 3t-21 4q-15321t-225q044 2263t6419q35 0 70.5 14t71.5 40l3484q-12824.515t-23.514q-14832.521.5t-35.530t-28.535t-11.536.5q011 618t207t26.5 3.5t29.5 11.5l1467q-28115619t-628q-40 062.5 18.5t-22.5 50.5t17 61.5t46 55.5h-8q-92 0143 47t-51 141q0 40 8.5 79.5t23.5 76t36 68.5t47 57q38 37 81.5 52.5t94.5 15.5q38 0 708t5524.5t3643.5t1364zM367 372q0 2312 38t-42 15q-38 06626t-4393q31 14.53t23.52q22 0 44 4t40 12.5t29.5 22t11.5 32.5z" /><glyph glyph-name="Ecaron" unicode="&#x11a;" horiz-adv-x="495" d="M526 581h-236l-34161h197l-24114h-196l-39186h262l-26120h-405l148 695h396zM366 718l-156 135l55 73l12376l152 76l3473z" /><glyph glyph-name="ecaron" unicode="&#x11b;" horiz-adv-x="514" d="M502 383q03616.568t-4956t-8138t-112.514q-22 039 2.5t-22 4.5q-283.523t-1.523q044 2263t6419q35 0 70.5 14t71.5 40l3484q-523610353t-10517q-92 0143 47t-51 141q0 40 8.5 79.5t23.5 76t36 68.5t47 57q38 37 81.5 52.5t94.5 15.5q38 0 708t5524.5t3643.5t1364zM367 372q0 2312 38t-42 15q-38 06626t-4393q31 14.53t23.52q22 0 44 4t40 12.5t29.5 22t11.5 32.5zM326 554l-156 135l55 73l12376l152 76l3473z" /><glyph glyph-name="Gcircumflex" unicode="&#x11c;" horiz-adv-x="666" d="M574 541q-29 2862.5 40t-73.5 12q-31 059.510t-49.527q-302452.566.5t-3790.5t-2295t-7.578q069 32.599t92.530q47 0 82 17l34 158h-103v114h272l-72336q-6032120.545t-122.513q-61 0107 17t-77.5 48.5t-47.5 76t-16 98.5q0 60 12.5 117t34.5 107t51.5 91.5t63.5 69.5q61 51 117 70t124 19q63 0 114.520t89.560zM603 715l-123 78l-15178l-36 73l209 135l155135z" /><glyph glyph-name="gcircumflex" unicode="&#x11d;" horiz-adv-x="556" d="M537 488q-133.511t-5.518t-5.520.5t-4.518.5l-57263q-83813.567t-952.5t-6.542t-735.5q-115238.586.5t-64.555t-8129t-898.5q-51 097.5 12.5t-81.5 33.5l46 90q2617 62.526.5t81.59.5q55 0 87.5 24t41.5 64q3 14 7 31.5t8 29.5q-232052.531.5t-58.511.5q-85 0122 43t-37 133q0 38 7 78t21.5 77.5t35 71.5t47.5 60q35 33 82 53t104 20q66 0 112.57.5t90.527.5zM380 405q-8 623 9t-33 3q-20 045.513t-39.531q-141925.544.5t-19.553.5t-1256t-452q037 1457.5t4020.5q13 0 27 6.5t27 17t23 22t16 22.5zM481 552l-123 78l-15178l-36 73l209 135l155135z" /><glyph glyph-name="Gbreve" unicode="&#x11e;" horiz-adv-x="666" d="M574 541q-29 2862.5 40t-73.5 12q-31 059.510t-49.527q-302452.566.5t-3790.5t-2295t-7.578q069 32.599t92.530q47 0 82 17l34 158h-103v114h272l-72336q-6032120.545t-122.513q-61 0107 17t-77.5 48.5t-47.5 76t-16 98.5q0 60 12.5 117t34.5 107t51.5 91.5t63.5 69.5q61 51 117 70t124 19q63 0 114.520t89.560zM672 851q-783029t-53.543.5t-6639.5t-67.517q-33 061 17t-50 39.5t-36 43.5t-18 29l52 49q67 18.519.5t30.524.5t4120.5t508.5q22 0 48 9.5t50 21.5t42.5 24t26.5 18z" /><glyph glyph-name="gbreve" unicode="&#x11f;" horiz-adv-x="556" d="M537 488q-133.511t-5.518t-5.520.5t-4.518.5l-57263q-83813.567t-952.5t-6.542t-735.5q-115238.586.5t-64.555t-8129t-898.5q-51 097.5 12.5t-81.5 33.5l46 90q2617 62.526.5t81.59.5q55 0 87.5 24t41.5 64q3 14 7 31.5t8 29.5q-232052.531.5t-58.511.5q-85 0122 43t-37 133q0 38 7 78t21.5 77.5t35 71.5t47.5 60q35 33 82 53t104 20q66 0 112.57.5t90.527.5zM380 405q-8 623 9t-33 3q-20 045.513t-39.531q-141925.544.5t-19.553.5t-1256t-452q037 1457.5t4020.5q13 0 27 6.5t27 17t23 22t16 22.5zM568 684q-783029t-53.543.5t-6639.5t-67.517q-33 061 17t-50 39.5t-36 43.5t-18 29l52 49q67 18.519.5t30.524.5t4120.5t508.5q22 0 48 9.5t50 21.5t42.5 24t26.5 18z" /><glyph glyph-name="Gdotaccent" unicode="&#x120;" horiz-adv-x="666" d="M574 541q-29 2862.5 40t-73.5 12q-31 059.510t-49.527q-302452.566.5t-3790.5t-2295t-7.578q069 32.599t92.530q47 0 82 17l34 158h-103v114h272l-72336q-6032120.545t-122.513q-61 0107 17t-77.5 48.5t-47.5 76t-16 98.5q0 60 12.5 117t34.5 107t51.5 91.5t63.5 69.5q61 51 117 70t124 19q63 0 114.520t89.560zM565 806q0352459t-5924q-34 058 24t-24 59t24.5 59t59.5 24q34 0 57.524t23.559z" /><glyph glyph-name="gdotaccent" unicode="&#x121;" horiz-adv-x="556" d="M537 488q-133.511t-5.518t-5.520.5t-4.518.5l-57263q-83813.567t-952.5t-6.542t-735.5q-115238.586.5t-64.555t-8129t-898.5q-51 097.5 12.5t-81.5 33.5l46 90q2617 62.526.5t81.59.5q55 0 87.5 24t41.5 64q3 14 7 31.5t8 29.5q-232052.531.5t-58.511.5q-85 0122 43t-37 133q0 38 7 78t21.5 77.5t35 71.5t47.5 60q35 33 82 53t104 20q66 0 112.57.5t90.527.5zM380 405q-8 623 9t-33 3q-20 045.513t-39.531q-141925.544.5t-19.553.5t-1256t-452q037 1457.5t4020.5q13 0 27 6.5t27 17t23 22t16 22.5zM431 653q0352459t-5924q-34 058 24t-24 59t24.5 59t59.5 24q34 0 57.524t23.559z" /><glyph glyph-name="Gcommaaccent" unicode="&#x122;" horiz-adv-x="666" d="M574 541q-29 2862.5 40t-73.5 12q-31 059.510t-49.527q-302452.566.5t-3790.5t-2295t-7.578q069 32.599t92.530q47 0 82 17l34 158h-103v114h272l-72336q-6032120.545t-122.513q-61 0107 17t-77.5 48.5t-47.5 76t-16 98.5q0 60 12.5 117t34.5 107t51.5 91.5t63.5 69.5q61 51 117 70t124 19q63 0 114.520t89.560zM378124q0341863.5t-4852.5q-22174728.5t-5119.5l-31 47q10 3 21.5 8t22 12t17.5 16t9 19q-3 69.5 10.5t-12.5 11t-10.5 16.5t-4.5 27q0 30 22 53.5t64 23.5q35 0 55.524t20.556z" /><glyph glyph-name="gcommaaccent" unicode="&#x123;" horiz-adv-x="556" d="M537 488q-133.511t-5.518t-5.520.5t-4.518.5l-57263q-83813.567t-952.5t-6.542t-735.5q-115238.586.5t-64.555t-8129t-898.5q-51 097.5 12.5t-81.5 33.5l46 90q2617 62.526.5t81.59.5q55 0 87.5 24t41.5 64q3 14 7 31.5t8 29.5q-232052.531.5t-58.511.5q-85 0122 43t-37 133q0 38 7 78t21.5 77.5t35 71.5t47.5 60q35 33 82 53t104 20q66 0 112.57.5t90.527.5zM380 405q-8 623 9t-33 3q-20 045.513t-39.531q-141925.544.5t-19.553.5t-1256t-452q037 1457.5t4020.5q13 0 27 6.5t27 17t23 22t16 22.5zM269 649q0 34 18 63.5t48 52.5q22 17 47 28.5t51 19.5l3147q-10321.58t-2212t-1816t-8.519q36 9.510.5t12.511t10.516.5t4.527q0302253.5t-6423.5q-35 055.5 24t-20.5 56z" /><glyph glyph-name="Hcircumflex" unicode="&#x124;" horiz-adv-x="633" d="M506 0h-142l66 310h-200l-66310h-139l148 695h139l-58270h200l58 270h142zM550 715l-123 78l-15178l-36 73l209 135l155135z" /><glyph glyph-name="hcircumflex" unicode="&#x125;" horiz-adv-x="572" d="M535 423q012227t-738l-76358h-131l73 344q4 17 4 33q0 2010 28.5t-31 8.5q-14 030.57t-33.518t-33.525.5t-28.530.5l-71333h-133l120 561q8 38 11.5 63t3.5 44q0 111 19t-3 16l135 43q515 543q023351t-853l-1885q-16315t-4.518t-517t-4.512q29 32 74 53t92 21q61 0 9026.5t2976.5zM387 721l-123 78l-15178l-36 73l209 135l155135z" /><glyph glyph-name="Hbar" unicode="&#x126;" horiz-adv-x="633" d="M636 607h73l-26113h-71l-105494h-142l66 310h-200l-66310h-139l105 494h-71l26 113h69l19 88h139l-1988h200l19 88h142zM455 425l15 69h-200l-1569h200z" /><glyph glyph-name="hbar" unicode="&#x127;" horiz-adv-x="572" d="M535 423q012227t-738l-76358h-131l73 344q4 17 4 33q0 2010 28.5t-31 8.5q-14 030.57t-33.518t-33.525.5t-28.530.5l-71333h-133l120 561l5 23h-45l17 78h38v6q0 111 19t-3 16l135 43q515 543q0100.520t-1.521h162l-1778h-157l-1570q-16315t-4.518t-517t-4.512q29 32 74 53t92 21q61 0 9026.5t2976.5z" /><glyph glyph-name="Itilde" unicode="&#x128;" horiz-adv-x="297" d="M170 0h-145l148 695h145zM442 805q-323162.549t-75.518q-20 034 6t-27 13.5t-27.5 14t-33.5 6.5q-24 04010t-3527l-33 75q32 31 61.5 48.5t68.5 17.5q21 0 35.56.5t28.514t2913.5t376q24 0 39.5 9t35.5 26z" /><glyph glyph-name="itilde" unicode="&#x129;" horiz-adv-x="280" d="M159 0h-134l107 503l138 21zM403 645q-323162.549t-75.518q-20 034 6t-27 13.5t-27.5 14t-33.5 6.5q-24 04010t-3527l-33 75q32 31 61.5 48.5t68.5 17.5q21 0 35.56.5t28.514t2913.5t376q24 0 39.5 9t35.5 26z" /><glyph glyph-name="Imacron" unicode="&#x12a;" horiz-adv-x="297" d="M170 0h-145l148 695h145zM410 748h-314l16 78h314z" /><glyph glyph-name="imacron" unicode="&#x12b;" horiz-adv-x="280" d="M159 0h-134l107 503l138 21zM365 590h-294l19 92h294z" /><glyph glyph-name="Ibreve" unicode="&#x12c;" horiz-adv-x="297" d="M170 0h-145l148 695h145zM465 851q-783029t-53.543.5t-6639.5t-67.517q-33 061 17t-50 39.5t-36 43.5t-18 29l52 49q67 18.519.5t30.524.5t4120.5t508.5q22 0 48 9.5t50 21.5t42.5 24t26.5 18z" /><glyph glyph-name="ibreve" unicode="&#x12d;" horiz-adv-x="280" d="M159 0h-134l107 503l138 21zM430 684q-783029t-53.543.5t-6639.5t-67.517q-33 061 17t-50 39.5t-36 43.5t-18 29l52 49q67 18.519.5t30.524.5t4120.5t508.5q22 0 48 9.5t50 21.5t42.5 24t26.5 18z" /><glyph glyph-name="Iogonek" unicode="&#x12e;" horiz-adv-x="297" d="M170 0h-2q-20 0408.5t-36.522t-2730.5t-10.535q011 618t207t26.5 3.5t29.5 11.5l1467q-28115619t-628q-41 062.5 19t-21.5 51q0 41 24.5 74.5t52.5 55.5l148 695h145z" /><glyph glyph-name="iogonek" unicode="&#x12f;" horiz-adv-x="280" d="M160 0q-16 034.58.5t-34.522t-26.530.5t-10.535q011 618t207t26.5 3.5t29.5 11.5l1467q-28115619t-628q-41 062.5 19t-21.5 51q0 21 7 40t18 35.5t25 30.5t28 25l107 502l138 21zM315 653q0352459t-5924q-34 058 24t-24 59t24.5 59t59.5 24q34 0 57.524t23.559z" /><glyph glyph-name="Idotaccent" unicode="&#x130;" horiz-adv-x="297" d="M170 0h-145l148 695h145zM344 806q0352459t-5924q-34 058 24t-24 59t24.5 59t59.5 24q34 0 57.524t23.559z" /><glyph glyph-name="dotlessi" unicode="&#x131;" horiz-adv-x="280" d="M159 0h-134l107 503l138 21z" /><glyph glyph-name="IJ" unicode="&#x132;" horiz-adv-x="594" d="M170 0h-145l148 695h145zM496 135q-7341255.5t-9.536t-8.524.5t-920q-14323858.5t-51.547.5t-5736t-54.524l-49 75q31 17 58 40t41 44q6 9 11.5 20t10 25.5t9.5 34.5t11 48l122 575h145z" /><glyph glyph-name="ij" unicode="&#x133;" horiz-adv-x="548" d="M159 0h-134l107 503l138 21zM314 653q0352459t-5924q-34 058 24t-24 59t24.5 59t59.5 24q34 0 57.524t23.559zM432 14q-8361762.5t-18.545t-18.530.5t-1821q-454712075l-42 78q17 7 34.5 23.5t28.5 30.5q13 17 21 39.5t16 58.5l105 493l137 21zM584 653q0352459t-5924q-34 058 24t-24 59t24.5 59t59.5 24q34 0 57.524t23.559z" /><glyph glyph-name="Jcircumflex" unicode="&#x134;" horiz-adv-x="297" d="M199 135q-7341255.5t-9.536t-8.524.5t-920q-14323858.5t-51.547.5t-5736t-54.524l-49 75q31 17 58 40t41 44q6 9 11.5 20t10 25.5t9.5 34.5t11 48l122 575h145zM390 715l-123 78l-15178l-36 73l209 135l155135z" /><glyph glyph-name="jcircumflex" unicode="&#x135;" horiz-adv-x="268" d="M152 14q-8361762.5t-18.545t-18.530.5t-1821q-454712075l-42 78q17 7 34.5 23.5t28.5 30.5q13 17 21 39.5t16 58.5l105 493l137 21zM343 552l-123 78l-15178l-36 73l209 135l155135z" /><glyph glyph-name="Kcommaaccent" unicode="&#x136;" horiz-adv-x="600" d="M392 368l168368h-178l-137 363l-77363h-143l148 695h143l-68317l263 317h175zM342124q0341863.5t-4852.5q-22174728.5t-5119.5l-31 47q10 3 21.5 8t22 12t17.5 16t9 19q-3 69.5 10.5t-12.5 11t-10.5 16.5t-4.5 27q0 30 22 53.5t64 23.5q35 0 55.524t20.556z" /><glyph glyph-name="kcommaaccent" unicode="&#x137;" horiz-adv-x="515" d="M294 746q26 315.5t122.5q025563t-1692l-118553h-134l120 562q8 34 11 59t3 45q0 111 20t-3 17zM354 290l138290h-158l-110 290l173 222h166zM309124q0341863.5t-4852.5q-22174728.5t-5119.5l-31 47q10 3 21.5 8t22 12t17.5 16t9 19q-3 69.5 10.5t-12.5 11t-10.5 16.5t-4.5 27q0 30 22 53.5t64 23.5q35 0 55.524t20.556z" /><glyph glyph-name="kgreenlandic" unicode="&#x138;" horiz-adv-x="515" d="M254 558q26 315.5t122.5q025563t-1692l-78365h-134l80 374q8 34 11 59t3 45q0 111 20t-3 17zM354 290l138290h-158l-110 290l173 222h166z" /><glyph glyph-name="Lacute" unicode="&#x139;" horiz-adv-x="472" d="M392 0h-367l148 695h143l-123579h249zM182 717l-40 75l231 133l48105z" /><glyph glyph-name="lacute" unicode="&#x13a;" horiz-adv-x="282" d="M290 746q16 1.516t0.523q0252.556.5t-9.563.5l-81379q-104513.566.5t-3.532.5q029 2629q10 0 15 2l680q-37148314q-54 080 26t-26 66q0 14 4.5 39.5t10.5 53.5l81 382q8 35 12 62.5t4 49.5q0 214 36zM137 732l-40 75l231 133l48105z" /><glyph glyph-name="Lcommaaccent" unicode="&#x13b;" horiz-adv-x="472" d="M392 0h-367l148 695h143l-123579h249zM277124q0341863.5t-4852.5q-22174728.5t-5119.5l-31 47q10 3 21.5 8t22 12t17.5 16t9 19q-3 69.5 10.5t-12.5 11t-10.5 16.5t-4.5 27q0 30 22 53.5t64 23.5q35 0 55.524t20.556z" /><glyph glyph-name="lcommaaccent" unicode="&#x13c;" horiz-adv-x="282" d="M290 746q16 1.516t0.523q0252.556.5t-9.563.5l-81379q-104513.566.5t-3.532.5q029 2629q10 0 15 2l680q-37148314q-54 080 26t-26 66q0 14 4.5 39.5t10.5 53.5l81 382q8 35 12 62.5t4 49.5q0 214 36zM188124q0341863.5t-4852.5q-22174728.5t-5119.5l-31 47q10 3 21.5 8t22 12t17.5 16t9 19q-3 69.5 10.5t-12.5 11t-10.5 16.5t-4.5 27q0 30 22 53.5t64 23.5q35 0 55.524t20.556z" /><glyph glyph-name="Lcaron" unicode="&#x13d;" horiz-adv-x="472" d="M392 0h-367l148 695h143l-123579h249zM533 617q0341863.5t-4852.5q-22174728.5t-5119.5l-31 47q10 3 21.5 8t22 12t17.5 16t9 19q-3 69.5 10.5t-12.5 11t-10.5 16.5t-4.5 27q0 30 22 53.5t64 23.5q35 0 55.524t20.556z" /><glyph glyph-name="lcaron" unicode="&#x13e;" horiz-adv-x="282" d="M290 746q16 1.516t0.523q0252.556.5t-9.563.5l-81379q-104513.566.5t-3.532.5q029 2629q10 0 15 2l680q-37148314q-54 080 26t-26 66q0 14 4.5 39.5t10.5 53.5l81 382q8 35 12 62.5t4 49.5q0 214 36zM500 661q0341863.5t-4852.5q-22174728.5t-5119.5l-31 47q10 3 21.5 8t22 12t17.5 16t9 19q-3 69.5 10.5t-12.5 11t-10.5 16.5t-4.5 27q0 30 22 53.5t64 23.5q35 0 55.524t20.556z" /><glyph glyph-name="Ldot" unicode="&#x13f;" horiz-adv-x="472" d="M392 0h-367l148 695h143l-123579h249zM492 397q0352459t-5924q-34 058 24t-24 59t24.5 59t59.5 24q34 0 57.524t23.559z" /><glyph glyph-name="ldot" unicode="&#x140;" horiz-adv-x="358" d="M290 746q16 1.516t0.523q0252.556.5t-9.563.5l-81379q-104513.566.5t-3.532.5q029 2629q10 0 15 2l680q-37148314q-54 080 26t-26 66q0 14 4.5 39.5t10.5 53.5l81 382q8 35 12 62.5t4 49.5q0 214 36zM425 364q0352459t-5924q-34 058 24t-24 59t24.5 59t59.5 24q34 0 57.524t23.559z" /><glyph glyph-name="Lslash" unicode="&#x141;" horiz-adv-x="472" d="M392 0h-367l63 294l-6018l19 92l60 18l66 309h143l-56262l158 48l-1992l-15848l-48225h249z" /><glyph glyph-name="lslash" unicode="&#x142;" horiz-adv-x="282" d="M283 351l-5718l-27125q-104513.566.5t-3.532.5q029 2629q10 0 15 2l680q-37148314q-54 080 26t-26 66q0 14 4.5 39.5t10.5 53.5l24 114l-4314l19 92l44 14l37 176q8 35 12 62.5t4 49.5q0 214 36l142 43q16 1.516t0.523q0252.556.5t-9.563.5l-35162l58 18z" /><glyph glyph-name="Nacute" unicode="&#x143;" horiz-adv-x="635" d="M508 0h-144l-62 266q-8 3315.5 67t-14.5 64.5t-12 56.5q-5 246 40q-321745q-4268.552.5t-1052t-9.547.5l-59297h-135l148 695h153l74278q1556 24109t1291q2 20 5.5 46.5t7.5 53.5t8 51.5t8 42.5l58 284h133zM349 717l-40 75l231 133l48105z" /><glyph glyph-name="nacute" unicode="&#x144;" horiz-adv-x="551" d="M511 422q017236t-636l-74350h-132l71 333q3 15 5 26.5t2 19.5q0 198.5 25.5t-26.5 6.5q-24 05217t-6060l-71334h-132l73 345q9 40 9 74t-9 61l124 49q36 617t4.523t2.523.5t019.5q32 35 74 56t99 21q49 0 7627t2774zM247 554l-40 75l231 133l48105z" /><glyph glyph-name="Ncommaaccent" unicode="&#x145;" horiz-adv-x="635" d="M508 0h-144l-62 266q-8 3315.5 67t-14.5 64.5t-12 56.5q-5 246 40q-321745q-4268.552.5t-1052t-9.547.5l-59297h-135l148 695h153l74278q1556 24109t1291q2 20 5.5 46.5t7.5 53.5t8 51.5t8 42.5l58 284h133zM343123q0341863.5t-4852.5q-22174728.5t-5119.5l-31 47q10 3 21.5 8t22 12t17.5 16t9 19q-3 69.5 10.5t-12.5 11t-10.5 16.5t-4.5 27q0 30 22 53.5t64 23.5q35 0 55.524t20.556z" /><glyph glyph-name="ncommaaccent" unicode="&#x146;" horiz-adv-x="551" d="M511 422q017236t-636l-74350h-132l71 333q3 15 5 26.5t2 19.5q0 198.5 25.5t-26.5 6.5q-24 05217t-6060l-71334h-132l73 345q9 40 9 74t-9 61l124 49q36 617t4.523t2.523.5t019.5q32 35 74 56t99 21q49 0 7627t2774zM299124q0341863.5t-4852.5q-22174728.5t-5119.5l-31 47q10 3 21.5 8t22 12t17.5 16t9 19q-3 69.5 10.5t-12.5 11t-10.5 16.5t-4.5 27q0 30 22 53.5t64 23.5q35 0 55.524t20.556z" /><glyph glyph-name="Ncaron" unicode="&#x147;" horiz-adv-x="635" d="M508 0h-144l-62 266q-8 3315.5 67t-14.5 64.5t-12 56.5q-5 246 40q-321745q-4268.552.5t-1052t-9.547.5l-59297h-135l148 695h153l74278q1556 24109t1291q2 20 5.5 46.5t7.5 53.5t8 51.5t8 42.5l58 284h133zM407 718l-156 135l55 73l12376l152 76l3473z" /><glyph glyph-name="ncaron" unicode="&#x148;" horiz-adv-x="551" d="M511 422q017236t-636l-74350h-132l71 333q3 15 5 26.5t2 19.5q0 198.5 25.5t-26.5 6.5q-24 05217t-6060l-71334h-132l73 345q9 40 9 74t-9 61l124 49q36 617t4.523t2.523.5t019.5q32 35 74 56t99 21q49 0 7627t2774zM314 554l-156 135l55 73l12376l152 76l3473z" /><glyph glyph-name="napostrophe" unicode="&#x149;" horiz-adv-x="551" d="M511 422q017236t-636l-74350h-132l71 333q3 15 5 26.5t2 19.5q0 198.5 25.5t-26.5 6.5q-24 05217t-6060l-71334h-132l73 345q9 40 9 74t-9 61l124 49q36 617t4.523t2.523.5t019.5q32 35 74 56t99 21q49 0 7627t2774zM140 691q0341863.5t-4852.5q-22174728.5t-5119.5l-31 47q10 3 21.5 8t22 12t17.5 16t9 19q-3 69.5 10.5t-12.5 11t-10.5 16.5t-4.5 27q0 30 22 53.5t64 23.5q35 0 55.524t20.556z" /><glyph glyph-name="Eng" unicode="&#x14a;" horiz-adv-x="635" d="M516 34q-8361762.5t-18.545t-18.530.5t-1821q-454712075l-42 78q17 7 34.5 23.5t28.5 30.5q11 16 16 28.5t5 23.5q0 62 16l-62 266q-8 3315.5 67t-14.5 64.5t-12 56.5q-5 246 40q-321745q-4268.552.5t-1052t-9.547.5l-59297h-135l148 695h153l74278q1556 24109q952 1289q2 19 5 44l8 54t8 51.5t8 42.5l58 284h133z" /><glyph glyph-name="eng" unicode="&#x14b;" horiz-adv-x="551" d="M511 422q017236t-636l-67316q-8361762.5t-18.545t-18.530.5t-1821q-454712075l-41 77q17 7 34.5 23.5t28.5 30.5q13 17 21 39.5t16 58.5l65 304q3 15 5 26.5t2 19.5q0 198.5 25.5t-26.5 6.5q-24 05217t-6060l-71334h-132l73 345q9 40 9 74t-9 61l124 49q36 617t4.523t2.523.5t019.5q32 35 74 56t99 21q49 0 7627t2774z" /><glyph glyph-name="Omacron" unicode="&#x14c;" horiz-adv-x="694" d="M682 454q06616132t-46124.5t-72.5104.5t-95.571q-693315733q-65 0110 18.5t-73.5 51.5t-41.5 79t-13 100q0 74 16 137t42.5 114t59.5 89.5t67 62.5q15 11 34 22.5t43.5 20.5t55.5 14.5t71 5.5q115 0 175.566.5t60.5183.5zM525 483q0 5123.5 82t-80.5 31q-35 067.516.5t-53.544.5q-21273867t-2984t-18.588t-6.579q067 27.594t80.527q30 0 59.5 11.5t53.5 40.5q22 28 40 70t30.5 89t19 93.5t6.5 82.5zM606 748h-314l16 78h314z" /><glyph glyph-name="omacron" unicode="&#x14d;" horiz-adv-x="546" d="M512 347q06818132t-55114.5t-93.581t-132.530.5q-88 0135 46.5t-47 134.5q0 72 21.5 136t60 112t93 76t120.5 28q87 0 136.545t49.5130zM368 347q0 4516 60.5t-46 15.5q-34 05930.5t-41.573t-24.588t-874.5q037 1754t4617q32 0 57 26.5t41.5 66.5t25 85t8.5 83zM474 590h-294l19 92h294z" /><glyph glyph-name="Obreve" unicode="&#x14e;" horiz-adv-x="694" d="M682 454q06616132t-46124.5t-72.5104.5t-95.571q-693315733q-65 0110 18.5t-73.5 51.5t-41.5 79t-13 100q0 74 16 137t42.5 114t59.5 89.5t67 62.5q15 11 34 22.5t43.5 20.5t55.5 14.5t71 5.5q115 0 175.566.5t60.5183.5zM525 483q0 5123.5 82t-80.5 31q-35 067.516.5t-53.544.5q-21273867t-2984t-18.588t-6.579q067 27.594t80.527q30 0 59.5 11.5t53.5 40.5q22 28 40 70t30.5 89t19 93.5t6.5 82.5zM653 851q-783029t-53.543.5t-6639.5t-67.517q-33 061 17t-50 39.5t-36 43.5t-18 29l52 49q67 18.519.5t30.524.5t4120.5t508.5q22 0 48 9.5t50 21.5t42.5 24t26.5 18z" /><glyph glyph-name="obreve" unicode="&#x14f;" horiz-adv-x="546" d="M512 347q06818132t-55114.5t-93.581t-132.530.5q-88 0135 46.5t-47 134.5q0 72 21.5 136t60 112t93 76t120.5 28q87 0 136.545t49.5130zM368 347q0 4516 60.5t-46 15.5q-34 05930.5t-41.573t-24.588t-874.5q037 1754t4617q32 0 57 26.5t41.5 66.5t25 85t8.5 83zM538 684q-783029t-53.543.5t-6639.5t-67.517q-33 061 17t-50 39.5t-36 43.5t-18 29l52 49q67 18.519.5t30.524.5t4120.5t508.5q22 0 48 9.5t50 21.5t42.5 24t26.5 18z" /><glyph glyph-name="Ohungarumlaut" unicode="&#x150;" horiz-adv-x="694" d="M682 454q06616132t-46124.5t-72.5104.5t-95.571q-693315733q-65 0110 18.5t-73.5 51.5t-41.5 79t-13 100q0 74 16 137t42.5 114t59.5 89.5t67 62.5q15 11 34 22.5t43.5 20.5t55.5 14.5t71 5.5q115 0 175.566.5t60.5183.5zM525 483q0 5123.5 82t-80.5 31q-35 067.516.5t-53.544.5q-21273867t-2984t-18.588t-6.579q067 27.594t80.527q30 0 59.5 11.5t53.5 40.5q22 28 40 70t30.5 89t19 93.5t6.5 82.5zM375 717l-64 45l165 205l9461zM595 720l-54 55l193 185l7876z" /><glyph glyph-name="ohungarumlaut" unicode="&#x151;" horiz-adv-x="546" d="M512 347q06818132t-55114.5t-93.581t-132.530.5q-88 0135 46.5t-47 134.5q0 72 21.5 136t60 112t93 76t120.5 28q87 0 136.545t49.5130zM368 347q0 4516 60.5t-46 15.5q-34 05930.5t-41.573t-24.588t-874.5q037 1754t4617q32 0 57 26.5t41.5 66.5t25 85t8.5 83zM244 554l-70 34l131 229l10246zM441 557l-62 46l162 213l8963z" /><glyph glyph-name="OE" unicode="&#x152;" horiz-adv-x="834" d="M865 581h-237l-34161h198l-24114h-198l-39186h268l-26120h-408q-55 094.5 2t-69 9.5t-52 21.5t-42.5 39q-50 6250 160q0 48 8.5 96t25.5 94t42.5 87.5t58.5 76.5q41 43 90 66.5t100 33.5q20 4 50.5 6.5t78.5 2.5h397zM493 566q-5 226.5 6t-46.5 4q-73 011858q-182432.560t-2576t-1680t-5.570q027 5.550t1839t33.525t529q22 0 41.5 4t24.5 6z" /><glyph glyph-name="oe" unicode="&#x153;" horiz-adv-x="815" d="M803 379q0331662t-4152q-302984.543.5t-117.514.5q-18 034 2t-27 5q-2173.527t-1.519q044 2263t6419q35 0 70.5 14t71.5 40l3484q-523610353t-10517q-104 0152 62q-332773.543t-93.516q-88 0135 49t-47 135q0 72 21.5 136t60 111t93 74.5t120.5 27.5q94 0 14355q36 29 74.5 42.5t85.5 13.5q36 0 67.57t55.523.5t37.544t13.569.5zM368 347q0 4516 60.5t-46 15.5q-34 05930.5t-41.573t-24.588t-874.5q037 1754t4617q32 0 57 26.5t41.5 66.5t25 85t8.5 83zM668 372q0 2312 38t-42 15q-38 06626t-4393q31 14.53t23.52q22 0 44 4t40 12.5t29.5 22t11.5 32.5z" /><glyph glyph-name="Racute" unicode="&#x154;" horiz-adv-x="576" d="M598 543q05116.593t-4473t-63.550.5t-7626.5q96 1716.5t1318.5q713 16.535t2048t2154t19.553t1645t1130h-165l-36 113q-15 4827.5 79.5t-22.5 51t-18.5 29t-17.5 13.5q-8 417 4l-62290h-141l148 695h259q79 0 122.541t43.5111zM448 515q0 3622.5 52t-66.5 16h-69l-40188h43q45 0 69 5t41 19q20 16 32.5 44.5t12.5 51.5zM294 717l-40 75l231 133l48105z" /><glyph glyph-name="racute" unicode="&#x155;" horiz-adv-x="368" d="M365 395q-17 1039 10q-20 04314.5t-5455.5l-71335h-134l72 338q11 48 10.5 82.5t-8.5 59.5l124 49q613 10.537t1.546q34 35 69.5 56.5t73.5 21.5q14 0 232t239zM176 554l-40 75l231 133l48105z" /><glyph glyph-name="Rcommaaccent" unicode="&#x156;" horiz-adv-x="576" d="M598 543q05116.593t-4473t-63.550.5t-7626.5q96 1716.5t1318.5q713 16.535t2048t2154t19.553t1645t1130h-165l-36 113q-15 4827.5 79.5t-22.5 51t-18.5 29t-17.5 13.5q-8 417 4l-62290h-141l148 695h259q79 0 122.541t43.5111zM448 515q0 3622.5 52t-66.5 16h-69l-40188h43q45 0 69 5t41 19q20 16 32.5 44.5t12.5 51.5zM333124q0341863.5t-4852.5q-22174728.5t-5119.5l-31 47q10 3 21.5 8t22 12t17.5 16t9 19q-3 69.5 10.5t-12.5 11t-10.5 16.5t-4.5 27q0 30 22 53.5t64 23.5q35 0 55.524t20.556z" /><glyph glyph-name="rcommaaccent" unicode="&#x157;" horiz-adv-x="368" d="M365 395q-17 1039 10q-20 04314.5t-5455.5l-71335h-134l72 338q11 48 10.5 82.5t-8.5 59.5l124 49q613 10.537t1.546q34 35 69.5 56.5t73.5 21.5q14 0 232t239zM163124q0341863.5t-4852.5q-22174728.5t-5119.5l-31 47q10 3 21.5 8t22 12t17.5 16t9 19q-3 69.5 10.5t-12.5 11t-10.5 16.5t-4.5 27q0 30 22 53.5t64 23.5q35 0 55.524t20.556z" /><glyph glyph-name="Rcaron" unicode="&#x158;" horiz-adv-x="576" d="M598 543q05116.593t-4473t-63.550.5t-7626.5q96 1716.5t1318.5q713 16.535t2048t2154t19.553t1645t1130h-165l-36 113q-15 4827.5 79.5t-22.5 51t-18.5 29t-17.5 13.5q-8 417 4l-62290h-141l148 695h259q79 0 122.541t43.5111zM448 515q0 3622.5 52t-66.5 16h-69l-40188h43q45 0 69 5t41 19q20 16 32.5 44.5t12.5 51.5zM370 718l-156 135l55 73l12376l152 76l3473z" /><glyph glyph-name="rcaron" unicode="&#x159;" horiz-adv-x="368" d="M365 395q-17 1039 10q-20 04314.5t-5455.5l-71335h-134l72 338q11 48 10.5 82.5t-8.5 59.5l124 49q613 10.537t1.546q34 35 69.5 56.5t73.5 21.5q14 0 232t239zM260 554l-156 135l55 73l12376l152 76l3473z" /><glyph glyph-name="Sacute" unicode="&#x15a;" horiz-adv-x="612" d="M550 550q-34 2671.5 37.5t-82.5 11.5q-24 0457t-36.519t-2528t-9.534q021 14.537.5t49.529.5l8030q6725 10264.5t3599.5q05723.5105.5t-6784t-10655.5t-140.520q-74 0129.5 17.5t-99.5 45.5l74 107q4426 85.540t94.514q66 0 105.5 31.5t39.5 83.5q0 2618 43.5t-56 31.5l-73 27q-59 2293 57.5t-34 96.5q0 52 23 97t63.5 77.5t94.5 51t116 18.5q64 0 121.518.5t95.551.5zM328 717l-40 75l231 133l48105z" /><glyph glyph-name="sacute" unicode="&#x15b;" horiz-adv-x="484" d="M416 390q-34 2065 27.5t-60 7.5q-33 054.512.5t-21.540.5q032 5451l5821q197 37.518t32.526t2335t945q0381573t-4661.5t-7742t-10915.5q-57 0106 15.5t-93 41.5l54 98q1511 34.520.5t4116.5t44.511.5t454.5q33 0 56 19t23 45q0 2016.5 30.5t-48.5 21.5l-57 20q-40 1467 45t-27 84q0 33 13 64.5t41.5 56t73 39.5t107.5 15q51 0 9413t7533zM224 554l-40 75l231 133l48105z" /><glyph glyph-name="Scircumflex" unicode="&#x15c;" horiz-adv-x="612" d="M550 550q-34 2671.5 37.5t-82.5 11.5q-24 0457t-36.519t-2528t-9.534q021 14.537.5t49.529.5l8030q6725 10264.5t3599.5q05723.5105.5t-6784t-10655.5t-140.520q-74 0129.5 17.5t-99.5 45.5l74 107q4426 85.540t94.514q66 0 105.5 31.5t39.5 83.5q0 2618 43.5t-56 31.5l-73 27q-59 2293 57.5t-34 96.5q0 52 23 97t63.5 77.5t94.5 51t116 18.5q64 0 121.518.5t95.551.5zM551 715l-123 78l-15178l-36 73l209 135l155135z" /><glyph glyph-name="scircumflex" unicode="&#x15d;" horiz-adv-x="484" d="M416 390q-34 2065 27.5t-60 7.5q-33 054.512.5t-21.540.5q032 5451l5821q197 37.518t32.526t2335t945q0381573t-4661.5t-7742t-10915.5q-57 0106 15.5t-93 41.5l54 98q1511 34.520.5t4116.5t44.511.5t454.5q33 0 56 19t23 45q0 2016.5 30.5t-48.5 21.5l-57 20q-40 1467 45t-27 84q0 33 13 64.5t41.5 56t73 39.5t107.5 15q51 0 9413t7533zM435 552l-123 78l-15178l-36 73l209 135l155135z" /><glyph glyph-name="Scedilla" unicode="&#x15e;" horiz-adv-x="612" d="M550 550q-34 2671.5 37.5t-82.5 11.5q-24 0457t-36.519t-2528t-9.534q021 14.537.5t49.529.5l8030q6725 10264.5t3599.5q05320.598.5t-58.580.5t-92.557t-123.527l-1119q313 43.520.5t12.540.5q021940t-25.534t-4023.5t-53.58.5q-23 046 8t-36 16l41 62q168 26.511t24.53q12 0 21.5 5.5t9.5 16.5q0 1623 16q-8 014.52t-13.54l-9 20l30 61q-63 4111.5 20.5t-87.5 41.5l74 107q4426 85.540t94.514q66 0 105.5 31.5t39.5 83.5q0 2618 43.5t-56 31.5l-73 27q-59 2293 57.5t-34 96.5q0 52 23 97t63.5 77.5t94.5 51t116 18.5q64 0 121.518.5t95.551.5z" /><glyph glyph-name="scedilla" unicode="&#x15f;" horiz-adv-x="484" d="M416 390q-34 2065 27.5t-60 7.5q-33 054.512.5t-21.540.5q032 5451l5821q197 37.518t32.526t2335t945q0371470.5t-42.560t-71.543t-10118.5l-916q313 43.520.5t12.540.5q021940t-25.534t-4023.5t-53.58.5q-23 046 8t-36 16l41 62q2814 5114q12 0 21.5 5.5t9.5 16.5q0 1623 16q-8 014.52t-13.54l-9 20l31 63q-41 678 19.5t-70 33.5l54 98q1511 34.520.5t4116.5t44.511.5t454.5q33 0 56 19t23 45q0 2016.5 30.5t-48.5 21.5l-57 20q-40 1467 45t-27 84q0 33 13 64.5t41.5 56t73 39.5t107.5 15q51 0 9413t7533z" /><glyph glyph-name="Scaron" unicode="&#x160;" horiz-adv-x="612" d="M550 550q-34 2671.5 37.5t-82.5 11.5q-24 0457t-36.519t-2528t-9.534q021 14.537.5t49.529.5l8030q6725 10264.5t3599.5q05723.5105.5t-6784t-10655.5t-140.520q-74 0129.5 17.5t-99.5 45.5l74 107q4426 85.540t94.514q66 0 105.5 31.5t39.5 83.5q0 2618 43.5t-56 31.5l-73 27q-59 2293 57.5t-34 96.5q0 52 23 97t63.5 77.5t94.5 51t116 18.5q64 0 121.518.5t95.551.5zM408 734l-156 135l55 73l12376l152 76l3473z" /><glyph glyph-name="scaron" unicode="&#x161;" horiz-adv-x="484" d="M416 390q-34 2065 27.5t-60 7.5q-33 054.512.5t-21.540.5q032 5451l5821q197 37.518t32.526t2335t945q0381573t-4661.5t-7742t-10915.5q-57 0106 15.5t-93 41.5l54 98q1511 34.520.5t4116.5t44.511.5t454.5q33 0 56 19t23 45q0 2016.5 30.5t-48.5 21.5l-57 20q-40 1467 45t-27 84q0 33 13 64.5t41.5 56t73 39.5t107.5 15q51 0 9413t7533zM291 554l-156 135l55 73l12376l152 76l3473z" /><glyph glyph-name="Tcommaaccent" unicode="&#x162;" horiz-adv-x="501" d="M28193q021940t-25.534t-4023.5t-53.58.5q-23 046 8t-36 16l41 62q147 2510.5t263.5q12 0 21.5 5.5t9.5 16.5q0 1623 16q-8 014.52t-13.54l-9 20l37 75h-38l123 579h-170l25 116h501l-48116h-164l-123579h-34l-1832q313 43.520.5t12.540.5z" /><glyph glyph-name="tcommaaccent" unicode="&#x163;" horiz-adv-x="316" d="M24793q021940t-25.534t-4023.5t-53.58.5q-23 046 8t-36 16l41 62q209 29.511.5t21.52.5t21.5 5.5t9.5 16.5q0 1623 16q-8 014.52t-13.54l-9 20l32 66q-42 863.5 30.5t-21.5 54.5q0 14 1.5 31t5.5 35l59 278h-51l20 92h51q8 38 14 65t17 56l141 34q-11352275.5t-1979.5h119l-4892h-89l-54257q-313424.5t-120.5q021 1129t348q9 0 24 2.5t26 7.5v-81q-40157820l-1322q313 43.520.5t12.540.5z" /><glyph glyph-name="Tcaron" unicode="&#x164;" horiz-adv-x="501" d="M564 579h-164l-123579h-144l123 579h-170l25 116h501zM358 718l-156 135l55 73l12376l152 76l3473z" /><glyph glyph-name="tcaron" unicode="&#x165;" horiz-adv-x="316" d="M335 420h-89l-54257q-313424.5t-120.5q021 1129t348q9 0 24 2.5t26 7.5v-81q-291158.516.5t-55.55.5q-58 089.5 25t-31.5 63q0 14 1.5 31t5.5 35l59 278h-51l20 92h51q8 38 14 65t17 56l141 34q-11352275.5t-1979.5h119zM518 705q0341863.5t-4852.5q-22174728.5t-5119.5l-31 47q10 3 21.5 8t22 12t17.5 16t9 19q-3 69.5 10.5t-12.5 11t-10.5 16.5t-4.5 27q0 30 22 53.5t64 23.5q35 0 55.524t20.556z" /><glyph glyph-name="Tbar" unicode="&#x166;" horiz-adv-x="501" d="M564 579h-164l-35163h110l-1887h-110l-70329h-144l70 329h-109l18 87h109l35 163h-170l25 116h501z" /><glyph glyph-name="tbar" unicode="&#x167;" horiz-adv-x="316" d="M335 420h-89l-25120h118l-4892h-90l-945q-313424.5t-120.5q021 1129t348q9 0 24 2.5t26 7.5v-81q-291158.516.5t-55.55.5q-58 089.5 25t-31.5 63q0 14 1.5 31t5.5 35l14 66h-50l20 92h49l26 120h-51l20 92h51q8 38 14 65t17 56l141 34q-11352275.5t-1979.5h119z" /><glyph glyph-name="Utilde" unicode="&#x168;" horiz-adv-x="644" d="M570 227q-73314.559.5t-1747.5t-23.538t-3432q-161234.523.5t-4320t-56.514t-755.5q-102 0157.5 41t-55.5 109q0 36 8 74l103 484h143l-97457q-5206.535.5t-1.527.5q019 732t1921t2811.5t333.5q48 0 79.5 23.5t43.5 60.5q2 5 3.5 10t3 11t3.5 15t5 23l95 445h142zM606 805q-323162.549t-75.518q-20 034 6t-27 13.5t-27.5 14t-33.5 6.5q-24 04010t-3527l-33 75q32 31 61.5 48.5t68.5 17.5q21 0 35.56.5t28.514t2913.5t376q24 0 39.5 9t35.5 26z" /><glyph glyph-name="utilde" unicode="&#x169;" horiz-adv-x="547" d="M447 133q-5262.556t13.548l-11646q-9 1415.5 32t-8.5 36q-29266645t-8219q-60 092.5 28t-32.5 76q0 14 2 33.5t8 47.5l69 328l138 25l-70329q-5207.539t-2.530q017 1028t2211q15 0 31.5 7.5t31.5 18.5t27 24.5t20 25.5l71 333l135 27zM527 645q-323162.549t-75.518q-20 034 6t-27 13.5t-27.5 14t-33.5 6.5q-24 04010t-3527l-33 75q32 31 61.5 48.5t68.5 17.5q21 0 35.56.5t28.514t2913.5t376q24 0 39.5 9t35.5 26z" /><glyph glyph-name="Umacron" unicode="&#x16a;" horiz-adv-x="644" d="M570 227q-73314.559.5t-1747.5t-23.538t-3432q-161234.523.5t-4320t-56.514t-755.5q-102 0157.5 41t-55.5 109q0 36 8 74l103 484h143l-97457q-5206.535.5t-1.527.5q019 732t1921t2811.5t333.5q48 0 79.5 23.5t43.5 60.5q2 5 3.5 10t3 11t3.5 15t5 23l95 445h142zM585 748h-314l16 78h314z" /><glyph glyph-name="umacron" unicode="&#x16b;" horiz-adv-x="547" d="M447 133q-5262.556t13.548l-11646q-9 1415.5 32t-8.5 36q-29266645t-8219q-60 092.5 28t-32.5 76q0 14 2 33.5t8 47.5l69 328l138 25l-70329q-5207.539t-2.530q017 1028t2211q15 0 31.5 7.5t31.5 18.5t27 24.5t20 25.5l71 333l135 27zM490 622h-294l19 92h294z" /><glyph glyph-name="Ubreve" unicode="&#x16c;" horiz-adv-x="644" d="M570 227q-73314.559.5t-1747.5t-23.538t-3432q-161234.523.5t-4320t-56.514t-755.5q-102 0157.5 41t-55.5 109q0 36 8 74l103 484h143l-97457q-5206.535.5t-1.527.5q019 732t1921t2811.5t333.5q48 0 79.5 23.5t43.5 60.5q2 5 3.5 10t3 11t3.5 15t5 23l95 445h142zM626 851q-783029t-53.543.5t-6639.5t-67.517q-33 061 17t-50 39.5t-36 43.5t-18 29l52 49q67 18.519.5t30.524.5t4120.5t508.5q22 0 48 9.5t50 21.5t42.5 24t26.5 18z" /><glyph glyph-name="ubreve" unicode="&#x16d;" horiz-adv-x="547" d="M447 133q-5262.556t13.548l-11646q-9 1415.5 32t-8.5 36q-29266645t-8219q-60 092.5 28t-32.5 76q0 14 2 33.5t8 47.5l69 328l138 25l-70329q-5207.539t-2.530q017 1028t2211q15 0 31.5 7.5t31.5 18.5t27 24.5t20 25.5l71 333l135 27zM551 684q-783029t-53.543.5t-6639.5t-67.517q-33 061 17t-50 39.5t-36 43.5t-18 29l52 49q67 18.519.5t30.524.5t4120.5t508.5q22 0 48 9.5t50 21.5t42.5 24t26.5 18z" /><glyph glyph-name="Uring" unicode="&#x16e;" horiz-adv-x="644" d="M570 227q-73314.559.5t-1747.5t-23.538t-3432q-161234.523.5t-4320t-56.514t-755.5q-102 0157.5 41t-55.5 109q0 36 8 74l103 484h143l-97457q-5206.535.5t-1.527.5q019 732t1921t2811.5t333.5q48 0 79.5 23.5t43.5 60.5q2 5 3.5 10t3 11t3.5 15t5 23l95 445h142zM534 819q0228.541t-2333.5t-33.523t-418.5q-21 040 8.5t-33.5 23t-22.5 33.5t-8 41t8.5 41t23 33.5t34 23t40.5 8.5t408.5t33.523t22.533.5t841zM471 819q0 1812 30.5t-29 12.5q-19 031.512.5t-12.530.5t12.530.5t29.512.5q18 0 30.5 12.5t12.5 30.5z" /><glyph glyph-name="uring" unicode="&#x16f;" horiz-adv-x="547" d="M447 133q-5262.556t13.548l-11646q-9 1415.5 32t-8.5 36q-29266645t-8219q-60 092.5 28t-32.5 76q0 14 2 33.5t8 47.5l69 328l138 25l-70329q-5207.539t-2.530q017 1028t2211q15 0 31.5 7.5t31.5 18.5t27 24.5t20 25.5l71 333l135 27zM458 659q0228.541t-2333.5t-33.523t-418.5q-21 040 8.5t-33.5 23t-22.5 33.5t-8 41t8.5 41t23 33.5t34 23t40.5 8.5t408.5t33.523t22.533.5t841zM395 659q0 1812 30.5t-29 12.5q-19 031.512.5t-12.530.5t12.530.5t29.512.5q18 0 30.5 12.5t12.5 30.5z" /><glyph glyph-name="Uhungarumlaut" unicode="&#x170;" horiz-adv-x="644" d="M570 227q-73314.559.5t-1747.5t-23.538t-3432q-161234.523.5t-4320t-56.514t-755.5q-102 0157.5 41t-55.5 109q0 36 8 74l103 484h143l-97457q-5206.535.5t-1.527.5q019 732t1921t2811.5t333.5q48 0 79.5 23.5t43.5 60.5q2 5 3.5 10t3 11t3.5 15t5 23l95 445h142zM315 717l-64 45l165 205l9461zM535 720l-54 55l193 185l7876z" /><glyph glyph-name="uhungarumlaut" unicode="&#x171;" horiz-adv-x="547" d="M447 133q-5262.556t13.548l-11646q-9 1415.5 32t-8.5 36q-29266645t-8219q-60 092.5 28t-32.5 76q0 14 2 33.5t8 47.5l69 328l138 25l-70329q-5207.539t-2.530q017 1028t2211q15 0 31.5 7.5t31.5 18.5t27 24.5t20 25.5l71 333l135 27zM255 554l-70 34l131 229l10246zM452 557l-62 46l162 213l8963z" /><glyph glyph-name="Uogonek" unicode="&#x172;" horiz-adv-x="644" d="M570 227q-73314.559.5t-1747.5t-23.538t-3432q-161228.520t-25.514t-27.510.5t-33.59.5q-14429.512.5t-28.521t-2127.5t-831q011 618t207t26.5 3.5t29.5 11.5l1467q-28115619t-628q-41 062.5 19t-21.5 51q0 34 17 63t46 55q-85 8131 47.5t-46 101.5q0 36 8 74l103 484h143l-97457q-5206.535.5t-1.527.5q019 732t1921t2811.5t333.5q48 0 79.5 23.5t43.5 60.5q2 5 3.5 10t3 11t3.5 15t5 23l95 445h142z" /><glyph glyph-name="uogonek" unicode="&#x173;" horiz-adv-x="547" d="M447 133q-29318t-119q037 1361q-9529.518t-41.531t-36.539.5t-15.542.5q011 618t207t26.5 3.5t29.5 11.5l1467q-28115619t-628q-40 062.5 18.5t-22.5 50.5q0 42 28.5 79.5t71.5 66.5q-7 208 36q-29266645t-8219q-60 092.5 28t-32.5 76q0 14 2 33.5t8 47.5l69 328l138 25l-70329q-5207.539t-2.530q017 1028t2211q15 0 31.5 7.5t31.5 18.5t27 24.5t20 25.5l71 333l135 27z" /><glyph glyph-name="Wcircumflex" unicode="&#x174;" horiz-adv-x="822" d="M6064h-153l-2 281q0 35 0.5 64.5t2.5 55.5t4.5 51.5t5.5 51.5q-491131q-8231954t-24.566.5t-27.569.5l-118283h-156l-17 699h145l1274q0441.582.5t-3.569.5t-3.552t-2.529q14 44 34.5 102t49.5 124l122 281h151l-2311q023151.5t-2.556t-3.549.5q-120229q3 9 11 32q9 27 22 61.5t27.5 72t27.5 67.5l113 264h150zM648 715l-123 78l-15178l-36 73l209 135l155135z" /><glyph glyph-name="wcircumflex" unicode="&#x175;" horiz-adv-x="699" d="M501 0h-123l-9 176q-2 312.5 64.5t0.5 59.5q1 18 1 27t2 24q-38514.5t-513t-6.515.5t-9.523q-7171840t-22.548.5t-2349.5t-19.542l-48105h-125l-33 503l134 15v-197q022148t-1.549.5t-1.540.5q-115118q1 4 7 19q7 17 17 41.5t23 54.5t28 60l85 172h126l5169q132 162v-54q024141.5t-123.5q3 8 9.5 26t15 41.5t18.5 49.5t21 50l78 183h140zM552 552l-123 78l-15178l-36 73l209 135l155135z" /><glyph glyph-name="Ycircumflex" unicode="&#x176;" horiz-adv-x="554" d="M356 286l-61286h-146l61 286l-129 409h162l48190q829 1149t540q10 15 24.5 38.5t31.5 48.5l131 192h171zM516 715l-123 78l-15178l-36 73l209 135l155135z" /><glyph glyph-name="ycircumflex" unicode="&#x177;" horiz-adv-x="514" d="M2788q-213738.564.5t-33.547t-3133.5t-3124q-291963.530.5t-70.516.5l-27 90q23 5 48 13t42 19q15 9 26.5 18.5t21.5 21.5t19.5 27t21.5 35h-37q-1 142 32t-3 37.5t-4 38.5t-4 36l-46 360l138 16l25299q111 1.526.5t131.5t129t0.519q3 7 9.5 23.5t16 38.5t21 46t22.5 45l129 244h144zM454 552l-123 78l-15178l-36 73l209 135l155135z" /><glyph glyph-name="Ydieresis" unicode="&#x178;" horiz-adv-x="554" d="M356 286l-61286h-146l61 286l-129 409h162l48190q829 1149t540q10 15 24.5 38.5t31.5 48.5l131 192h171zM345 800q03222.554.5t-54.522.5q-31 053.5 22.5t-22.5 54.5t23 54.5t55 22.5q31 0 5322.5t2254.5zM555 800q03222.554.5t-54.522.5q-31 053.5 22.5t-22.5 54.5t23 54.5t55 22.5q31 0 5322.5t2254.5z" /><glyph glyph-name="Zacute" unicode="&#x179;" d="M576 594l-346435q-141726.529.5t-16.515.5q6 0 26.5 1t39.5 1h228l-48116h-444l21 98l342 423q17 21 33 38.5t21 22.5q-5123.52t-46.51h-207l45 116h424zM301 717l-40 75l231 133l48105z" /><glyph glyph-name="zacute" unicode="&#x17a;" horiz-adv-x="426" d="M441 420l-295327h226l-4293h-377l8 83l313 335h-214l14 94h379zM180 554l-40 75l231 133l48105z" /><glyph glyph-name="Zdotaccent" unicode="&#x17b;" d="M576 594l-346435q-141726.529.5t-16.515.5q6 0 26.5 1t39.5 1h228l-48116h-444l21 98l342 423q17 21 33 38.5t21 22.5q-5123.52t-46.51h-207l45 116h424zM472 806q0352459t-5924q-34 058 24t-24 59t24.5 59t59.5 24q34 0 57.524t23.559z" /><glyph glyph-name="zdotaccent" unicode="&#x17c;" horiz-adv-x="426" d="M441 420l-295327h226l-4293h-377l8 83l313 335h-214l14 94h379zM353 642q0352459t-5924q-34 058 24t-24 59t24.5 59t59.5 24q34 0 57.524t23.559z" /><glyph glyph-name="Zcaron" unicode="&#x17d;" d="M576 594l-346435q-141726.529.5t-16.515.5q6 0 26.5 1t39.5 1h228l-48116h-444l21 98l342 423q17 21 33 38.5t21 22.5q-5123.52t-46.51h-207l45 116h424zM386 734l-156 135l55 73l12376l152 76l3473z" /><glyph glyph-name="zcaron" unicode="&#x17e;" horiz-adv-x="426" d="M441 420l-295327h226l-4293h-377l8 83l313 335h-214l14 94h379zM263 554l-156 135l55 73l12376l152 76l3473z" /><glyph glyph-name="longs" unicode="&#x17f;" horiz-adv-x="427" d="M393 742q38 0 739t6123l-8088q-15 829.5 12t-33.5 4q-20 0355t-2719t-21.539t-18.565l-109510q-8362269t-31.561.5t-3852.5t-39.541l-82 74q10 10 22 27.5t23 37.5t19.5 42t13.5 43l89 420h-77l19 92h77l7 33q21 100 78.5 148.5t161.5 48.5z" /><glyph glyph-name="uni018F" unicode="&#x18f;" horiz-adv-x="632" d="M24 170q0 47 22.5 89t65 73.5t105.5 50t144 18.5q13 0 27.51t27.52.5t22.53.5t13.53q4 17 6.5 40.5t2.5 40.5q0 6530.5 94.5t-81.5 29.5t-10022t-10053l-39 98q39 25 73 41.5t65.5 26.5t62 13.5t61.5 3.5q123 0 185.562t62.5185q0471099t-29.5102.5t-4796t-61.578.5q-4950104.571t-120.521q-49 090 10t-70.5 31.5t-46 56t-16.5 83.5zM183 184q038 18.563t66.525q51 0 94 43t67 148q-10 330 4.5t-37 1.5q-31 0636t-57.519t-4234t-16.550z" /><glyph glyph-name="florin" unicode="&#x192;" horiz-adv-x="405" d="M443 628q-13 826 11.5t-25 3.5q-23 042.515t-27.543l-2073h118l-5294h-86l-105384q-176334102.5t-38.566t-51.545t-7339.5l-45 89q26 13 44 26.5t31 29.5t22 36.5t17 47.5l111 408h-48l20 94h52q1 7 4 17.5t5.5 21t5 19t3.5 12.5q20 78 66 118.5t129 40.5q30 0 5710t4422z" /><glyph glyph-name="uni01B5" unicode="&#x1b5;" d="M576 594l-151189h74l-23109h-137l-109137q-141726.529.5t-16.515.5q6 0 26.5 1t39.5 1h228l-48116h-444l21 98l160 198h-74l23 109h139l94 116q17 21 33 38.5t21 22.5q-5123.52t-46.51h-207l45 116h424z" /><glyph glyph-name="uni01B6" unicode="&#x1b6;" horiz-adv-x="426" d="M441 420l-103114h45l-1887h-106l-113126h226l-4293h-377l8 83l127 136h-44l18 87h107l105 112h-214l14 94h379z" /><glyph glyph-name="uni01C4" unicode="&#x1c4;" horiz-adv-x="1168" d="M617 458q043890.5t-23.595t-39.591t-5677.5q-272955.549t-62.532t-77.517.5t-100.55.5h-169l148 695h160q87 0 142.513.5t88.554.5q2431 38.569t14.5100zM466 460q0 244.5 46.5t-16.5 40t-33.5 28t-56.5 10.5h-63l-100471h69q45 0 78 21.5t52 50.5q23 36 37.5 78.5t23 81t11.5 69.5t3 45zM1204 594l-346435q-141726.529.5t-16.515.5q6 0 26.5 1t39.5 1h228l-48116h-444l21 98l342 423q17 21 33 38.5t21 22.5q-5123.52t-46.51h-207l45 116h424zM1014 734l-156 135l55 73l12376l152 76l3473z" /><glyph glyph-name="uni01C5" unicode="&#x1c5;" horiz-adv-x="1054" d="M617 458q043890.5t-23.595t-39.591t-5677.5q-272955.549t-62.532t-77.517.5t-100.55.5h-169l148 695h160q87 0 142.513.5t88.554.5q2431 38.569t14.5100zM466 460q0 244.5 46.5t-16.5 40t-33.5 28t-56.5 10.5h-63l-100471h69q45 0 78 21.5t52 50.5q23 36 37.5 78.5t23 81t11.5 69.5t3 45zM1069 420l-295327h226l-4293h-377l8 83l313 335h-214l14 94h379zM891 554l-156 135l55 73l12376l152 76l3473z" /><glyph glyph-name="uni01C6" unicode="&#x1c6;" horiz-adv-x="975" d="M464 187q-146519102t-557q019 328h-115q-2 64 21t-1 26q-24285944t-7016q-81 0119 45t-38 135q0 38 7.5 77t21.5 76t35 70t48 59q35 33 77.5 51.5t87.5 18.5q28 0 53.55t33.59q1 6 3 21t7 38l37 176l12921zM374 392q-20 2065 20q-39 07040q-141925.544.5t-19.553t-12.555.5t-4.552q074 5274q11 0 25 6.5t27.5 17t24.5 22t17 22.5zM812 554l-156 135l55 73l12376l152 76l3473zM990 420l-295327h226l-4293h-377l8 83l313 335h-214l14 94h379z" /><glyph glyph-name="uni01C7" unicode="&#x1c7;" horiz-adv-x="769" d="M392 0h-367l148 695h143l-123579h249zM671 135q-7341255.5t-9.536t-8.524.5t-920q-14323858.5t-51.547.5t-5736t-54.524l-49 75q31 17 58 40t41 44q6 9 11.5 20t10 25.5t9.5 34.5t11 48l122 575h145z" /><glyph glyph-name="uni01C8" unicode="&#x1c8;" horiz-adv-x="740" d="M392 0h-367l148 695h143l-123579h249zM624 14q-8361762.5t-18.545t-18.530.5t-1821q-454712075l-42 78q17 7 34.5 23.5t28.5 30.5q13 17 21 39.5t16 58.5l105 493l137 21zM776 653q0352459t-5924q-34 058 24t-24 59t24.5 59t59.5 24q34 0 57.524t23.559z" /><glyph glyph-name="uni01C9" unicode="&#x1c9;" horiz-adv-x="550" d="M290 746q16 1.516t0.523q0252.556.5t-9.563.5l-81379q-104513.566.5t-3.532.5q029 2629q10 0 15 2l680q-37148314q-54 080 26t-26 66q0 14 4.5 39.5t10.5 53.5l81 382q8 35 12 62.5t4 49.5q0 214 36zM434 14q-8361762.5t-18.545t-18.530.5t-1821q-454712075l-42 78q17 7 34.5 23.5t28.5 30.5q13 17 21 39.5t16 58.5l105 493l137 21zM586 653q0352459t-5924q-34 058 24t-24 59t24.5 59t59.5 24q34 0 57.524t23.559z" /><glyph glyph-name="uni01CA" unicode="&#x1ca;" horiz-adv-x="932" d="M508 0h-144l-62 266q-8 3315.5 67t-14.5 64.5t-12 56.5q-5 246 40q-321745q-4268.552.5t-1052t-9.547.5l-59297h-135l148 695h153l74278q1556 24109t1291q2 20 5.5 46.5t7.5 53.5t8 51.5t8 42.5l58 284h133zM834 135q-7341255.5t-9.536t-8.524.5t-920q-14323858.5t-51.547.5t-5736t-54.524l-49 75q31 17 58 40t41 44q6 9 11.5 20t10 25.5t9.5 34.5t11 48l122 575h145z" /><glyph glyph-name="uni01CB" unicode="&#x1cb;" horiz-adv-x="903" d="M508 0h-144l-62 266q-8 3315.5 67t-14.5 64.5t-12 56.5q-5 246 40q-321745q-4268.552.5t-1052t-9.547.5l-59297h-135l148 695h153l74278q1556 24109t1291q2 20 5.5 46.5t7.5 53.5t8 51.5t8 42.5l58 284h133zM787 14q-8361762.5t-18.545t-18.530.5t-1821q-454712075l-42 78q17 7 34.5 23.5t28.5 30.5q13 17 21 39.5t16 58.5l105 493l137 21zM939 653q0352459t-5924q-34 058 24t-24 59t24.5 59t59.5 24q34 0 57.524t23.559z" /><glyph glyph-name="uni01CC" unicode="&#x1cc;" horiz-adv-x="819" d="M511 422q017236t-636l-74350h-132l71 333q3 15 5 26.5t2 19.5q0 198.5 25.5t-26.5 6.5q-24 05217t-6060l-71334h-132l73 345q9 40 9 74t-9 61l124 49q36 617t4.523t2.523.5t019.5q32 35 74 56t99 21q49 0 7627t2774zM703 14q-8361762.5t-18.545t-18.530.5t-1821q-454712075l-42 78q17 7 34.5 23.5t28.5 30.5q13 17 21 39.5t16 58.5l105 493l137 21zM855 653q0352459t-5924q-34 058 24t-24 59t24.5 59t59.5 24q34 0 57.524t23.559z" /><glyph glyph-name="uni01F1" unicode="&#x1f1;" horiz-adv-x="1168" d="M617 458q043890.5t-23.595t-39.591t-5677.5q-272955.549t-62.532t-77.517.5t-100.55.5h-169l148 695h160q87 0 142.513.5t88.554.5q2431 38.569t14.5100zM466 460q0 244.5 46.5t-16.5 40t-33.5 28t-56.5 10.5h-63l-100471h69q45 0 78 21.5t52 50.5q23 36 37.5 78.5t23 81t11.5 69.5t3 45zM1204 594l-346435q-141726.529.5t-16.515.5q6 0 26.5 1t39.5 1h228l-48116h-444l21 98l342 423q17 21 33 38.5t21 22.5q-5123.52t-46.51h-207l45 116h424z" /><glyph glyph-name="uni01F2" unicode="&#x1f2;" horiz-adv-x="1054" d="M617 458q043890.5t-23.595t-39.591t-5677.5q-272955.549t-62.532t-77.517.5t-100.55.5h-169l148 695h160q87 0 142.513.5t88.554.5q2431 38.569t14.5100zM466 460q0 244.5 46.5t-16.5 40t-33.5 28t-56.5 10.5h-63l-100471h69q45 0 78 21.5t52 50.5q23 36 37.5 78.5t23 81t11.5 69.5t3 45zM1069 420l-295327h226l-4293h-377l8 83l313 335h-214l14 94h379z" /><glyph glyph-name="uni01F3" unicode="&#x1f3;" horiz-adv-x="975" d="M464 187q-146519102t-557q019 328h-115q-2 64 21t-1 26q-24285944t-7016q-81 0119 45t-38 135q0 38 7.5 77t21.5 76t35 70t48 59q35 33 77.5 51.5t87.5 18.5q28 0 53.55t33.59q1 6 3 21t7 38l37 176l12921zM374 392q-20 2065 20q-39 07040q-141925.544.5t-19.553t-12.555.5t-4.552q074 5274q11 0 25 6.5t27.5 17t24.5 22t17 22.5zM990 420l-295327h226l-4293h-377l8 83l313 335h-214l14 94h379z" /><glyph glyph-name="Aringacute" unicode="&#x1fa;" horiz-adv-x="588" d="M398 0l-14 165h-204l-84165h-151l376 697h151l71697h-145zM365 426q-3 403 74v44q-369.521.5t-15.535t-18.540.5t-17.537l-62129h136zM505 819q0228.541t-2333.5t-33.523t-418.5q-21 040 8.5t-33.5 23t-22.5 33.5t-8 41t8.5 41t23 33.5t34 23t40.5 8.5t408.5t33.523t22.533.5t841zM442 819q0 1812 30.5t-29 12.5q-19 031.512.5t-12.530.5t12.530.5t29.512.5q18 0 30.5 12.5t12.5 30.5zM331 925l-40 75l231 133l48105z" /><glyph glyph-name="aringacute" unicode="&#x1fb;" d="M519 487q-4128.527.5t-932.5t-8.534t-732l-41194q-419438q036 2362l-11183q-18 1227 30t-12 33q-293061.545.5t-74.515.5q-70 0105.5 41.5t-35.5 121.5q0 93 31 170t77 123q42 42 91 61t113 19q45 0 91.58t78.527zM367 410q-5 316 5.5t-20 2.5q-12 023.51t-22.55.5t-2313t-2524.5q-161927.546t-19.557t-1260.5t-455.5q035 9.550.5t31.515.5q16 0 31.5 7.5t28.5 19t23.5 25.5t15.5 28zM469 659q0228.541t-2333.5t-33.523t-418.5q-21 040 8.5t-33.5 23t-22.5 33.5t-8 41t8.5 41t23 33.5t34 23t40.5 8.5t408.5t33.523t22.533.5t841zM406 659q0 1812 30.5t-29 12.5q-19 031.512.5t-12.530.5t12.530.5t29.512.5q18 0 30.5 12.5t12.5 30.5zM279 765l-40 75l231 133l48105z" /><glyph glyph-name="AEacute" unicode="&#x1fc;" horiz-adv-x="789" d="M820 581h-232l-34161h199l-24114h-197l-39186h267l-26120h-409l35 165h-185l-128165h-162l562 695h416zM385 281l51 228q-2212.516.5t-26.536t-35.547.5t-3850.5t-3445.5t-24.532h120zM545 717l-40 75l231 133l48105z" /><glyph glyph-name="aeacute" unicode="&#x1fd;" horiz-adv-x="784" d="M772 379q0331662t-4152q-302984.543.5t-117.514.5q-23 040 1.5t-21 2.5q-15319.5t-223.5q044 2263t6419q35 0 70.5 14t71.5 40l3484q-523610353t-10517q-108 0157 67q-33377854.5t-9317.5q-36 063.5 10t-46 27.5t-28 41t-9.5 49.5q0 46 19.5 84.5t56.5 66t90.5 42.5t121.5 15h13q6 0 171l5 21q5 22 5 40q0 2011.5 28t-37.5 8q-66 016055l-39 93q23 13 52 26t60.5 23.5t64.5 16.5t63 6q40 0 6913.5t4830.5q30 21 63 32.5t72 11.5q36 0 67.57.5t55.524.5t37.544.5t13.567.5zM310 224q-75 0105.523.5t-30.574.5q020 1233.5t3413.5q20 0 39.5 8.5t32.5 25.5q4 5 8.5 20t9 33t8 34.5t5.5 23.5h-13zM637 372q0 2312 38t-42 15q-38 066.527t-42.595q3 0 14.51t23.51q22 0 44 4t40 12.5t29.5 22t11.5 32.5zM363 554l-40 75l231 133l48105z" /><glyph glyph-name="Oslashacute" unicode="&#x1fe;" horiz-adv-x="693" d="M637 616q4464 44162q06616.5132t-46.5124.5t-72.5105t-94.571.5q-35177424.5t-837.5q-45 080.5 9t-61.5 26l-96116l-58 49l99 121q-21 3230.5 72t-9.5 88q0 74 16 137t41.5 114t58 89.5t66.5 62.5q15 11 34.5 22.5t44 20.5t56 14.5t71.5 5.5q82 0 13735l86 104l5948zM499 567q-13 1432 21.5t-47 7.5q-35 067.516.5t-53.544.5q-21273867t-2984t-18.588t-6.579v-6zM234 124q1415 3421.5t476.5q30 0 59.5 11.5t53.5 40.5q22 27 39.5 68.5t30 87.5t19.5 92t7 82zM435 717l-40 75l231 133l48105z" /><glyph glyph-name="oslashacute" unicode="&#x1ff;" horiz-adv-x="546" d="M480 456q3243 32109q06818132t-55114.5t-93.581t-132.530.5q-56 098 22l-8098l-49 42l81 97q-36 4736 121q0 72 21.5 136t60 111t93 74.5t120.5 27.5q63 0 10524l82 100l5041zM354 404q-14 1948 19q-30 05325.5t-39.562.5t-26.579t-1375zM190 103q1617 4617q29 0 52 22t39.5 56t26.5 75t13 78zM255 554l-40 75l231 133l48105z" /><glyph glyph-name="Scommaaccent" unicode="&#x218;" horiz-adv-x="612" d="M550 550q-34 2671.5 37.5t-82.5 11.5q-24 0457t-36.519t-2528t-9.534q021 14.537.5t49.529.5l8030q6725 10264.5t3599.5q05723.5105.5t-6784t-10655.5t-140.520q-74 0129.5 17.5t-99.5 45.5l74 107q4426 85.540t94.514q66 0 105.5 31.5t39.5 83.5q0 2618 43.5t-56 31.5l-73 27q-59 2293 57.5t-34 96.5q0 52 23 97t63.5 77.5t94.5 51t116 18.5q64 0 121.518.5t95.551.5zM312124q0341863.5t-4852.5q-22174728.5t-5119.5l-31 47q10 3 21.5 8t22 12t17.5 16t9 19q-3 69.5 10.5t-12.5 11t-10.5 16.5t-4.5 27q0 30 22 53.5t64 23.5q35 0 55.524t20.556z" /><glyph glyph-name="scommaaccent" unicode="&#x219;" horiz-adv-x="484" d="M416 390q-34 2065 27.5t-60 7.5q-33 054.512.5t-21.540.5q032 5451l5821q197 37.518t32.526t2335t945q0381573t-4661.5t-7742t-10915.5q-57 0106 15.5t-93 41.5l54 98q1511 34.520.5t4116.5t44.511.5t454.5q33 0 56 19t23 45q0 2016.5 30.5t-48.5 21.5l-57 20q-40 1467 45t-27 84q0 33 13 64.5t41.5 56t73 39.5t107.5 15q51 0 9413t7533zM256124q0341863.5t-4852.5q-22174728.5t-5119.5l-31 47q10 3 21.5 8t22 12t17.5 16t9 19q-3 69.5 10.5t-12.5 11t-10.5 16.5t-4.5 27q0 30 22 53.5t64 23.5q35 0 55.524t20.556z" /><glyph glyph-name="uni021A" unicode="&#x21a;" horiz-adv-x="501" d="M564 579h-164l-123579h-144l123 579h-170l25 116h501zM277124q0341863.5t-4852.5q-22174728.5t-5119.5l-31 47q10 3 21.5 8t22 12t17.5 16t9 19q-3 69.5 10.5t-12.5 11t-10.5 16.5t-4.5 27q0 30 22 53.5t64 23.5q35 0 55.524t20.556z" /><glyph glyph-name="uni021B" unicode="&#x21b;" horiz-adv-x="316" d="M335 420h-89l-54257q-313424.5t-120.5q021 1129t348q9 0 24 2.5t26 7.5v-81q-291158.516.5t-55.55.5q-58 089.5 25t-31.5 63q0 14 1.5 31t5.5 35l59 278h-51l20 92h51q8 38 14 65t17 56l141 34q-11352275.5t-1979.5h119zM211124q0341863.5t-4852.5q-22174728.5t-5119.5l-31 47q10 3 21.5 8t22 12t17.5 16t9 19q-3 69.5 10.5t-12.5 11t-10.5 16.5t-4.5 27q0 30 22 53.5t64 23.5q35 0 55.524t20.556z" /><glyph glyph-name="uni0237" unicode="&#x237;" horiz-adv-x="268" d="M152 14q-8361762.5t-18.545t-18.530.5t-1821q-454712075l-42 78q17 7 34.5 23.5t28.5 30.5q13 17 21 39.5t16 58.5l105 493l137 21z" /><glyph glyph-name="uni0259" unicode="&#x259;" horiz-adv-x="516" d="M13 126q0 36 16.5 68t49 56t81 38t112.5 14q22 0 392.5t224.5q2 8 3.5 23t1.5 23q0 4422 63t-64 19q-35 070.514t-71.540l-34 84q52 36 103 53t105 17q92 0 14347t51141q0408.579.5t-23.576t-36.568.5t-46.557q-383781.552.5t-94.515.5q-38 070 8t-55 24.5t-36 43t-13 64.5zM148 137q023 1238t4215q38 0 66 26t43 93q-3 114.5 3t-23.5 2q-22 0444t-4012.5t-29.522t-11.532.5z" /><glyph glyph-name="uni02BB" unicode="&#x2bb;" horiz-adv-x="270" d="M327 660q-331257.527t-24.531q019 1427q2012 2731.5t743.5q03625.561t-61.525q-44 071 27.5t-27 80.5q0 33 16.5 64.5t42.5 58t58 45.5t64 27z" /><glyph glyph-name="afii57929" unicode="&#x2bc;" horiz-adv-x="270" d="M304 603q03316.564.5t-42.558t-58.545.5t-63.527l-38 57q33 12 57.5 27t24.5 31q0 1914 27q-20 1227 31.5t-7 43.5q0 36 25.5 61t61.5 25q44 0 7127.5t2780.5z" /><glyph glyph-name="circumflex" unicode="&#x2c6;" horiz-adv-x="374" d="M394 552l-123 78l-15178l-36 73l209 135l155135z" /><glyph glyph-name="caron" unicode="&#x2c7;" horiz-adv-x="374" d="M259 554l-156 135l55 73l12376l152 76l3473z" /><glyph glyph-name="breve" unicode="&#x2d8;" horiz-adv-x="350" d="M442 693q-6726.526t-4838.5t-5935t-60.515.5t-54.5 15.5t-44.5 35t-31.5 38.5t-16.5 26l46 44q56 16.517t27.521.5t36.518.5t44.58q20 0 43.5 8.5t44.5 19.5t37.5 21.5t23.5 15.5z" /><glyph glyph-name="dotaccent" unicode="&#x2d9;" horiz-adv-x="177" d="M260 653q0352459t-5924q-34 058 24t-24 59t24.5 59t59.5 24q34 0 57.524t23.559z" /><glyph glyph-name="ring" unicode="&#x2da;" horiz-adv-x="224" d="M307 659q0228.541t-2333.5t-33.523t-418.5q-21 040 8.5t-33.5 23t-22.5 33.5t-8 41t8.5 41t23 33.5t34 23t40.5 8.5t408.5t33.523t22.533.5t841zM244 659q0 1812 30.5t-29 12.5q-19 031.512.5t-12.530.5t12.530.5t29.512.5q18 0 30.5 12.5t12.5 30.5z" /><glyph glyph-name="ogonek" unicode="&#x2db;" horiz-adv-x="227" d="M124175q-1784316t-498q-46 069.5 20t-23.5 50q0 21 8.5 42.5t23 41.5t33.5 38.5t40 32.5l6240q-11923.519.5t-23.523t-18.526t-7.527.5q06 511.5t145.5q17 0 29.5 5t25.5 10z" /><glyph glyph-name="tilde" unicode="&#x2dc;" horiz-adv-x="374" d="M459 645q-323162.549t-75.518q-20 034 6t-27 13.5t-27.5 14t-33.5 6.5q-24 04010t-3527l-33 75q32 31 61.5 48.5t68.5 17.5q21 0 35.56.5t28.514t2913.5t376q24 0 39.5 9t35.5 26z" /><glyph glyph-name="hungarumlaut" unicode="&#x2dd;" horiz-adv-x="433" d="M139 524l-70 34l131 229l10246zM336 527l-62 46l162 213l8963z" /><glyph glyph-name="gravecomb" unicode="&#x300;" horiz-adv-x="1" d="M405 557l-216 100l66 106l196134z" /><glyph glyph-name="acutecomb" unicode="&#x301;" horiz-adv-x="1" d="M156 554l-40 75l231 133l48105z" /><glyph glyph-name="uni0302" unicode="&#x302;" horiz-adv-x="1" d="M394 552l-123 78l-15178l-36 73l209 135l155135z" /><glyph glyph-name="tildecomb" unicode="&#x303;" horiz-adv-x="1" d="M459 645q-323162.549t-75.518q-20 034 6t-27 13.5t-27.5 14t-33.5 6.5q-24 04010t-3527l-33 75q32 31 61.5 48.5t68.5 17.5q21 0 35.56.5t28.514t2913.5t376q24 0 39.5 9t35.5 26z" /><glyph glyph-name="uni0304" unicode="&#x304;" horiz-adv-x="1" d="M365 590h-294l19 92h294z" /><glyph glyph-name="uni0306" unicode="&#x306;" horiz-adv-x="1" d="M463 684q-783029t-53.543.5t-6639.5t-67.517q-33 061 17t-50 39.5t-36 43.5t-18 29l52 49q67 18.519.5t30.524.5t4120.5t508.5q22 0 48 9.5t50 21.5t42.5 24t26.5 18z" /><glyph glyph-name="uni0307" unicode="&#x307;" horiz-adv-x="1" d="M260 653q0352459t-5924q-34 058 24t-24 59t24.5 59t59.5 24q34 0 57.524t23.559z" /><glyph glyph-name="uni0308" unicode="&#x308;" horiz-adv-x="1" d="M521 635q03222.554.5t-54.522.5t-54 22.5t-22 54.5q0 16 6 30t16.5 24.5t25 16.5t30.5 6q31 0 5322.5t2254.5zM310 635q03222.554.5t-54.522.5q-31 053.5 22.5t-22.5 54.5t23 54.5t55 22.5q31 0 5322.5t2254.5z" /><glyph glyph-name="uni030A" unicode="&#x30a;" horiz-adv-x="1" d="M458 659q0228.541t-2333.5t-33.523t-418.5q-21 040 8.5t-33.5 23t-22.5 33.5t-8 41t8.5 41t23 33.5t34 23t40.5 8.5t408.5t33.523t22.533.5t841zM395 659q0 1812 30.5t-29 12.5q-19 031.512.5t-12.530.5t12.530.5t29.512.5q18 0 30.5 12.5t12.5 30.5z" /><glyph glyph-name="uni030B" unicode="&#x30b;" horiz-adv-x="1" d="M139 554l-70 34l131 229l10246zM336 557l-62 46l162 213l8963z" /><glyph glyph-name="uni030C" unicode="&#x30c;" horiz-adv-x="1" d="M263 554l-156 135l55 73l12376l152 76l3473z" /><glyph glyph-name="uni0312" unicode="&#x312;" horiz-adv-x="1" d="M-18 650q0 34 18 63.5t48 52.5q22 17 47 28.5t51 19.5l3147q-10321.58t-2212t-1816t-8.519q36 9.510.5t12.511t10.516.5t4.527q0302253.5t-6423.5q-35 055.5 24t-20.5 56z" /><glyph glyph-name="uni0313" unicode="&#x313;" horiz-adv-x="1" d="M-10 661q0341863.5t-4852.5q-22174728.5t-5119.5l-31 47q10 3 21.5 8t22 12t17.5 16t9 19q-3 69.5 10.5t-12.5 11t-10.5 16.5t-4.5 27q0 30 22 53.5t64 23.5q35 0 55.524t20.556z" /><glyph glyph-name="uni0326" unicode="&#x326;" horiz-adv-x="1" d="M178124q0341863.5t-4852.5q-22174728.5t-5119.5l-31 47q10 3 21.5 8t22 12t17.5 16t9 19q-3 69.5 10.5t-12.5 11t-10.5 16.5t-4.5 27q0 30 22 53.5t64 23.5q35 0 55.524t20.556z" /><glyph glyph-name="uni0327" unicode="&#x327;" horiz-adv-x="1" d="M13893q021940t-25.534t-4023.5t-53.58.5q-23 046 8t-36 16l41 62q115 23.59.5t27.54.5q12 0 21.5 5.5t9.5 16.5q0 1623 16q-8 014.52t-13.54l-9 20l43 87l706l-2238q313 43.520.5t12.540.5z" /><glyph glyph-name="uni0328" unicode="&#x328;" horiz-adv-x="1" d="M124175q-1784316t-498q-46 069.5 20t-23.5 50q0 21 8.5 42.5t23 41.5t33.5 38.5t40 32.5l6240q-11923.519.5t-23.523t-18.526t-7.527.5q06 511.5t145.5q17 0 29.5 5t25.5 10z" /><glyph glyph-name="uni037E" unicode="&#x37e;" horiz-adv-x="325" d="M212 48q03516.567t-42.558t-58.544t-63.526l-38 57q33 12 57.5 27t24.5 31q0 1914 27q-15 924.5 28t-9.5 44q0 19 7 35.5t19.5 28.5t28.5 18.5t34 6.5q44 0 7027.5t2680.5zM272 368q03625.561t-61.525t-61.5 25t-25.5 61t25.5 61.5t61.5 25.5t61.525.5t25.561.5z" /><glyph glyph-name="tonos" unicode="&#x384;" horiz-adv-x="328" d="M156 554l-56 55l135 169l8879z" /><glyph glyph-name="dieresistonos" unicode="&#x385;" horiz-adv-x="536" d="M345 628l-56 55l135 169l8879zM572 635q03222.554.5t-54.522.5t-54 22.5t-22 54.5q0 16 6 30t16.5 24.5t25 16.5t30.5 6q31 0 5322.5t2254.5zM281 635q03222.554.5t-54.522.5q-31 053.5 22.5t-22.5 54.5t23 54.5t55 22.5q31 0 5322.5t2254.5z" /><glyph glyph-name="Alphatonos" unicode="&#x386;" horiz-adv-x="588" d="M-48 497l-56 55l135 169l8879zM398 0l-14 165h-204l-84165h-151l376 697h151l71697h-145zM365 426q-3 403 74v44q-369.521.5t-15.535t-18.540.5t-17.537l-62129h136z" /><glyph glyph-name="anoteleia" unicode="&#x387;" horiz-adv-x="311" d="M253 273q018734t-1928t-28.519t-35.57q-37 062.5 26t-25.5 63t26 63.5t64 26.5q37 0 62.526.5t25.564.5z" /><glyph glyph-name="Epsilontonos" unicode="&#x388;" horiz-adv-x="495" d="M-87 497l-56 55l135 169l8879zM526 581h-236l-34161h197l-24114h-196l-39186h262l-26120h-405l148 695h396z" /><glyph glyph-name="Etatonos" unicode="&#x389;" horiz-adv-x="633" d="M-87 497l-56 55l135 169l8879zM506 0h-142l66 310h-200l-66310h-139l148 695h139l-58270h200l58 270h142z" /><glyph glyph-name="Iotatonos" unicode="&#x38a;" horiz-adv-x="297" d="M-87 497l-56 55l135 169l8879zM170 0h-145l148 695h145z" /><glyph glyph-name="Omicrontonos" unicode="&#x38c;" horiz-adv-x="694" d="M-58 497l-56 55l135 169l8879zM682 454q06616132t-46124.5t-72.5104.5t-95.571q-693315733q-65 0110 18.5t-73.5 51.5t-41.5 79t-13 100q0 74 16 137t42.5 114t59.5 89.5t67 62.5q15 11 34 22.5t43.5 20.5t55.5 14.5t71 5.5q115 0 175.566.5t60.5183.5zM525 483q0 5123.5 82t-80.5 31q-35 067.516.5t-53.544.5q-21273867t-2984t-18.588t-6.579q067 27.594t80.527q30 0 59.5 11.5t53.5 40.5q22 28 40 70t30.5 89t19 93.5t6.5 82.5z" /><glyph glyph-name="Upsilontonos" unicode="&#x38e;" horiz-adv-x="554" d="M-107 497l-56 55l135 169l8879zM356 286l-61286h-146l61 286l-129 409h162l48190q829 1149t540q10 15 24.5 38.5t31.5 48.5l131 192h171z" /><glyph glyph-name="Omegatonos" unicode="&#x38f;" horiz-adv-x="714" d="M694 470q05213.5103t-38.597t-59.586t-77.570h117l-47114h-251l20 99q40 31 75 73t61.5 89.5t41.5 99.5t15 104q0 265 50t-18 42t-35 28.5t-56 10.5q-52 091.528.5t-6671.5t-4093.5t-13.595.5q056 20.5111t54.596l-41100h-234l24 114h97q-32 3252.5 81.5t-20.5 108.5q0 78 30.5 150t83 127.5t122.5 89t148 33.5q115 0 182.559t67.5175zM-58 497l-56 55l135 169l8879z" /><glyph glyph-name="iotadieresistonos" unicode="&#x390;" horiz-adv-x="280" d="M240 433q046883l-30142q-104513.566.5t-3.532.5q029 2629q10 0 15 2l680q-37148114q-54 079.5 26t-25.5 66q0 14 4.5 39.5t10.5 53.5l37 172q9 40 9 74t-9 61l124 49q1018 1443.5t452.5zM206 628l-56 55l135 169l8879zM433 635q03222.554.5t-54.522.5t-54 22.5t-22 54.5q0 16 6 30t16.5 24.5t25 16.5t30.5 6q31 0 5322.5t2254.5zM142 635q03222.554.5t-54.522.5q-31 053.5 22.5t-22.5 54.5t23 54.5t55 22.5q31 0 5322.5t2254.5z" /><glyph glyph-name="Alpha" unicode="&#x391;" horiz-adv-x="588" d="M398 0l-14 165h-204l-84165h-151l376 697h151l71697h-145zM365 426q-3 403 74v44q-369.521.5t-15.535t-18.540.5t-17.537l-62129h136z" /><glyph glyph-name="Beta" unicode="&#x392;" horiz-adv-x="598" d="M601 545q0268.552t-2650t-4543.5t-66.530.5q4811 7648.5t2886.5q0173.537t-11.541.5t-2042.5t-3039q-19204034t-4723t-5813t-724h-252l148 695h247q39 0 72.59.5t57.528t37.547t13.565.5zM405 237q0 3721 51t-68 14h-87l-40188h91q22 0 40 5.5t32 14.5q23 16 38 45t15 58zM450 515q0 3216.5 46.5t-60.5 14.5h-87l-33159h82q29 0 44.5 5.5t28.5 14.5q17 12 29.5 32t12.5 46z" /><glyph glyph-name="Gamma" unicode="&#x393;" horiz-adv-x="432" d="M509 580h-216l-123580h-145l148 695h379z" /><glyph glyph-name="uni0394" unicode="&#x394;" horiz-adv-x="589" d="M521 0h-528v106l341 591h124l86592zM365 370q-1 83 27.5t-4 41.5t-3 42q-1 161 26q-491226q-9202041.5t-21.541t-15.528.5l-139254h254z" /><glyph glyph-name="Epsilon" unicode="&#x395;" horiz-adv-x="495" d="M526 581h-236l-34161h197l-24114h-196l-39186h262l-26120h-405l148 695h396z" /><glyph glyph-name="Zeta" unicode="&#x396;" d="M576 594l-346435q-141726.529.5t-16.515.5q6 0 26.5 1t39.5 1h228l-48116h-444l21 98l342 423q17 21 33 38.5t21 22.5q-5123.52t-46.51h-207l45 116h424z" /><glyph glyph-name="Eta" unicode="&#x397;" horiz-adv-x="633" d="M506 0h-142l66 310h-200l-66310h-139l148 695h139l-58270h200l58 270h142z" /><glyph glyph-name="Theta" unicode="&#x398;" horiz-adv-x="714" d="M702 454q06617.5132t-49124.5t-75104.5t-96.571q-35177525t-848q-65 0111.5 18.5t-77 51.5t-45 79t-14.5 100q0 74 17.5 137t45 114t62 89.5t68.5 62.5q15 11 34.5 22.5t44 20.5t56 14.5t71.5 5.5q57 0 10317.5t77.549.5t48.578.5t17104.5zM218 306q-5247.546.5t-2.542.5q067 32.594t85.527q30 0 60.5 11.5t54.5 40.5q23 28 41.5 69.5t32.5 88.5h-297zM545 483q0 5128.5 82t-85.5 31q-35 068.516.5t-54.544.5q-17223252t-2765h291q2 18 3.5 34.5t1.5 30.5z" /><glyph glyph-name="Iota" unicode="&#x399;" horiz-adv-x="297" d="M170 0h-145l148 695h145z" /><glyph glyph-name="Kappa" unicode="&#x39a;" horiz-adv-x="600" d="M392 368l168368h-178l-137 363l-77363h-143l148 695h143l-68317l263 317h175z" /><glyph glyph-name="Lambda" unicode="&#x39b;" horiz-adv-x="567" d="M360 0l-20 281q-5 637.5 125.5t-0.5 125.5q-266352125.5t-57125.5l-140281h-148l363 697h151l58697h-147z" /><glyph glyph-name="Mu" unicode="&#x39c;" horiz-adv-x="827" d="M723 0h-135l53 371q5 33 9.5 60.5t10.5 55.5q-13302353t-2654l-191380h-119l-21 365q-2 263 59.5t1 63.5q-7311562t-1763l-101363h-141l213 695h177l17348q119 134v-51q012125q11 27 22.5 54.5t26.5 58.5l168 345h180z" /><glyph glyph-name="Nu" unicode="&#x39d;" horiz-adv-x="635" d="M508 0h-144l-62 266q-8 3315.5 67t-14.5 64.5t-12 56.5q-5 246 40q-321745q-4268.552.5t-1052t-9.547.5l-59297h-135l148 695h153l74278q1556 24109t1291q2 20 5.5 46.5t7.5 53.5t8 51.5t8 42.5l58 284h133z" /><glyph glyph-name="Xi" unicode="&#x39e;" horiz-adv-x="534" d="M25 0l33 130h429v-130h-462zM562 571h-421v124h453zM494 302h-392l32 124h391z" /><glyph glyph-name="Omicron" unicode="&#x39f;" horiz-adv-x="694" d="M682 454q06616132t-46124.5t-72.5104.5t-95.571q-693315733q-65 0110 18.5t-73.5 51.5t-41.5 79t-13 100q0 74 16 137t42.5 114t59.5 89.5t67 62.5q15 11 34 22.5t43.5 20.5t55.5 14.5t71 5.5q115 0 175.566.5t60.5183.5zM525 483q0 5123.5 82t-80.5 31q-35 067.516.5t-53.544.5q-21273867t-2984t-18.588t-6.579q067 27.594t80.527q30 0 59.5 11.5t53.5 40.5q22 28 40 70t30.5 89t19 93.5t6.5 82.5z" /><glyph glyph-name="Pi" unicode="&#x3a0;" horiz-adv-x="627" d="M500 0h-142l123 580h-194l-123580h-139l148 695h475z" /><glyph glyph-name="Rho" unicode="&#x3a1;" horiz-adv-x="571" d="M606 536q09141.5155.5t-119.5100.5q-261266.518t-82.56h-74l-54256h-143l148 695h183q71 0 112.57.5t67.524.5q3320 51.553t18.574zM455 509q0 3519 54t-58 19h-86l-45212h70q41 0 64.5 8.5t37.5 25.5q16 19 26 47t10 58z" /><glyph glyph-name="Sigma" unicode="&#x3a3;" horiz-adv-x="524" d="M545 579h-164q-28 051 2t-29 3q45 16.523.5t23.539.5l80151l-180211q-12142728t-2019q6 1 28.5 2.5t41.5 1.5h216l-48116h-433l19 91l245 277l-124 229l40 98h415z" /><glyph glyph-name="Tau" unicode="&#x3a4;" horiz-adv-x="501" d="M564 579h-164l-123579h-144l123 579h-170l25 116h501z" /><glyph glyph-name="Upsilon" unicode="&#x3a5;" horiz-adv-x="554" d="M356 286l-61286h-146l61 286l-129 409h162l48190q829 1149t540q10 15 24.5 38.5t31.5 48.5l131 192h171z" /><glyph glyph-name="Phi" unicode="&#x3a6;" horiz-adv-x="813" d="M801 406q07630.5135t-81.5101t-11766.5t-13731.5l-1572h-141l15 72q-69 6116 27.5t-75.5 52t-40.5 67.5t-12 75q0 76 30 135.5t80 101.5t115.5 66.5t137.5 30.5l14 67h141l-1466q705 11726t7652t41.568.5t12.576.5zM389 516q-44778.526t-5947.5t-37.565t-1378.5q018 5.536.5t18.534.5t35.528t57.518zM644 404q0 185 35.5t-18 32.5t-35 26.5t-56 17.5l-71334q45 7 80 26.5t58 48.5t35 66.5t12 80.5z" /><glyph glyph-name="Chi" unicode="&#x3a7;" horiz-adv-x="538" d="M384 366l134366h-164l-74 240l-171240h-180l300 375l-122 320h163l61194l136 194h167z" /><glyph glyph-name="Psi" unicode="&#x3a8;" horiz-adv-x="748" d="M747 431q-115332102.5t-5887.5t-9461t-13923l-34157h-138l34 157q-62 0103.5 18.5t-66.5 47.5t-35.5 66t-10.5 75q0 17 3 35t6 32l56 264h136l-56265q-520939t-437q033 2258t8434l92 433h138l-92433q51 8 81.5 28t48 45t24.5 50.5t11 44.5l56 265h136z" /><glyph glyph-name="uni03A9" unicode="&#x3a9;" horiz-adv-x="714" d="M694 470q05213.5103t-38.597t-59.586t-77.570h117l-47114h-251l20 99q40 31 75 73t61.5 89.5t41.5 99.5t15 104q0 265 50t-18 42t-35 28.5t-56 10.5q-52 091.528.5t-6671.5t-4093.5t-13.595.5q056 20.5111t54.596l-41100h-234l24 114h97q-32 3252.5 81.5t-20.5 108.5q0 78 30.5 150t83 127.5t122.5 89t148 33.5q115 0 182.559t67.5175z" /><glyph glyph-name="Iotadieresis" unicode="&#x3aa;" horiz-adv-x="297" d="M170 0h-145l148 695h145zM440 800q03222.554.5t-54.522.5t-54 22.5t-22 54.5q0 16 6 30t16.5 24.5t25 16.5t30.5 6q31 0 5322.5t2254.5zM229 800q03222.554.5t-54.522.5q-31 053.5 22.5t-22.5 54.5t23 54.5t55 22.5q31 0 5322.5t2254.5z" /><glyph glyph-name="Upsilondieresis" unicode="&#x3ab;" horiz-adv-x="554" d="M356 286l-61286h-146l61 286l-129 409h162l48190q829 1149t540q10 15 24.5 38.5t31.5 48.5l131 192h171zM556 800q03222.554.5t-54.522.5t-54 22.5t-22 54.5q0 16 6 30t16.5 24.5t25 16.5t30.5 6q31 0 5322.5t2254.5zM345 800q03222.554.5t-54.522.5q-31 053.5 22.5t-22.5 54.5t23 54.5t55 22.5q31 0 5322.5t2254.5z" /><glyph glyph-name="alphatonos" unicode="&#x3ac;" d="M519 487q-4128.527.5t-932.5t-8.534t-732l-41194q-419438q036 2362l-11183q-18 1227 30t-12 33q-293061.545.5t-74.515.5q-70 0105.5 41.5t-35.5 121.5q0 93 31 170t77 123q42 42 91 61t113 19q45 0 91.58t78.527zM367 410q-5 316 5.5t-20 2.5q-12 023.51t-22.55.5t-2313t-2524.5q-161927.546t-19.557t-1260.5t-455.5q035 9.550.5t31.515.5q16 0 31.5 7.5t28.5 19t23.5 25.5t15.5 28zM354 554l-56 55l135 169l8879z" /><glyph glyph-name="epsilontonos" unicode="&#x3ad;" horiz-adv-x="497" d="M450 376q-54 41128 41q-17 032.53.5t-27.511t-19.520.5t-7.531q020 2027.5t647.5h54l-1991h-47q-19 0403t-38.511t-2923.5t-11.539.5q022 20.534t57.512q42 0 79 15t72 37l3898q-23155128t-5923.5t-6416.5t-666q-89 0138 26.5t-49 91.5q0 27 9.5 54t26.5 50t40.5 39.5t51.5 21.5l1 2q-26 943.5 28t-17.5 48q0 45 22 79.5t56 58t74.5 35t78.5 11.5q58 0 10116t8844zM343 554l-56 55l135 169l8879z" /><glyph glyph-name="etatonos" unicode="&#x3ae;" horiz-adv-x="551" d="M511 422q017236t-636l-30142q-104513.566.5t-3.532.5q029 2629q10 0 15 2l680q-37148114q-54 078.5 26t-24.5 66q0 14 4.5 39.5t10.5 53.5l34 160q3 15 5 26.5t2 19.5q0 198.5 25.5t-26.5 6.5q-24 05217t-6060l-71334h-132l73 345q9 40 9 74t-9 61l124 49q36 617t4.523t2.523.5t019.5q32 35 74 56t99 21q49 0 7627t2774zM353 554l-56 55l135 169l8879z" /><glyph glyph-name="iotatonos" unicode="&#x3af;" horiz-adv-x="280" d="M240 433q046883l-30142q-104513.566.5t-3.532.5q029 2629q10 0 15 2l680q-37148114q-54 079.5 26t-25.5 66q0 14 4.5 39.5t10.5 53.5l37 172q9 40 9 74t-9 61l124 49q1018 1443.5t452.5zM203 554l-56 55l135 169l8879z" /><glyph glyph-name="upsilondieresistonos" unicode="&#x3b0;" horiz-adv-x="541" d="M449 159q-188879.5129.5t-162.541.5q-85 0124.5 32t-39.5 90q0 11 1 20.5t4 21.5l74 348l137 25l-79374q-312318q021 13.533t45.512q35 0 57.5 20t27.5 46l73 343l133 27zM336 628l-56 55l135 169l8879zM563 635q03222.554.5t-54.522.5t-54 22.5t-22 54.5q0 16 6 30t16.5 24.5t25 16.5t30.5 6q31 0 5322.5t2254.5zM272 635q03222.554.5t-54.522.5q-31 053.5 22.5t-22.5 54.5t23 54.5t55 22.5q31 0 5322.5t2254.5z" /><glyph glyph-name="alpha" unicode="&#x3b1;" d="M519 487q-4128.527.5t-932.5t-8.534t-732l-41194q-419438q036 2362l-11183q-18 1227 30t-12 33q-293061.545.5t-74.515.5q-70 0105.5 41.5t-35.5 121.5q0 93 31 170t77 123q42 42 91 61t113 19q45 0 91.58t78.527zM367 410q-5 316 5.5t-20 2.5q-12 023.51t-22.55.5t-2313t-2524.5q-161927.546t-19.557t-1260.5t-455.5q035 9.550.5t31.515.5q16 0 31.5 7.5t28.5 19t23.5 25.5t15.5 28z" /><glyph glyph-name="beta" unicode="&#x3b2;" horiz-adv-x="601" d="M573 575q06536116t-9872q267 46.522t3535t2243t7.545q06123108.5t-6279.5t-90.549t-108.517q-39 063 11.5t-47 25.5l-45211l-13634l139 653q30 144 98 212.5t187 68.5q41 0 73.511t5530t3444.5t11.553.5zM438 555q0 2814.5 44t-46.5 16q-31 052.513t-36.535.5t-2552.5t-1764l-66312q69 1719t24.517.5t2812.5t26.55q33 0 57.5 13.5t40.5 35.5t23.5 50t7.5 56q0 3925.5 61t-95.5 22h-16l21 100h24q60 0 92.5 37t32.5 96z" /><glyph glyph-name="gamma" unicode="&#x3b3;" horiz-adv-x="486" d="M260 0q-111435t-6.552.5t-8.555.5t-943l-13332q13 64 21.5 110.5t13 84t6 69.5t1.5 67q0 673.5 123t-11.5 96t-21 62t-31 22q-10 0201.5t-163.5l-9 87q23 11 47.5 17.5t49.5 6.5q46 0 7325.5t40.564.5t17.585t487q0190.535.5t-0.530.5q8 23 14.5 40t17.5 40l115 238h148z" /><glyph glyph-name="delta" unicode="&#x3b4;" horiz-adv-x="546" d="M520 589h-145q2925 5451t4355t28.562.5t10.573.5q07821143.5t-60113t-9474.5t-12327q-87 0134.5 46.5t-47.5 134.5q0 54 17 111t49 104.5t77.5 79.5t103.5 35q-27 2955 51.5t-56 35.5l44 108h355zM368 338q0 2714 46t-51 19q-36 06127.5t-40.566.5t-2281t-6.571q032 13.551.5t51.519.5q23 0 42 14t33 36.5t24.5 50t17.5 55.5t10 53.5t3 42.5z" /><glyph glyph-name="epsilon" unicode="&#x3b5;" horiz-adv-x="497" d="M450 376q-54 41128 41q-17 032.53.5t-27.511t-19.520.5t-7.531q020 2027.5t647.5h54l-1991h-47q-19 0403t-38.511t-2923.5t-11.539.5q022 20.534t57.512q42 0 79 15t72 37l3898q-23155128t-5923.5t-6416.5t-666q-89 0138 26.5t-49 91.5q0 27 9.5 54t26.5 50t40.5 39.5t51.5 21.5l1 2q-26 943.5 28t-17.5 48q0 45 22 79.5t56 58t74.5 35t78.5 11.5q58 0 10116t8844z" /><glyph glyph-name="zeta" unicode="&#x3b6;" horiz-adv-x="483" d="M533 584q-33147238.5t-7856t-7568.5t-6476t-44.578.5t-16.575.5q037 2248.5t5211.5h66q61 0 87.523t26.583q03412.566.5t-3262.5t-43.557.5t-4752.5l-65 50q10 10 20.5 25t19 31.5t13.5 33.5t5 33q0 2617 33.5t-39 7.5h-38q-35 066.5 8t-55 25.5t-37.5 45t-14 65.5q0 62 31 128t78.5 125t105.5 106.5t112 72.5h-223l46 119h378z" /><glyph glyph-name="eta" unicode="&#x3b7;" horiz-adv-x="551" d="M511 422q017236t-636l-30142q-104513.566.5t-3.532.5q029 2629q10 0 15 2l680q-37148114q-54 078.5 26t-24.5 66q0 14 4.5 39.5t10.5 53.5l34 160q3 15 5 26.5t2 19.5q0 198.5 25.5t-26.5 6.5q-24 05217t-6060l-71334h-132l73 345q9 40 9 74t-9 61l124 49q36 617t4.523t2.523.5t019.5q32 35 74 56t99 21q49 0 7627t2774z" /><glyph glyph-name="theta" unicode="&#x3b8;" horiz-adv-x="556" d="M548 503q0497.5106.5t-24114.5t-42110t-6293.5t-8465t-106.524.5q-47 080.5 14.5t-54.5 40.5t-30.5 63t-9.5 81q0 49 7.5 106.5t24 115t42 110.5t61.5 94t83.5 65.5t107.5 24.5q48 0 8115t5441.5t30.563.5t9.581zM209 307q-104815.586t-5.565q072 5372q24 0 43.5 18.5t35 49.5t28 71.5t21.5 83.5h-160zM408 537q0 7252 72q-25 044.517t-34.545.5t-2766t-2178.5h160q8 43 13.5 76t5.5 59z" /><glyph glyph-name="iota" unicode="&#x3b9;" horiz-adv-x="280" d="M240 433q046883l-30142q-104513.566.5t-3.532.5q029 2629q10 0 15 2l680q-37148114q-54 079.5 26t-25.5 66q0 14 4.5 39.5t10.5 53.5l37 172q9 40 9 74t-9 61l124 49q1018 1443.5t452.5z" /><glyph glyph-name="kappa" unicode="&#x3ba;" horiz-adv-x="525" d="M351 285l132285h-157l-105 277l189 235h163zM241 433q046883l-74350h-134l73 345q9 43 9 77q0 318 58l124 49q1018 1443.5t452.5z" /><glyph glyph-name="lambda" unicode="&#x3bb;" horiz-adv-x="530" d="M476 3q-1973613.5t-396.5q-28 046.5 6.5t-29 18t-15 28t-4.5 36.5l-5 221v23q0 14 0.5 28t1 25t0.5 14q-115.511.5t-1124.5t-13.529.5t-1326.5l-155299l-134 16l281 504h41q-1 181 42.5t-4.5 46t-16 36.5t-36.5 15q-10 020.52.5t-20.54.5l-7 77q25 8 46 13t44 5q45 0 70.514t3834.5t1643t4.539.5l28505q116 520t124q7 0 19 3z" /><glyph glyph-name="uni03BC" unicode="&#x3bc;" horiz-adv-x="548" d="M448 133q-317332q037 1561l-10754q-11 918.5 21.5t-10.5 28.5q-302467.536.5t-76.512.5q-21 034 11q02110.5t-317.5l-34156l-13634l153 720l138 25l-70329q-523738.5t-234.5q015 1225t3210q12 0 26 4t27 11t23.5 16t16.5 18l77 360l133 27z" /><glyph glyph-name="nu" unicode="&#x3bd;" horiz-adv-x="464" d="M239 0h-111l-79 504l138 17l25231q326 562t161q8 23 23.5 57.5t35.5 72.5l115 215h143z" /><glyph glyph-name="xi" unicode="&#x3be;" horiz-adv-x="498" d="M509 577h-138q-19 0387.5t-3420t-24.530t-9.536.5q034 2348t5214h116l-23108h-105q-27 052.58.5t-45.524.5t-32.538.5t-12.550.5q037 21.548.5t52.511.5h66q60 0 8723t2783q03412.566.5t-3262.5t-4457.5t-47.552.5l-64 50q10 10 20.5 25t18.5 31.5t13.5 33.5t5.5 33q0 2617.5 33.5t-39.5 7.5h-38q-35 066 8t-55 25.5t-38 45t-14 65.5q0 34 12.5 69t34.5 65t51.5 52.5t63.5 32.5v2q-32 1450.5 38t-18.5 60q0 16 6 33.5t16 33.5t23.5 28t28.5 18h-88l46 119h380z" /><glyph glyph-name="omicron" unicode="&#x3bf;" horiz-adv-x="546" d="M512 347q06818132t-55114.5t-93.581t-132.530.5q-88 0135 46.5t-47 134.5q0 72 21.5 136t60 112t93 76t120.5 28q87 0 136.545t49.5130zM368 347q0 4516 60.5t-46 15.5q-34 05930.5t-41.573t-24.588t-874.5q037 1754t4617q32 0 57 26.5t41.5 66.5t25 85t8.5 83z" /><glyph glyph-name="pi" unicode="&#x3c0;" horiz-adv-x="564" d="M554 416h-40l-44208q-10451466.5t-432.5q029 2629q10 0 15 2l680q-37148114q-54 078.5 26t-24.5 66q0 14 4.5 39.5t10.5 53.5l52 243h-126l-89416h-133l88 416h-55l20 96h517z" /><glyph glyph-name="rho" unicode="&#x3c1;" horiz-adv-x="546" d="M512 338q06118123t-53112.5t-8682t-11731.5q-30 057 7t-47 20q2100.523.5t-4.518.5l-34160l-14134l105 491q12 57 33.5 103t55 79t80 51t108.5 18q34 0 6610t56.532.5t3957.5t14.584zM368 345q0 7859 78q-37 06628.5t-3973.5l-42196q1111 29.520.5t38.59.5q39 0 65.5 27t42.5 66t23 82t7 75z" /><glyph glyph-name="sigma1" unicode="&#x3c2;" horiz-adv-x="446" d="M393 382q-33 3876 38q-57 09684q-336933135q046 5272l9848q5231 5281q068139213l-62 50q21 21 39 51q21 34 21 59q0 2055 45q-74 31102 57q-55 4855 125q0 86 45 178q46 94 118 137q65 38 135 38q82 0 13661z" /><glyph glyph-name="sigma" unicode="&#x3c3;" horiz-adv-x="564" d="M560 418h-79q1720 2438t746q06820130.5t-58.5110t-9476t-125.528.5q-87 0135 46.5t-48 134.5q0 63 20 124t58 109.5t93 78.5t124 30h284zM368 347q0 4415 57.5t-45 13.5q-22 04114t-3436.5t-2651t-18.557.5t-11.556t-446q037 1754t4617q32 0 57 26.5t41.5 66.5t25 85t8.5 83z" /><glyph glyph-name="tau" unicode="&#x3c4;" horiz-adv-x="409" d="M406 415h-111l-54252q-313424.5t-120.5q021 1129t348q9 0 24 2.5t26 7.5v-81q-291158.516.5t-55.55.5q-58 089.5 25t-31.5 63q0 14 1.5 31t5.5 35l59 273h-121l20 97h398z" /><glyph glyph-name="upsilon" unicode="&#x3c5;" horiz-adv-x="541" d="M449 159q-188879.5129.5t-162.541.5q-85 0124.5 32t-39.5 90q0 11 1 20.5t4 21.5l74 348l137 25l-79374q-312318q021 13.533t45.512q35 0 57.5 20t27.5 46l73 343l133 27z" /><glyph glyph-name="phi" unicode="&#x3c6;" horiz-adv-x="697" d="M663 317q06723124t-63.5100t-96.569.5t-12332.5l-38177l-14034l45 211q-92 13142.5 64.5t-50.5 140.5q0 58 20.5 111t56.5 95t85 71t106 41l-2199q-25134438t-31.555t-1962t-6.559q087 68109l42 197q25 118 73 172t132 54q39 0 70.515t5441.5t34.563t1278.5zM517 313q0 5212.5 76t-29.5 24q-12 020.510t-14.527.5t-1141.5t-1152l-40190q34 10 60 34t43.5 55t26.5 65.5t9 66.5z" /><glyph glyph-name="chi" unicode="&#x3c7;" horiz-adv-x="468" d="M314 265l128265h-158q-9 2619 51.5t-18.5 48t-14.5 41t-8 30.5q-6112233t-35.547.5t-39.550t-3340.5h-176l251 276l-96 213l138 37q615 13.534t1540t1441.5t11.537.5q9 14 22 33.5t27.5 39.5t27.5 37.5t21 28.5h162z" /><glyph glyph-name="psi" unicode="&#x3c8;" horiz-adv-x="681" d="M618 257q-2511887.5185t-179.573l-39185l-14034l46 219q-37 368 14t-53.5 32t-35 53t-12.5 77q0 20 3.5 43.5t9.5 49.5l49 232l137 25l-56264q-520942.5t-441.5q029 1348.5t4829.5l98 461q11 51 13.5 84t-3.5 59l139 43q523 3.561t-9.575l-108510q48 15 74 50.5t39 95.5l53 251l136 27z" /><glyph glyph-name="omega" unicode="&#x3c9;" horiz-adv-x="713" d="M679 289q05114.5105t-4497.5t-7471.5t-104.528q-48 075 19.5t-42 64.5q-324567.564.5t-87.519.5q-37 063.5 13t-43 34.5t-24.5 50t-8 58.5q0 61 19 119t50 108t70 90t78 66l7745q-29305666t-47.576t-3383t-12.586q032 1347t2715q6 0 15 3.5t19 12.5t18.5 24t13.5 38l41 194h133l-41194q-416431q031 8.539t21.58q25 0 43 25t29.5 59t16.5 69.5t5 56.5q0 429 81.5t-32 81.5l95 45q4248 66108.5t24128.5z" /><glyph glyph-name="iotadieresis" unicode="&#x3ca;" horiz-adv-x="280" d="M240 433q046883l-30142q-104513.566.5t-3.532.5q029 2629q10 0 15 2l680q-37148114q-54 079.5 26t-25.5 66q0 14 4.5 39.5t10.5 53.5l37 172q9 40 9 74t-9 61l124 49q1018 1443.5t452.5zM390 635q03222.554.5t-54.522.5t-54 22.5t-22 54.5q0 16 6 30t16.5 24.5t25 16.5t30.5 6q31 0 5322.5t2254.5zM179 635q03222.554.5t-54.522.5q-31 053.5 22.5t-22.5 54.5t23 54.5t55 22.5q31 0 5322.5t2254.5z" /><glyph glyph-name="upsilondieresis" unicode="&#x3cb;" horiz-adv-x="541" d="M449 159q-188879.5129.5t-162.541.5q-85 0124.5 32t-39.5 90q0 11 1 20.5t4 21.5l74 348l137 25l-79374q-312318q021 13.533t45.512q35 0 57.5 20t27.5 46l73 343l133 27zM528 635q03222.554.5t-54.522.5t-54 22.5t-22 54.5q0 16 6 30t16.5 24.5t25 16.5t30.5 6q31 0 5322.5t2254.5zM317 635q03222.554.5t-54.522.5q-31 053.5 22.5t-22.5 54.5t23 54.5t55 22.5q31 0 5322.5t2254.5z" /><glyph glyph-name="omicrontonos" unicode="&#x3cc;" horiz-adv-x="546" d="M512 347q06818132t-55114.5t-93.581t-132.530.5q-88 0135 46.5t-47 134.5q0 72 21.5 136t60 112t93 76t120.5 28q87 0 136.545t49.5130zM368 347q0 4516 60.5t-46 15.5q-34 05930.5t-41.573t-24.588t-874.5q037 1754t4617q32 0 57 26.5t41.5 66.5t25 85t8.5 83zM364 554l-56 55l135 169l8879z" /><glyph glyph-name="upsilontonos" unicode="&#x3cd;" horiz-adv-x="541" d="M449 159q-188879.5129.5t-162.541.5q-85 0124.5 32t-39.5 90q0 11 1 20.5t4 21.5l74 348l137 25l-79374q-312318q021 13.533t45.512q35 0 57.5 20t27.5 46l73 343l133 27zM343 554l-56 55l135 169l8879z" /><glyph glyph-name="omegatonos" unicode="&#x3ce;" horiz-adv-x="713" d="M679 289q05114.5105t-4497.5t-7471.5t-104.528q-48 075 19.5t-42 64.5q-324567.564.5t-87.519.5q-37 063.5 13t-43 34.5t-24.5 50t-8 58.5q0 61 19 119t50 108t70 90t78 66l7745q-29305666t-47.576t-3383t-12.586q032 1347t2715q6 0 15 3.5t19 12.5t18.5 24t13.5 38l41 194h133l-41194q-416431q031 8.539t21.58q25 0 43 25t29.5 59t16.5 69.5t5 56.5q0 429 81.5t-32 81.5l95 45q4248 66108.5t24128.5zM433 554l-56 55l135 169l8879z" /><glyph glyph-name="uni03D0" unicode="&#x3d0;" horiz-adv-x="603" d="M575 575q06536116t-9872q267 46.522t3535t2243t7.545q06124109t-64.581t-9350.5t-109.517.5q-31 064.5 4t-64.5 11.5t-57 16.5t-42 20q5 14 11 36t9 37l69 324q30 144 97 212.5t186 68.5q41 0 7311t53.530t32.544.5t1153.5zM440 555q0 2812.5 44t-44.5 16q-31 051.513t-3535.5t-23.552.5t-1664l-71337q44 149t239.5t27.57.5t26.53q33 0 57.5 13.5t40.5 35.5t24 50t8 56q0 195 34.5t-17.5 26.5t-35 16.5t-57.5 5.5h-13l21 100h21q60 0 89.5 37t29.5 96z" /><glyph glyph-name="theta1" unicode="&#x3d1;" horiz-adv-x="561" d="M88 178q8 32 10 55t2 35v5q0 31 7l119 15q14 18v-6q014340t-1164q-210318.5t-116.5q034 19.546t53.512q32 0 55.5 10.5t41 34t32 61.5t28.5 94q-51 897.5 23t-82 41t-57 65t-21.5 96q0 42 15 79.5t43.5 65.5t70.5 44.5t96 16.5q60 0 10119t65.551.5t35.575t1190.5q029459.5t-1060.5q-219647166.5t-65.5116t-95.567.5t-13522q-35 066 8.5t-54.5 25.5t-37.5 43t-14 62q0 23 6 52zM389 616q-22 038.510.5t-2827t-1738t-5.543.5q027 845.5t2631t4721t7115.5q6 29 10.5 60t4.5 60q0 234 43.5t-13 35.5t-24 24t-37 9z" /><glyph glyph-name="Upsilon1" unicode="&#x3d2;" horiz-adv-x="531" d="M308 0h-147l50 237q12 54 12 101q0 7834 138.5t-108 112.5l102 116q6746 99.5110t46.5148q45 90 109.5 151t152.5 107l51118q-6234109.571t-8279.5t-57.592t-35107.5z" /><glyph glyph-name="uni03D3" unicode="&#x3d3;" horiz-adv-x="531" d="M308 0h-147l50 237q12 54 12 101q0 7834 138.5t-108 112.5l102 116q6746 99.5110t46.5148q45 90 109.5 151t152.5 107l51118q-6234109.571t-8279.5t-57.592t-35107.5zM-131 497l-56 55l135 169l8879z" /><glyph glyph-name="uni03D4" unicode="&#x3d4;" horiz-adv-x="531" d="M308 0h-147l50 237q12 54 12 101q0 7834 138.5t-108 112.5l102 116q6746 99.5110t46.5148q45 90 109.5 151t152.5 107l51118q-6234109.571t-8279.5t-57.592t-35107.5zM573 818q03222.554.5t-54.522.5t-54 22.5t-22 54.5q0 16 6 30t16.5 24.5t25 16.5t30.5 6q31 0 5322.5t2254.5zM362 818q03222.554.5t-54.522.5q-31 053.5 22.5t-22.5 54.5t23 54.5t55 22.5q31 0 5322.5t2254.5z" /><glyph glyph-name="phi1" unicode="&#x3d5;" horiz-adv-x="685" d="M651 319q06622.5122.5t-62.599.5t-9570.5t-12134.5l-39186l-14030l46 217q-89 14137.5 65.5t-48.5 134.5q0 65 23 120t63.5 97.5t94.5 70t117 36.5l9 43q11 51 13.5 84t-3.5 59l139 43q523 3.561t-9.575l-1993q417 75.522.5t6040t39.558.5t1477zM307 414q-3596031.5t-41.551.5t-24.563t-867q041 1867t4937zM507 314q0 4217.5 65.5t-49.5 35.5l-67318q31 9 56 31.5t42 53t26.5 65.5t9.5 67z" /><glyph glyph-name="uni0400" unicode="&#x400;" horiz-adv-x="495" d="M526 581h-236l-34161h197l-24114h-196l-39186h262l-26120h-405l148 695h396zM419 720l-216 100l66 106l196134z" /><glyph glyph-name="afii10023" unicode="&#x401;" horiz-adv-x="495" d="M526 581h-236l-34161h197l-24114h-196l-39186h262l-26120h-405l148 695h396zM350 800q03222.554.5t-54.522.5q-31 053.5 22.5t-22.5 54.5t23 54.5t55 22.5q31 0 5322.5t2254.5zM560 800q03222.554.5t-54.522.5q-31 053.5 22.5t-22.5 54.5t23 54.5t55 22.5q31 0 5322.5t2254.5z" /><glyph glyph-name="afii10051" unicode="&#x402;" horiz-adv-x="693" d="M564 579h-179l-36170q43 17 78 24t70 7q26 0 56.57.5t56.537.5q1720 25.550t8.566q0326.566t-1966.5t-31.561t-4349.5q-34296738.5t-659.5q-24 044 3.5t-41 11.5l-13 5l43 99q53 105t114q135 285q20 0 32.5 8t20.5 21t12.5 28t7.5 30l8 37q4 16 5 26t1 23q0 122 23t-9 19q-8 922 15t-35 6q-27 052.56.5t-45.514.5l-65308h-142l123 579h-157l25 116h501z" /><glyph glyph-name="afii10052" unicode="&#x403;" horiz-adv-x="432" d="M509 580h-216l-123580h-145l148 695h379zM238 717l-40 75l231 133l48105z" /><glyph glyph-name="afii10053" unicode="&#x404;" horiz-adv-x="559" d="M546 558q-27 2457 31.5t-53 7.5q-42 077.515.5t-58.542.5q-15172639t-1640l-1038h199l-24112h-202l-733q-732759q038 10.557.5t19.528.5q1212 25.519t2710t264t22.51q18 0 53 7t80 38l4590q-392791.546t-120.519q-45 079.5 9t-59.5 23.5t-41.5 31.5t-26.5 32q-20 3130 73t-10 79q0 53 14.5 115t38.5 117q18 42 40.5 75.5t53.5 63.5q33 31 66 51t65 30.5t62 14.5t56 4q69 0 11017.5t6637.5z" /><glyph glyph-name="afii10054" unicode="&#x405;" horiz-adv-x="612" d="M550 550q-34 2671.5 37.5t-82.5 11.5q-24 0457t-36.519t-2528t-9.534q021 14.537.5t49.529.5l8030q6725 10264.5t3599.5q05723.5105.5t-6784t-10655.5t-140.520q-74 0129.5 17.5t-99.5 45.5l74 107q4426 85.540t94.514q66 0 105.5 31.5t39.5 83.5q0 2618 43.5t-56 31.5l-73 27q-59 2293 57.5t-34 96.5q0 52 23 97t63.5 77.5t94.5 51t116 18.5q64 0 121.518.5t95.551.5z" /><glyph glyph-name="afii10055" unicode="&#x406;" horiz-adv-x="297" d="M170 0h-145l148 695h145z" /><glyph glyph-name="afii10056" unicode="&#x407;" horiz-adv-x="297" d="M170 0h-145l148 695h145zM229 800q03222.554.5t-54.522.5q-31 053.5 22.5t-22.5 54.5t23 54.5t55 22.5q31 0 5322.5t2254.5zM439 800q03222.554.5t-54.522.5q-31 053.5 22.5t-22.5 54.5t23 54.5t55 22.5q31 0 5322.5t2254.5z" /><glyph glyph-name="afii10057" unicode="&#x408;" horiz-adv-x="297" d="M199 135q-7341255.5t-9.536t-8.524.5t-920q-14323858.5t-51.547.5t-5736t-54.524l-49 75q31 17 58 40t41 44q6 9 11.5 20t10 25.5t9.5 34.5t11 48l122 575h145z" /><glyph glyph-name="afii10058" unicode="&#x409;" horiz-adv-x="938" d="M694 436q15 0 36.51.5t446t44.514.5t3926q1615 30.543t14.573q06326.5121t-80.596q-362684.540.5t-104.514.5h-236l124 585h-132l-27108q-52214.556.5t-20.574t-23.581t-24.577.5q-14423175t-5263q-181649.532t-90.523l-455l-5 103l18 3q20 3 36 11.5t21 11.5q11 7 25.5 19.5t27.5 34.5q5 8 17 36.5t29 79.5q32 96 49.5 168.5t28.5 117.5l31 120h395l-55259h91zM613 114q18 0 44.5 6t52.5 33q16 17 25.5 41.5t9.5 54.5q0 164.5 30.5t-18.5 25.5q-15 1233.5 14.5t-31.5 2.5h-79l-44208h79z" /><glyph glyph-name="afii10059" unicode="&#x40a;" horiz-adv-x="938" d="M603 436h91q15 0 36.51.5t446t44.514.5t3926q1615 30.543t14.573q06326.5121t-80.596q-362684.540.5t-104.514.5h-239l66 310h-201l-66310h-142l148 695h142l-58270h201l58 270h142zM613 114q18 0 44.5 6t52.5 33q16 17 25.5 41.5t9.5 54.5q0 164.5 30.5t-18.5 25.5q-15 1233.5 14.5t-31.5 2.5h-79l-44208h79z" /><glyph glyph-name="afii10060" unicode="&#x40b;" horiz-adv-x="692" d="M564 579h-179l-36170q43 17 78 24t70 7q48 0 78.514t46.534q1013 15.530.5t5.541.5q011122t-424l-58274h-142l46 217q4 16 5 27.5t1 21.5q0 183.5 27.5t-7.5 14.5q-8 922 15t-35 6q-26 050.56.5t-44.514.5l-65308h-142l123 579h-157l25 116h501z" /><glyph glyph-name="afii10061" unicode="&#x40c;" horiz-adv-x="650" d="M680 614l-348q-82175t-189q-151024.526.5t-11.519.5l-3368q-16332648.5t-1823.5q-141435.524t-38.515q2911 4532q911 1632.5t939.5l10103q213 4.527t17.524q64 189t197l196l-4697l-74 9q-20 242 15t-33 27q-11 1513.5 32.5t-3.5 53.5l-3 99q-1 176.5 36.5t-14.5 29.5q-14 1531.5 17.5t-29.5 2.5h-52l-66312h-142l148 695h142l-58272h69q15 0 34.5 6t29.5 14q11 8 21 24t21 41l40 89q8 19 18.5 36.5t29.5 33.5q17 14 37 21t43 10l72 9zM333 717l-40 75l231 133l48105z" /><glyph glyph-name="uni040D" unicode="&#x40d;" horiz-adv-x="652" d="M383 0l73 344q3 13 7 31.5t9.5 38.5t10.5 40q5 18 8 35q-19413766q-17273453l-248370h-147l148 695h142l-73344q-7301771t-2176q22 40 39.5 67.5t34.5 53.5l248 370h147l-148695h-142zM509 720l-216 100l66 106l196134z" /><glyph glyph-name="afii10062" unicode="&#x40e;" horiz-adv-x="560" d="M294 436q529 9.560t7.580q13 33 24 56.5t20.5 42t18.5 35t20 35.5l124 230h147l-274489q-417270118.5t-6370.5q-322370.532t-63.512l-354l-4 101l18 5q15 5 27.5 9.5t29.5 12.5q13 7 23.5 14t20 16t18.5 21.5t18 30.5l19 36l-6910l-94 490h150zM565 854q-14263246t-3834q-32225926.5t-544.5q-23 048.5 4t-50.5 27q-12 1123 31t-13 49l74 29q210 1019.5t1414.5q97 25.510t31.53q9 0 26.5 2t34.5 11q11 5 22 14.5t18 19.5z" /><glyph glyph-name="afii10145" unicode="&#x40f;" horiz-adv-x="622" d="M191 115h186l124 580h142l-148695h-168l-37172h-134l37 172h-168l148 695h142z" /><glyph glyph-name="afii10017" unicode="&#x410;" horiz-adv-x="588" d="M398 0l-14 165h-204l-84165h-151l376 697h151l71697h-145zM365 426q-3 403 74v44q-369.521.5t-15.535t-18.540.5t-17.537l-62129h136z" /><glyph glyph-name="afii10018" unicode="&#x411;" horiz-adv-x="620" d="M610 695l-40118h-280l-33153h112q19 0 401.5t426.5t4115t3626q1717 29.545t12.573q0265.555.5t-2058.5t-3955.5t-61.547.5q-36208030t-7910h-260l148 695h437zM288 114q18 0 41 6t45 29q17 17 26 43t9 52q0 113 22.5t-12 21.5q-14 1531.5 18.5t-32.5 3.5h-97l-42196h97z" /><glyph glyph-name="afii10019" unicode="&#x412;" horiz-adv-x="598" d="M601 545q0268.552t-2650t-4543.5t-66.530.5q4811 7648.5t2886.5q0173.537t-11.541.5t-2042.5t-3039q-19204034t-4723t-5813t-724h-252l148 695h247q39 0 72.59.5t57.528t37.547t13.565.5zM405 237q0 3721 51t-68 14h-87l-40188h91q22 0 40 5.5t32 14.5q23 16 38 45t15 58zM450 515q0 3216.5 46.5t-60.5 14.5h-87l-33159h82q29 0 44.5 5.5t28.5 14.5q17 12 29.5 32t12.5 46z" /><glyph glyph-name="afii10020" unicode="&#x413;" horiz-adv-x="432" d="M509 580h-216l-123580h-145l148 695h379z" /><glyph glyph-name="afii10021" unicode="&#x414;" horiz-adv-x="647" d="M23 116q37 51 75 117.5t67 137.5q8 21 18.5 50.5t20.5 61.5t19.5 64t15.5 58l22 90h396l-122579h67l-60288h-135l37 172h-359l-36172h-135l62 288h47zM343 537q-115935.5128.5t-54.5131.5q-255148.588.5t-51.572.5h240l100 469h-141z" /><glyph glyph-name="afii10022" unicode="&#x415;" horiz-adv-x="495" d="M526 581h-236l-34161h197l-24114h-196l-39186h262l-26120h-405l148 695h396z" /><glyph glyph-name="afii10024" unicode="&#x416;" horiz-adv-x="936" d="M971 614l-348q-14420.56.5t-14.57.5q-151024.526.5t-11.519.5l-3368q-16332648.5t-1823.5q-141435.524t-38.515q2911 4532q911 1632.5t939.5l10103q213 4.527t17.524q64 189t197l196l-4697l-74 9q-20 242 15t-33 27q-11 1513.5 32.5t-3.5 53.5l-3 99q-1 176.5 36.5t-14.5 29.5q-14 1531.5 17.5t-29.5 2.5h-30l-66312h-138l66 312h-30q-11 0262t-3110.5t-3226t-2947.5l-44101q-9202143.5t-3142.5q-24235030.5t-429.5l-819l-6 97l20 6q8 2 22.5 7.5t20.5 8.5q14 7 23.5 18.5t20.5 32.5l51 103q19 39 50 66q17 14 36.5 23.5t39.5 14.5q-33 1150 33q-16 2017.5 37.5t-3.5 40.5l-6 68q-2 226.5 31.5t-9.5 14.5q-12 1129 14l-34 8l46 93l629q234 4010t2821q1418 15.536t2.534l589q115 333t1330q810 24.516t32.56h47l58 272h138l-58272h47q15 0 34.5 6t29.5 14q11 8 21 24t21 41l40 89q8 19 18.5 36.5t29.5 33.5q17 14 37 21t43 10l72 9z" /><glyph glyph-name="afii10025" unicode="&#x417;" horiz-adv-x="531" d="M146 306l23 105h69q20 0 42 4.5t42 18.5q29 22 35.5 49t6.5 44q0 134 27t-19 27t-31.5 15.5t-32.5 2.5q-25 055.56t-71.532l-46 89q8 5 27.5 14.5t48 19t66.5 16.5t84 7q13 0 31.51.5t396.5t4115t37.528q1313 27.538t14.567q0101.525t-733t-16.538t-3038q-16154029.5t-5622.5q213 4113t3424q1112 21.533t10.556q0163.540.5t-15.552.5t-3656.5t-6553.5q-16934.518t-42.515.5t-5510.5t-704q-72 0117.5 16.5t-77.5 48.5l84 91q3131 6739.5t608.5q28 0 57 8.5t47 23.5q22 18 33.5 47t11.5 56q0 238 36.5t-16 20.5q-16 1336.5 15.5t-31.5 2.5h-82z" /><glyph glyph-name="afii10026" unicode="&#x418;" horiz-adv-x="652" d="M383 0l73 344q3 13 7 31.5t9.5 38.5t10.5 40q5 18 8 35q-19413766q-17273453l-248370h-147l148 695h142l-73344q-7301771t-2176q22 40 39.5 67.5t34.5 53.5l248 370h147l-148695h-142z" /><glyph glyph-name="afii10027" unicode="&#x419;" horiz-adv-x="652" d="M383 0l73 344q3 13 7 31.5t9.5 38.5t10.5 40q5 18 8 35q-19413766q-17273453l-248370h-147l148 695h142l-73344q-7301771t-2176q22 40 39.5 67.5t34.5 53.5l248 370h147l-148695h-142zM605 854q-14263246t-3834q-32225926.5t-544.5q-23 048.5 4t-50.5 27q-12 1123 31t-13 49l74 29q210 1019.5t1414.5q97 25.510t31.53q9 0 26.5 2t34.5 11q11 5 22 14.5t18 19.5z" /><glyph glyph-name="afii10028" unicode="&#x41a;" horiz-adv-x="650" d="M680 614l-348q-82175t-189q-151024.526.5t-11.519.5l-3368q-16332648.5t-1823.5q-141435.524t-38.515q2911 4532q911 1632.5t939.5l10103q213 4.527t17.524q64 189t197l196l-4697l-74 9q-20 242 15t-33 27q-11 1513.5 32.5t-3.5 53.5l-3 99q-1 176.5 36.5t-14.5 29.5q-14 1531.5 17.5t-29.5 2.5h-52l-66312h-142l148 695h142l-58272h69q15 0 34.5 6t29.5 14q11 8 21 24t21 41l40 89q8 19 18.5 36.5t29.5 33.5q17 14 37 21t43 10l72 9z" /><glyph glyph-name="afii10029" unicode="&#x41b;" horiz-adv-x="632" d="M363 0l124 585h-129l-27108q-9381769.5t-1764t-2169.5t-2886q-14423175t-5263q-181649.532t-90.523l-455l-5 103l18 3q20 3 36 11.5t21 11.5q11 7 25 19t28 35q5 9 17 37t29 79q22 66 41.5 140.5t36.5 145.5l28 120h398l-148695h-142z" /><glyph glyph-name="afii10030" unicode="&#x41c;" horiz-adv-x="827" d="M723 0h-135l53 371q5 33 9.5 60.5t10.5 55.5q-13302353t-2654l-191380h-119l-21 365q-2 263 59.5t1 63.5q-7311562t-1763l-101363h-141l213 695h177l17348q119 134v-51q012125q11 27 22.5 54.5t26.5 58.5l168 345h180z" /><glyph glyph-name="afii10031" unicode="&#x41d;" horiz-adv-x="633" d="M506 0h-142l66 310h-200l-66310h-139l148 695h139l-58270h200l58 270h142z" /><glyph glyph-name="afii10032" unicode="&#x41e;" horiz-adv-x="694" d="M682 454q06616132t-46124.5t-72.5104.5t-95.571q-693315733q-65 0110 18.5t-73.5 51.5t-41.5 79t-13 100q0 74 16 137t42.5 114t59.5 89.5t67 62.5q15 11 34 22.5t43.5 20.5t55.5 14.5t71 5.5q115 0 175.566.5t60.5183.5zM525 483q0 5123.5 82t-80.5 31q-35 067.516.5t-53.544.5q-21273867t-2984t-18.588t-6.579q067 27.594t80.527q30 0 59.5 11.5t53.5 40.5q22 28 40 70t30.5 89t19 93.5t6.5 82.5z" /><glyph glyph-name="afii10033" unicode="&#x41f;" horiz-adv-x="626" d="M499 0h-138l124 585h-198l-124585h-138l148 695h474z" /><glyph glyph-name="afii10034" unicode="&#x420;" horiz-adv-x="571" d="M606 536q09141.5155.5t-119.5100.5q-261266.518t-82.56h-74l-54256h-143l148 695h183q71 0 112.57.5t67.524.5q3320 51.553t18.574zM455 509q0 3519 54t-58 19h-86l-45212h70q41 0 64.5 8.5t37.5 25.5q16 19 26 47t10 58z" /><glyph glyph-name="afii10035" unicode="&#x421;" horiz-adv-x="563" d="M544 563q-22 2049 28t-56 8q-35 070.517t-59.545q-23264166t-3084t-18.586.5t-6.572.5q069 32100.5t9131.5q31 0 61.5 11.5t66.5 36.5l4891q-483498.549.5t-110.515.5q-118 0182 63t-64 181q0 40 7.5 84t21 86.5t33 82t43.5 71.5q57 76 135.5 115t163.5 39q52 0 96.515t67.540z" /><glyph glyph-name="afii10036" unicode="&#x422;" horiz-adv-x="501" d="M564 579h-164l-123579h-144l123 579h-170l25 116h501z" /><glyph glyph-name="afii10037" unicode="&#x423;" horiz-adv-x="560" d="M294 436q529 9.560t7.580q13 33 24 56.5t20.5 42t18.5 35t20 35.5l124 230h147l-274489q-417270118.5t-6370.5q-322370.532t-63.512l-354l-4 101l18 5q15 5 27.5 9.5t29.5 12.5q13 7 23.5 14t20 16t18.5 21.5t18 30.5l19 36l-6910l-94 490h150z" /><glyph glyph-name="afii10038" unicode="&#x424;" horiz-adv-x="788" d="M268 0l22 102h-24q-51 094 16t-69 45q-23 2434.5 60t-11.5 78q0 35 8.5 73t25 75t40.5 69t54 55q39 29 91 44.5t103 15.5h24l20 97h140l-2097h24q51 0 89.513.5t62.534.5q1917 30.536.5t17.539t7.538t1.533.5q08229.5147.5t-78.5109.5q-34308754.5t-12724.5h-24l-22102h-140zM376 538q-35 057.510.5t-33.519.5q-181432.537t-2550.5t-16.559t-662.5q018 3.535.5t15.533.5q1823 40.528t39.55h13l72 341h-13zM443 197h13q23 0 47 6.5t47 26.5q21 18 35.5 44.5t23.5 55.5t13 58.5t4 52.5q0 203.5 38t-20.5 34q-18 1739 21t-35 4h-13z" /><glyph glyph-name="afii10039" unicode="&#x425;" horiz-adv-x="538" d="M384 366l134366h-164l-74 240l-171240h-180l300 375l-122 320h163l61194l136 194h167z" /><glyph glyph-name="afii10040" unicode="&#x426;" horiz-adv-x="627" d="M311 695l-123579h188l123 579h138l-124579h68l-60288h-135l37 172h-398l148 695h138z" /><glyph glyph-name="afii10041" unicode="&#x427;" horiz-adv-x="588" d="M319 0l61 285q-7321.57t-34.58.5t-44.57.5t-51.53q-12 026 1.5t-29 5.5t-29 11t-26 18q-20 2027 47t-7 49q0 11 0.5 18t2.5 15l58 271h138l-47218q-210422.5t-225.5q014 3.527t12.522q1111 2713t282q22 0 43.5 4t56.5 17l66 309h138l-148695h-138z" /><glyph glyph-name="afii10042" unicode="&#x428;" horiz-adv-x="909" d="M188 116h170l124 579h139l-124579h170l124 579h139l-148695h-757l148 695h139z" /><glyph glyph-name="afii10043" unicode="&#x429;" horiz-adv-x="909" d="M188 116h170l124 579h139l-124579h170l124 579h139l-124579h67l-60288h-135l37 172h-690l148 695h139z" /><glyph glyph-name="afii10044" unicode="&#x42a;" horiz-adv-x="673" d="M337 436h91q21 0 43.51.5t446.5t4215t37.527q56 12.515.5t1424.5t11.535t546q06634.5127t-97.597q-19116026t-10515h-239l123 580h-170l25 115h312zM347 112q6 0 18 1t26.5 5.5t30 14t29.5 26.5q15 19 22 44t7 47q0 205.5 31.5t-10.5 17.5q-8 1025.5 17.5t-46.5 7.5h-79l-45212h79z" /><glyph glyph-name="afii10045" unicode="&#x42b;" horiz-adv-x="868" d="M315 695l-55259h91q21 0 43.51.5t446.5t4215t37.527q2726 34.558t7.561q04813.585.5t-3365t-42.546t-4229.5q-26156728t-9813h-239l148 695h142zM270 112q16 0 43.5 6t52.5 32q18 20 27.5 47.5t9.5 50.5q0 257.5 38.5t-15.5 20.5q-14 1232.5 14.5t-32.5 2.5h-79l-45212h79zM741 0h-145l148 695h145z" /><glyph glyph-name="afii10046" unicode="&#x42c;" horiz-adv-x="595" d="M315 695l-55259h91q21 0 43.51.5t446.5t4215t37.527q2726 34.558t7.561q04813.585.5t-3365t-42.546t-4229.5q-26156728t-9813h-239l148 695h142zM270 112q16 0 43.5 6t52.5 32q18 20 27.5 47.5t9.5 50.5q0 257.5 38.5t-15.5 20.5q-14 1232.5 14.5t-32.5 2.5h-79l-45212h79z" /><glyph glyph-name="afii10047" unicode="&#x42d;" horiz-adv-x="577" d="M117 652q32 21 80 38t116 17q42 0 75.58t5922t4432t31.537q2335 32.580t9.590q0326.577.5t-22.595.5t-4499t-7189q-30286345.5t-64.527t-60.513t-533.5q-38 067 6t-51.5 16t-39 21t-27.5 22l80 89q3529 64.536.5t51.57.5q34 0 73 11.5t68 45.5q20 23 33.5 56t18.5 64l6 33h-202l20 111h198l3 25q1 8 2 17t1 19q0 153.5 31t-11.5 32q-13 2439 39t-70 15q-30 0639.5t-6329.5z" /><glyph glyph-name="afii10048" unicode="&#x42e;" horiz-adv-x="954" d="M312 695l-58270h112q14 46 42.5 98t72.5 94q16 15 37.5 30.5t50 29t64 22t78.5 8.5q23 0 493.5t51.513.5t4928.5t42.547.5q2031 29.571.5t9.585.5q04910.5101t-30.5101.5t-4894t-6478.5q-474510369.5t-12824.5q-43 076 9t-57.5 25t-42 37t-28.5 44q-13 2619 58t-6 66q0 44 9 83h-108l-66310h-139l148 695h139zM689 600q-27 047.58t-35.519t-25.524t-17.523q-172531.563t-25.580.5t-17.585.5t-6.578q027 549q311 824t15.524.5t27.519t437.5q27 0 47.5 7.5t35.5 19t25.5 24.5t17.5 24q16 25 31 63t26 80.5t17.5 85.5t6.5 78q0 275 49q-3 108 23t-15.5 24t-27.5 19t-43 8z" /><glyph glyph-name="afii10049" unicode="&#x42f;" horiz-adv-x="614" d="M487 0h-138l60 283h-56q-16 0353t-3617q-6512.513t-1317.5t-1219t-8.517.5l-3271q-13292350t-3140q-8829.519.5t-60.516.5l-849l-6 97l23 6q10 2 23.5 8t22.5 11q8 5 18.5 14.5t22.5 33.5l40 79q10 19 20 35.5t30 32.5q23 19 45 27q22 7 31 10q-33 558.5 20.5t-38.5 34.5q-13 1818 40.5t-5 42.5q0 42 22 86t61 74q22 17 46.5 27.5t49.5 16t49 7.5t46 2h235zM396 583q-16 0342t-3813q-29174144t-1253q012 426t1626q1516 33.520t35.54h73l40 188h-77z" /><glyph glyph-name="afii10065" unicode="&#x430;" d="M519 487q-4128.527.5t-932.5t-8.534t-732l-41194q-419438q036 2362l-11183q-18 1227 30t-12 33q-293061.545.5t-74.515.5q-70 0105.5 41.5t-35.5 121.5q0 93 31 170t77 123q42 42 91 61t113 19q45 0 91.58t78.527zM367 410q-5 316 5.5t-20 2.5q-12 023.51t-22.55.5t-2313t-2524.5q-161927.546t-19.557t-1260.5t-455.5q035 9.550.5t31.515.5q16 0 31.5 7.5t28.5 19t23.5 25.5t15.5 28z" /><glyph glyph-name="afii10066" unicode="&#x431;" horiz-adv-x="574" d="M597 660q-84178t-249.5t-37.513t-55.517.5t-50.514.5t-30.58t-26.57.5t-38.514q-23943.522t-39.544q-91416.533t-13.541q16 19 34 33t32 22q23 14 53.5 21.5t61.5 7.5q41 0 71.517t47.546q1523 2153t659q0346.570.5t-20.572.5t-3569.5t-4961.5q-12122925t-39.524t-51.518.5t-657.5q-55 088 17.5t-51 37.5q-21 2334 58.5t-13 77.5q0 27 6.5 74t31.5 127q12 38 26 73.5t31 67.5q22 42 47 71t53 49.5t58.5 33.5t64.5 23l59 18q18 6 28 8.5t22.5 6.5t34 11.5t63.5 22.5zM324 414q-27 04210t-2217q-141422.531t-13.533q-51410.533.5t-10.541t-842.5t-337q04 121.5t831.5q612 18.521t35.59t37.5 8t26.5 22q13 14 21 29.5t15 34.5q4 12 9.5 32.5t10.5 43.5t8.5 45.5t3.5 39.5q0 122.5 23.5t-8.5 22.5q-5 1017 18.5t-35 8.5z" /><glyph glyph-name="afii10067" unicode="&#x432;" horiz-adv-x="554" d="M98 328q13 59 36 94t49 55t64.5 33.5t90.5 13.5q31 0 544t39.510t2712.5t15.510.5q119 25.530.5t14.556.5q02610.551t-31.544q-121128.520t-32.514q174 3313t2620q1415 1831t428q04320.581t-49.559q-352687.538.5t-113.512.5q-48 096 7.5t-93 23.5zM180 90q175 367t282q18 0 36.5 3.5t33.5 14.5q12 8 23.5 25.5t11.5 46.5q0 123 22t-13 18q-12 1024 12t-25 2h-75zM290 304q23 0 37 6.5t21 12.5q13 11 21 27t8 38q0 82.5 16.5t-11.5 15.5q-8 618.5 8.5t-22.5 2.5q-14 0294.5t-2614.5q-14112126.5t-1345.5l-736h64z" /><glyph glyph-name="afii10068" unicode="&#x433;" horiz-adv-x="448" d="M86 467q17 13 33 21t35 15q29 11 60 16.5t65 5.5q26 0 57.57t57.530q2724 34.550.5t7.550.5q029853t-3147q-24255339.5t-5623.5l-3512q-391462.521.5t-37.519.5q-10814.517t-4.523q018 1129t2713t252q34 0 62 8t48 17q11 5 22 11.5t22 13.5l3291l-149q-18124221t-4414q-491310413q-29 061 6.5t-58 28.5q-21 1833 45t-12 59q0 26 9.5 54t37.5 53q15 14 40 27.5t67 27.5l27 9q28 9 46 16.5t29.5 12.5t17 9t8.5 6q6 5 13 15t7 25q0 145.5 21.5t-13.5 12.5t-20 7t-22 2q-17 038.54t-38.511q-13526.512.5t-22.514.5z" /><glyph glyph-name="afii10069" unicode="&#x434;" horiz-adv-x="578" d="M238 739q17 2 34.5 3.5t35.5 1.5q26 0 502.5t458.5q318 56.525t45.546q1421 2244t11.545.5t4.544t140.5q0578.5117t-24115.5t-38102.5t-49.578q-14163431.5t-45.528t-56.520t-677.5q-35 071 10.5t-63 40.5q-27 2935 64.5t-8 64.5q0 42 8.5 82t23 76t35 66t44.5 51q22 20 58.5 38.5t87.5 18.5q18 0 323t298q145 25.510t24.516q3 19 3 45q0 202.5 39.5t-8.5 34.5q-15 3447 49q-22 1144 13.5t-41 2.5q-26 043.52.5t-33.57.5zM393 371q-8 817 13t-17 9q-10 420.5 6.5t-20.5 2.5q-25 04311t-3026.5t-19.533.5t-12.533q-185422.588t-4.551q041 1757t3716q17 0 39.5 10t42.5 43q20 32 33 75t26 103z" /><glyph glyph-name="afii10070" unicode="&#x435;" horiz-adv-x="514" d="M502 383q03616.568t-4956t-8138t-112.514q-22 039 2.5t-22 4.5q-283.523t-1.523q044 2263t6419q35 0 70.5 14t71.5 40l3484q-523610353t-10517q-92 0143 47t-51 141q0 40 8.5 79.5t23.5 76t36 68.5t47 57q38 37 81.5 52.5t94.5 15.5q38 0 708t5524.5t3643.5t1364zM367 372q0 2312 38t-42 15q-38 06626t-4393q31 14.53t23.52q22 0 44 4t40 12.5t29.5 22t11.5 32.5z" /><glyph glyph-name="afii10072" unicode="&#x436;" horiz-adv-x="883" d="M371 223h-62q-145941101t-4965q-232557.547t-86.522q-33 063 11t-53 38l67 82q815 21.524t29.59q23 0 37.5 12.5t28.5 35.5q23 38 43.5 93.5t20.5 118.5q0 142 33t-14 33q-7 814 11t-18 3q-14 033.58t-39.534l-43 73q29 34 67 50.5t83 16.5q27 0 529t4734q4147 41132v-16q07115h60l38 182l138 25l-44207h65q11 32 29.5 65.5t52.5 70.5q12 13 26 25.5t31 22.5t38.5 16t48.5 6q35 0 64.512.5t51.538.5l-6780q-6 1113.5 17.5t-15 10t-14 4.5t-9.5 1q-20 03613t-3034q-11172241t-20.552.5t-15.559t-659.5q015 234t1433q89 15.511.5t16.52.5q20 0 37.5 9.5t35.5 32.5l4375q-202341.536t-41.519.5t-378t-291.5q-21 049.5 7.5t-51.5 34.5q-20 2429.5 58.5t-9.5 71.5q0 17 1.5 33t3.5 30h-59l-47223h-132z" /><glyph glyph-name="afii10073" unicode="&#x437;" horiz-adv-x="466" d="M215 315q13 0 28 4.5t26 12.5q23 16 23 43q0 112.5 21.5t-13.5 18.5q-9 720.5 9.5t-21.5 2.5q-22 0393.5t-3411.5q-14624.512.5t-20.514.5l-38 77q14 11 33.5 23t46.5 21q28 10 58 14t57 4q25 0 54.55.5t56.525.5q2519 3643t1153q0361259t-2535q-171733.525t-24.510q286 4833q1115 13.529.5t2.533.5q030853t-2140.5t-2830t-3021.5q-322075.529.5t-88.59.5q-47 075.5 10t-48.5 24q-12 822 16.5t-18 19.5l77 80q1117 3031q1713 3317t364q14 0 31.5 3t31.5 13t24 27t10 42q0 176.5 26t-12.5 14q-10 726.5 9t-29.5 2h-38l18 93h52z" /><glyph glyph-name="afii10074" unicode="&#x438;" horiz-adv-x="547" d="M447 133q-5262.556t13.548l-11646q-9 1415.5 32t-8.5 36q-29266645t-8219q-60 092.5 28t-32.5 76q0 14 2 33.5t8 47.5l69 328l138 25l-70329q-5207.539t-2.530q017 1028t2211q15 0 31.5 7.5t31.5 18.5t27 24.5t20 25.5l71 333l135 27z" /><glyph glyph-name="afii10075" unicode="&#x439;" horiz-adv-x="547" d="M447 133q-5262.556t13.548l-11646q-9 1415.5 32t-8.5 36q-29266645t-8219q-60 092.5 28t-32.5 76q0 14 2 33.5t8 47.5l69 328l138 25l-70329q-5207.539t-2.530q017 1028t2211q15 0 31.5 7.5t31.5 18.5t27 24.5t20 25.5l71 333l135 27zM539 713q-14283451t-4137q-26175725t-628q-36 062 9.5t-43 24.5q-15 1425.5 36.5t-12.5 50.5l78 29q39 1018.5t1817.5q1510 3012t282q15 0 32 2.5t33 11.5q10 5 23 16t20 20z" /><glyph glyph-name="afii10076" unicode="&#x43a;" d="M22 0l106 500l137 25l-37164l-33105h2l24 42q16 28 33.5 55.5t49.5 59.5q20 20 41 36.5t47 30.5q28 15 61 26.5t67 18.5l2590l-206q-2374918t-52.527.5t-51.538.5t-4652q242 4610t3526q811 1328t632l259q04 1.516.5t6.519.5q810 2313l288l-3891l-46 5q-23 245.5 10.5t-35.5 30.5q-8 1410.5 30t-3.5 42l-2 68q0 61.5 12.5t-9.5 11.5q-6 414 5.5t-14 1.5q-32395986.5t-60120.5h-126z" /><glyph glyph-name="afii10077" unicode="&#x43b;" d="M377 420h-91l-1145q-41512.550t-18.568q-196530.598.5t-20.552.5t-23.540.5t-35.537.5t-45.522.5t-54.510.5l-425l-12 92l27 7q9 2 27 10t32 25q11 14 19 30t14 31q13 33 23.5 66t20.5 68q8 28 15.5 59t17.5 70l16 64h337l-109512h-132z" /><glyph glyph-name="afii10078" unicode="&#x43c;" horiz-adv-x="684" d="M481 0l36 266q2 10 2.5 19.5t3.5 25.5l9 41q-5111123l-1123q-5111020t-713l-152273h-102l-29 261q-2 113 32t-1 44v15q-5271253.5t-1139.5l-74259h-119l162 512h156l20253q113 2.523.5t1.524.5v-33q8 20 19.5 45t18.5 38l132 251h154l-57512h-118z" /><glyph glyph-name="afii10079" unicode="&#x43d;" horiz-adv-x="547" d="M22 0l106 500l138 25l-45208h138l39 183l138 25l-112525h-132l47 223h-138l-47223h-132z" /><glyph glyph-name="afii10080" unicode="&#x43e;" horiz-adv-x="546" d="M512 347q06818132t-55114.5t-93.581t-132.530.5q-88 0135 46.5t-47 134.5q0 72 21.5 136t60 112t93 76t120.5 28q87 0 136.545t49.5130zM368 347q0 4516 60.5t-46 15.5q-34 05930.5t-41.573t-24.588t-874.5q037 1754t4617q32 0 57 26.5t41.5 66.5t25 85t8.5 83z" /><glyph glyph-name="afii10081" unicode="&#x43f;" horiz-adv-x="551" d="M511 422q017236t-636l-74350h-132l71 333q3 15 5 26.5t2 19.5q0 198.5 25.5t-26.5 6.5q-24 05217t-6060l-71334h-132l73 345q9 40 9 74t-9 61l124 49q36 617t4.523t2.523.5t019.5q32 35 74 56t99 21q49 0 7627t2774z" /><glyph glyph-name="afii10082" unicode="&#x440;" horiz-adv-x="565" d="M535 354q035775.5t-20.580.5t-32.575t-4258q-353579.555.5t-94.520.5q-30 058.5 5t-45.5 15q17117t-418l-34160l-13634l122 573q9 43 7.5 73.5t-9.5 53.5l124 49q35 615.5t4.522.5t2.523.5t020.5q29 30 71 53t90 23q66 0 101.545.5t35.5123.5zM391 350q0 3110.5 46t-36.5 15q-25 055.518.5t-59.562.5l-47219q68 2715t417q32 0 51 13t31 31q14 21 25 49.5t18.5 58.5t11.5 59t4 50z" /><glyph glyph-name="afii10083" unicode="&#x441;" horiz-adv-x="446" d="M393 382q-17 1937 28.5t-39 9.5q-36 06330q-14162742t-22.557.5t-15.564.5t-663q040 1758t4418q28 0 55.5 14t56.5 37l4583q-423286.550t-101.518q-86 0131 46.5t-45 129.5q0 48 10.5 92.5t28 84t41 71.5t50.5 55q35 29 74.5 45t93.5 16q35 0 71.514.5t64.546.5z" /><glyph glyph-name="afii10084" unicode="&#x442;" horiz-adv-x="800" d="M760 417q030867l-74350h-130l72 338q6 28 6 44q0 177.5 23t-25.5 6q-26 054.521t-51.556l-71334h-127l71 333q7 31 7 50q0 167.5 22t-24.5 6q-26 053.520t-54.557l-71334h-131l75 350q3 14 4.5 30t1.5 31q0 212 39.5t-6 29.5l124 49q512 9.537t2.545q38 38 79.5 57t84.5 19q39 0 64.518t29.558q42 42 83 59t82 17q43 0 7324.5t3081.5z" /><glyph glyph-name="afii10085" unicode="&#x443;" horiz-adv-x="514" d="M2788q-213738.564.5t-33.547t-3133.5t-3124q-291963.530.5t-70.516.5l-27 90q23 5 48 13t42 19q15 9 26.5 18.5t21.5 21.5t19.5 27t21.5 35h-37q-1 142 32t-3 37.5t-4 38.5t-4 36l-46 360l138 16l25299q111 1.526.5t131.5t129t0.519q3 7 9.5 23.5t16 38.5t21 46t22.5 45l129 244h144z" /><glyph glyph-name="afii10086" unicode="&#x444;" horiz-adv-x="770" d="M354188l-13933l50 237q-27205024t-374q-50 078.5 20.5t-41.5 42.5q-14 2120 50t-6 64q0 39 8 82t23 84t36 76.5t48 60.5q33 31 67.5 43.5t63.5 12.5q18 0 436t4527l47 218l139 32l-54250q25 18 52.5 25.5t49.5 7.5q23 0 53.510.5t53.545.5q1523 2252.5t761.5q0429.586t-2685t-37.575.5t-4356.5q-39387850.5t-7012.5q-17 037 5t-38 23zM419 119q1417 2621.5t264.5q20 0 35 7t31 27q12 15 22.5 41t18.5 57t13 62t5 57q0 286 43q-8 1718.5 22.5t-25.5 5.5q-14 0325.5t-3822.5zM344 387q-14 2031 24t-27 4q-32 05628q-11142241.5t-19.560.5t-1466.5t-5.558.5q022 433q923 2228.5t305.5q13 0 28 4.5t34 21.5z" /><glyph glyph-name="afii10087" unicode="&#x445;" horiz-adv-x="468" d="M314 265l128265h-158q-9 2619 51.5t-18.5 48t-14.5 41t-8 30.5q-6112233t-35.547.5t-39.550t-3340.5h-176l251 276l-96 213l138 37q615 13.534t1540t1441.5t11.537.5q9 14 22 33.5t27.5 39.5t27.5 37.5t21 28.5h162z" /><glyph glyph-name="afii10088" unicode="&#x446;" horiz-adv-x="547" d="M447 133q-26312.5t-112.5h32l-58273h-123l35 166q-5 117.5 24.5t-3.5 25.5q-29266645t-8219q-60 092.5 28t-32.5 76q0 14 2 33.5t8 47.5l69 328l138 25l-70329q-5207.539t-2.530q017 1028t2211q15 0 31.5 7.5t31.5 18.5t27 24.5t20 25.5l71 333l135 27z" /><glyph glyph-name="afii10089" unicode="&#x447;" horiz-adv-x="500" d="M490 525l-112525h-132l42 198q-261053.515t-50.55q-48 074 14.5t-37 31.5q-8 1211 25.5t-3 27.5q0 12 2 24t4 23l37 176l138 25l-40188q-312325q015 826q810 1912t192q12 0 29.5 3.5t34.5 11.5l45 213z" /><glyph glyph-name="afii10090" unicode="&#x448;" horiz-adv-x="801" d="M782 524l-77363q-4184.543.5t-0.543.5q011 221.5t521.5l-12449q-7 209.5 34.5t-2.5 35.5v12q-343577.555.5t-86.520.5t-67.5 20.5t-26.5 55.5q-303273.554t-91.522q-21 040 5.5t-33 18t-22.5 32.5t-8.5 50q0 11 1.5 25.5t7.5 41.5l71 339l135 24l-74351q-5205.530t-0.514t0.59t3.59.5t97.5t173q29 0 59 21.5t50 55.5l68 323l132 24l-73346q-520630t-120q03 0.57.5t3.59t98t173.5q33 0 60.5 23t49.5 54l68 323z" /><glyph glyph-name="afii10091" unicode="&#x449;" horiz-adv-x="801" d="M782 524l-77363q-525553h24l-58273h-123l35 164q-4 135.5 24.5t-1.5 28.5v12q-343577.555.5t-86.520.5t-67.5 20.5t-26.5 55.5q-303273.554t-91.522q-21 040 5.5t-33 18t-22.5 32.5t-8.5 50q0 11 1.5 25.5t7.5 41.5l71 339l135 24l-74351q-5205.530t-0.514t0.59t3.59.5t97.5t173q29 0 59 21.5t50 55.5l68 323l132 24l-73346q-520630t-120q03 0.57.5t3.59t98t173.5q33 0 60.5 23t49.5 54l68 323z" /><glyph glyph-name="afii10092" unicode="&#x44a;" horiz-adv-x="575" d="M286 324q21 5 44 7t40 2q29 0 61.57t55.525q2520 3445t951q03713.577.5t-49.573.5q-24225235t-56.520t-569t-51.52q-49 086 7t-76 24l84 399h-118l34 94h237zM237 94q42 16.55.5t34.53.5q29 0 46 6.5t26 14.5q11 11 19.5 29t8.5 44q0 113 23.5t-17 23.5q-11 822.5 10t-22.5 2q-8 0241t-335z" /><glyph glyph-name="afii10093" unicode="&#x44b;" horiz-adv-x="766" d="M222 324q21 5 44 7t40 2q29 0 61.57t55.525q2520 3445t951q03713.577.5t-49.573.5q-24225235t-56.520t-569t-51.52q-49 086 7t-76 24l102 481l138 25zM173 94q42 16.55.5t34.53.5q29 0 46 6.5t26 14.5q11 11 19.5 29t8.5 44q0 113 23.5t-17 23.5q-11 822.5 10t-22.5 2q-8 0241t-335zM646 0h-134l107 503l138 21z" /><glyph glyph-name="afii10094" unicode="&#x44c;" horiz-adv-x="507" d="M222 324q21 5 44 7t40 2q29 0 61.57t55.525q2520 3445t951q03713.577.5t-49.573.5q-24225235t-56.520t-569t-51.52q-49 086 7t-76 24l102 481l138 25zM173 94q42 16.55.5t34.53.5q29 0 46 6.5t26 14.5q11 11 19.5 29t8.5 44q0 113 23.5t-17 23.5q-11 822.5 10t-22.5 2q-8 0241t-335z" /><glyph glyph-name="afii10095" unicode="&#x44d;" horiz-adv-x="473" d="M163 317h128q2 6 3 16t1 19q0 112 23.5t-7 21.5q-6 1119 19.5t-39 8.5q-22 0395t-2810q-15825.514.5t-15.510.5l-44 83q7 6 22.5 15.5t39 19.5t54.5 17t69 7q16 0 352.5t389.5t36.519.5t31.531.5q23 813t1227.5t10.542.5t4.559q031666.5t-1871t-3067.5t-4356q-13123125t-42.523.5t-55.517.5t-697q-32 057.5 6t-51.5 19q-18 931.5 19t-26.5 26l79 81q2024 4636.5t5312.5q22 0 45.5 7t41.5 33q11 15 17.5 37.5t9.5 36.5l4 19h-128z" /><glyph glyph-name="afii10096" unicode="&#x44e;" horiz-adv-x="788" d="M310 317q13 42 34.5 75.5t47.5 57.5q35 32 80 52t99 20q27 0 597.5t5928.5t4559t1899q05817115.5t-49102.5q-15213642t-4938.5t-63.528.5t-79.511q-38 072.5 10.5t-60.5 40.5q-26 2934 64.5t-8 66.5q0 16 1 29t3 22h-86l-47223h-132l106 500l138 25l-45208h89zM561 424q-11 0243.5t-27.514.5t-2831.5t-25.554.5q-51410.533t-10.541t-8.545t-3.544q011 2.525.5t12.525.5q67 15.512.5t23.55.5q30 0 48.5 16.5t29.5 36.5q12 19 21.5 43.5t17 51t11.5 53.5t4 52q0 376.5 51.5t-10.5 18.5q-6 614.5 9.5t-16.5 3.5z" /><glyph glyph-name="afii10097" unicode="&#x44f;" horiz-adv-x="526" d="M287 195q-11 0232t-2611q-15102423.5t-1425.5l-1943q-92018.536t-21.528q-201946.525.5t-62.58.5l-472l-5 92l19 4q12 3 20 5.5t13 6.5q14 8 21 19t12 19l22 37q9 15 17 24.5t21 19.5q12 9 23 14.5t25 7.5q-41 964 39q-20 2620 61q0 41 20.5 80t65.5 65q7 4 20.5 10.5t33.5 12.5t47.5 10.5t62.5 4.5q30 0 573t507t40.58.5t28.57.5l-106496h-132l41 195h-31zM366 419q-5 215.5 4t-30.5 2q-17 034.54t-30.514q-141023.528t-9.542q020 629.5t1113.5q1210 2912t242h45z" /><glyph glyph-name="uni0450" unicode="&#x450;" horiz-adv-x="514" d="M502 383q03616.568t-4956t-8138t-112.514q-22 039 2.5t-22 4.5q-283.523t-1.523q044 2263t6419q35 0 70.5 14t71.5 40l3484q-523610353t-10517q-92 0143 47t-51 141q0 40 8.5 79.5t23.5 76t36 68.5t47 57q38 37 81.5 52.5t94.5 15.5q38 0 708t5524.5t3643.5t1364zM367 372q0 2312 38t-42 15q-38 06626t-4393q31 14.53t23.52q22 0 44 4t40 12.5t29.5 22t11.5 32.5zM400 557l-216 100l66 106l196134z" /><glyph glyph-name="afii10071" unicode="&#x451;" horiz-adv-x="514" d="M502 383q03616.568t-4956t-8138t-112.514q-22 039 2.5t-22 4.5q-283.523t-1.523q044 2263t6419q35 0 70.5 14t71.5 40l3484q-523610353t-10517q-92 0143 47t-51 141q0 40 8.5 79.5t23.5 76t36 68.5t47 57q38 37 81.5 52.5t94.5 15.5q38 0 708t5524.5t3643.5t1364zM367 372q0 2312 38t-42 15q-38 06626t-4393q31 14.53t23.52q22 0 44 4t40 12.5t29.5 22t11.5 32.5zM314 635q03222.554.5t-54.522.5q-31 053.5 22.5t-22.5 54.5t23 54.5t55 22.5q31 0 5322.5t2254.5zM525 635q03222.554.5t-54.522.5q-31 053.5 22.5t-22.5 54.5t23 54.5t55 22.5q31 0 5322.5t2254.5z" /><glyph glyph-name="afii10099" unicode="&#x452;" horiz-adv-x="575" d="M535 423q012227t-738l-65304q-52212.548.5t-19.554t-3054t-4449.5q-20184936t-6432l-40 74q7 6 16 13.5t17.5 15t15.5 14.5l12 12q21 23 39 60t27 81l63 294q4 17 4 33q0 2010 28.5t-31 8.5q-14 030.57t-33.518t-33.525.5t-28.530.5l-71333h-133l120 561q0 2 1 4h-49l15 68h46q1 9 1.5 18t0.5 17q0 111 19t-3 16l135 43q515 543q0161.534t-3.536h199l-3868h-174l-1151q-16315t-4.518t-517t-4.512q29 32 74 53t92 21q61 0 9026.5t2976.5z" /><glyph glyph-name="afii10100" unicode="&#x453;" horiz-adv-x="448" d="M86 467q17 13 33 21t35 15q29 11 60 16.5t65 5.5q26 0 57.57t57.530q2724 34.550.5t7.550.5q029853t-3147q-24255339.5t-5623.5l-3512q-391462.521.5t-37.519.5q-10814.517t-4.523q018 1129t2713t252q34 0 62 8t48 17q11 5 22 11.5t22 13.5l3291l-149q-18124221t-4414q-491310413q-29 061 6.5t-58 28.5q-21 1833 45t-12 59q0 26 9.5 54t37.5 53q15 14 40 27.5t67 27.5l27 9q28 9 46 16.5t29.5 12.5t17 9t8.5 6q6 5 13 15t7 25q0 145.5 21.5t-13.5 12.5t-20 7t-22 2q-17 038.54t-38.511q-13526.512.5t-22.514.5zM212 554l-40 75l231 133l48105z" /><glyph glyph-name="afii10101" unicode="&#x454;" horiz-adv-x="446" d="M187 223l-519q-3135.526t-2.525q08 2.521.5t13.525.5q1414 31.517t26.53q24 0 44.5 6t39.5 17q11 6 20.5 13.5t16.5 12.5l4477q-11927.520t-29.518q-422377.527.5t-52.54.5q-14 030.5 1.5t-34.5 6t-36.5 14t-34.5 24.5q-17 1627.5 34.5t-16 37t-7.5 36.5t-2 34q0 45 10 84t21 69q5 12 13 28.5t18.5 35t24 36.5t29.5 33q32 30 74.5 47.5t99.5 17.5t10320q188 3117t2522l-7779q-12 1331 25q-15 829 11.5t-32 3.5q-28 0448.5t-2416.5q-14132434.5t-1539.5l-313h133l-2094h-133z" /><glyph glyph-name="afii10102" unicode="&#x455;" horiz-adv-x="484" d="M416 390q-34 2065 27.5t-60 7.5q-33 054.512.5t-21.540.5q032 5451l5821q197 37.518t32.526t2335t945q0381573t-4661.5t-7742t-10915.5q-57 0106 15.5t-93 41.5l54 98q1511 34.520.5t4116.5t44.511.5t454.5q33 0 56 19t23 45q0 2016.5 30.5t-48.5 21.5l-57 20q-40 1467 45t-27 84q0 33 13 64.5t41.5 56t73 39.5t107.5 15q51 0 9413t7533z" /><glyph glyph-name="afii10103" unicode="&#x456;" horiz-adv-x="280" d="M159 0h-134l107 503l138 21zM314 653q0352459t-5924q-34 058 24t-24 59t24.5 59t59.5 24q34 0 57.524t23.559z" /><glyph glyph-name="afii10104" unicode="&#x457;" horiz-adv-x="280" d="M159 0h-134l107 503l138 21zM189 635q03222.554.5t-54.522.5q-31 053.5 22.5t-22.5 54.5t23 54.5t55 22.5q31 0 5322.5t2254.5zM399 635q03222.554.5t-54.522.5q-31 053.5 22.5t-22.5 54.5t23 54.5t55 22.5q31 0 5322.5t2254.5z" /><glyph glyph-name="afii10105" unicode="&#x458;" horiz-adv-x="268" d="M152 14q-8361762.5t-18.545t-18.530.5t-1821q-454712075l-42 78q17 7 34.5 23.5t28.5 30.5q13 17 21 39.5t16 58.5l105 493l137 21zM304 653q0352459t-5924q-34 058 24t-24 59t24.5 59t59.5 24q34 0 57.524t23.559z" /><glyph glyph-name="afii10106" unicode="&#x459;" horiz-adv-x="758" d="M479 324q21 5 44 7t40 2q29 0 61.57t55.525q2520 3445t951q0451684t-4767q-423898.551t-116.513q-48 085.5 7t-77.5 24l85 399h-91l-1145q-41512.550t-18.568q-196530.598.5t-20.552.5t-23.540.5t-35.537.5t-45.522.5t-54.510.5l-425l-12 92l27 7q9 2 27 10t32 25q11 14 19 30t14 31q13 33 23.5 66t20.5 68q8 28 15.5 59t17.5 70l16 64h337zM430 94q42 16.55.5t34.53.5q29 0 46 6.5t26 14.5q11 11 19.5 29t8.5 44q0 113 23.5t-17 23.5q-11 823 10t-26 2q-21 0342t-194z" /><glyph glyph-name="afii10107" unicode="&#x45a;" horiz-adv-x="778" d="M493 324q21 5 44 7t40 2q29 0 61.57t55.525q2520 3445t951q03713.577.5t-49.573.5q-24225235t-56.520t-569t-50.52q-48 086 8t-77 25l43 202h-138l-47223h-132l106 500l138 25l-45208h138l39 183l138 25zM444 94q42 16.55.5t34.53.5q29 0 46 6.5t26 14.5q11 11 19.5 29t8.5 44q0 113 23.5t-17 23.5q-11 823 10t-26 2q-21 0342t-194z" /><glyph glyph-name="afii10108" unicode="&#x45b;" horiz-adv-x="572" d="M535 423q012227t-738l-76358h-131l73 344q4 17 4 33q0 2010 28.5t-31 8.5q-14 030.57t-33.518t-33.525.5t-28.530.5l-71333h-133l120 561q0 2 1 4h-49l15 68h46q1 9 1.5 18t0.5 17q0 111 19t-3 16l135 43q515 543q0161.534t-3.536h199l-3868h-174l-1151q-16315t-4.518t-517t-4.512q29 32 74 53t92 21q61 0 9026.5t2976.5z" /><glyph glyph-name="afii10109" unicode="&#x45c;" d="M22 0l106 500l137 25l-37164l-33105h2l24 42q16 28 33.5 55.5t49.5 59.5q20 20 41 36.5t47 30.5q28 15 61 26.5t67 18.5l2590l-206q-2374918t-52.527.5t-51.538.5t-4652q242 4610t3526q811 1328t632l259q04 1.516.5t6.519.5q810 2313l288l-3891l-46 5q-23 245.5 10.5t-35.5 30.5q-8 1410.5 30t-3.5 42l-2 68q0 61.5 12.5t-9.5 11.5q-6 414 5.5t-14 1.5q-32395986.5t-60120.5h-126zM257 554l-40 75l231 133l48105z" /><glyph glyph-name="uni045D" unicode="&#x45d;" horiz-adv-x="547" d="M447 133q-5262.556t13.548l-11646q-9 1415.5 32t-8.5 36q-29266645t-8219q-60 092.5 28t-32.5 76q0 14 2 33.5t8 47.5l69 328l138 25l-70329q-5207.539t-2.530q017 1028t2211q15 0 31.5 7.5t31.5 18.5t27 24.5t20 25.5l71 333l135 27zM431 557l-216 100l66 106l196134z" /><glyph glyph-name="afii10110" unicode="&#x45e;" horiz-adv-x="514" d="M2788q-213738.564.5t-33.547t-3133.5t-3124q-291963.530.5t-70.516.5l-27 90q23 5 48 13t42 19q15 9 26.5 18.5t21.5 21.5t19.5 27t21.5 35h-37q-1 142 32t-3 37.5t-4 38.5t-4 36l-46 360l138 16l25299q111 1.526.5t131.5t129t0.519q3 7 9.5 23.5t16 38.5t21 46t22.5 45l129 244h144zM515 713q-14283451t-4137q-26175725t-628q-36 062 9.5t-43 24.5q-15 1425.5 36.5t-12.5 50.5l78 29q39 1018.5t1817.5q1510 3012t282q15 0 32 2.5t33 11.5q10 5 23 16t20 20z" /><glyph glyph-name="afii10193" unicode="&#x45f;" horiz-adv-x="547" d="M130183l25 121l131 36l-33157h-123zM447 133q-5262.556t13.548l-11646q-9 1415.5 32t-8.5 36q-29266645t-8219q-60 092.5 28t-32.5 76q0 14 2 33.5t8 47.5l69 328l138 25l-70329q-5207.539t-2.530q017 1028t2211q15 0 31.5 7.5t31.5 18.5t27 24.5t20 25.5l71 333l135 27z" /><glyph glyph-name="afii10146" unicode="&#x462;" horiz-adv-x="595" d="M315 695l-1779h146l-2578h-138l-21102h91q21 0 43.51.5t446.5t4215t37.527q2726 34.558t7.561q04813.585.5t-3365t-42.546t-4229.5q-26156728t-9813h-239l114 538h-54l17 78h54l17 79h142zM270 112q16 0 43.5 6t52.5 32q18 20 27.5 47.5t9.5 50.5q0 257.5 38.5t-15.5 20.5q-14 1232.5 14.5t-32.5 2.5h-79l-45212h79z" /><glyph glyph-name="afii10194" unicode="&#x463;" horiz-adv-x="507" d="M250 458h122l-1976h-119l-1258q21 5 44 7t40 2q29 0 61.57t55.525q2520 3445t951q03713.577.5t-49.573.5q-24225235t-56.520t-569t-51.52q-49 086 7t-76 24l77 363h-47l18 76h45l9 42l138 25zM173 94q42 16.55.5t34.53.5q29 0 46 6.5t26 14.5q11 11 19.5 29t8.5 44q0 113 23.5t-17 23.5q-11 822.5 10t-22.5 2q-8 0241t-335z" /><glyph glyph-name="afii10147" unicode="&#x472;" horiz-adv-x="714" d="M702 454q06617.5132t-49124.5t-75104.5t-96.571q-35177525t-848q-65 0111.5 18.5t-77 51.5t-45 79t-14.5 100q0 74 17.5 137t45 114t62 89.5t68.5 62.5q15 11 34.5 22.5t44 20.5t56 14.5t71.5 5.5q57 0 10317.5t77.549.5t48.578.5t17104.5zM218 306q-5247.546.5t-2.542.5q067 32.594t85.527q30 0 60.5 11.5t54.5 40.5q23 28 41.5 69.5t32.5 88.5h-297zM545 483q0 5128.5 82t-85.5 31q-35 068.516.5t-54.544.5q-17223252t-2765h291q2 18 3.5 34.5t1.5 30.5z" /><glyph glyph-name="afii10195" unicode="&#x473;" horiz-adv-x="546" d="M512 347q06818132t-55114.5t-93.581t-132.530.5q-88 0135 46.5t-47 134.5q0 72 21.5 136t60 112t93 76t120.5 28q87 0 136.545t49.5130zM236 86q19 0 35.5 10t30 26.5t24.5 39t19 47.5h-168q-215328t-124q037 1754t4617zM368 347q0 4516 60.5t-46 15.5q-19 03510t-29.527.5t-24.540t-1946.5h167q3 25 3 48z" /><glyph glyph-name="afii10148" unicode="&#x474;" horiz-adv-x="595" d="M3055h-127l-87 700h149l36372q223 453t268q7 16 15.5 34.5t18 37t19 36t17.5 31.5l104 190q19 36 39 65t45 50.5t58.5 36t80.5 21.5l30102q-2784720.5t-36.530.5t-31.541.5t-3254.5z" /><glyph glyph-name="afii10196" unicode="&#x475;" horiz-adv-x="464" d="M321 378q19 35 38 59.5t41.5 41.5t49 27t60.5 17l2393q-22936.519t-2622t-2127.5t-21.535.5l-189326h-111l-79 504l138 17l25231q326 562t161q8 23 23.5 57.5t35.5 72.5z" /><glyph glyph-name="afii10050" unicode="&#x490;" horiz-adv-x="432" d="M418 695l20 97h135l-44212h-236l-124580h-144l148 695h245z" /><glyph glyph-name="afii10098" unicode="&#x491;" horiz-adv-x="439" d="M457 418h-209l-89418h-134l109 512h209l12 57l138 21z" /><glyph glyph-name="uni0492" unicode="&#x492;" horiz-adv-x="432" d="M509 580h-216l-39181h124l-1887h-124l-66312h-145l66 312h-94l18 87h95l63 296h379z" /><glyph glyph-name="uni0493" unicode="&#x493;" horiz-adv-x="448" d="M221 291q45 14 70.5 33t25.5 51q0 5161 51q-17 038.54t-38.511q-13526.512.5t-22.514.5l-44 83q17 13 33 21t35 15q29 11 60 16.5t65 5.5q71 0 11434t4390q0257.543.5t-2032t-2823.5t-31.518h86l-3467h-171q-451770.537t-25.543q050 6350q34 0 62 8t48 17q11 5 22 11.5t22 13.5l3291l-149q-18124221t-4414q-491310413q-81 0122.5 37t-41.5 92q0 42 23.5 67.5t57.5 39.5h-73l14 66h184z" /><glyph glyph-name="uni0496" unicode="&#x496;" horiz-adv-x="936" d="M971 614l-348q-14420.56.5t-14.57.5q-151024.526.5t-11.519.5l-3368q-16332648.5t-1823.5q-141435.524t-38.515q2911 4532q911 1632.5t939.5l10103q111 322.5t1021.5h71l-60288h-135l38 179q-14 725.5 15.5t-18.5 18.5q-11 1513.5 32.5t-3.5 53.5l-3 99q-1 176.5 36.5t-14.5 29.5q-14 1531.5 17.5t-29.5 2.5h-30l-66312h-138l66 312h-30q-11 0262t-3110.5t-3226t-2947.5l-44101q-9202143.5t-3142.5q-24235030.5t-429.5l-819l-6 97l20 6q8 2 22.5 7.5t20.5 8.5q14 7 23.5 18.5t20.5 32.5l51 103q19 39 50 66q17 14 36.5 23.5t39.5 14.5q-33 1150 33q-16 2017.5 37.5t-3.5 40.5l-6 68q-2 226.5 31.5t-9.5 14.5q-12 1129 14l-34 8l46 93l629q234 4010t2821q1418 15.536t2.534l589q115 333t1330q810 24.516t32.56h47l58 272h138l-58272h47q15 0 34.5 6t29.5 14q11 8 21 24t21 41l40 89q8 19 18.5 36.5t29.5 33.5q17 14 37 21t43 10l72 9z" /><glyph glyph-name="uni0497" unicode="&#x497;" horiz-adv-x="883" d="M857 108l-58273h-123l32 153h-11q-21 049.5 7.5t-51.5 34.5q-20 2429.5 58.5t-9.5 71.5q0 17 1.5 33t3.5 30h-59l-47223h-132l47 223h-62q-145941101t-4965q-232557.547t-86.522q-33 063 11t-53 38l67 82q815 21.524t29.59q23 0 37.5 12.5t28.5 35.5q23 38 43.5 93.5t20.5 118.5q0 142 33t-14 33q-7 814 11t-18 3q-14 033.58t-39.534l-43 73q29 34 67 50.5t83 16.5q27 0 529t4734q4147 41132v-16q07115h60l38 182l138 25l-44207h65q11 32 29.5 65.5t52.5 70.5q12 13 26 25.5t31 22.5t38.5 16t48.5 6q35 0 64.512.5t51.538.5l-6780q-6 1113.5 17.5t-15 10t-14 4.5t-9.5 1q-20 03613t-3034q-11172241t-20.552.5t-15.559t-659.5q015 234t1433q89 1511.5t162.5q32 0 56 22h72z" /><glyph glyph-name="uni049A" unicode="&#x49a;" horiz-adv-x="650" d="M680 614l-348q-82175t-189q-151024.526.5t-11.519.5l-3368q-16332648.5t-1823.5q-141435.524t-38.515q2911 4532q911 1632.5t939.5l10103q111 322.5t1021.5h71l-60288h-135l38 179q-14 725.5 15.5t-18.5 18.5q-11 1513.5 32.5t-3.5 53.5l-3 99q-1 176.5 36.5t-14.5 29.5q-14 1531.5 17.5t-29.5 2.5h-52l-66312h-142l148 695h142l-58272h69q15 0 34.5 6t29.5 14q11 8 21 24t21 41l40 89q8 19 18.5 36.5t29.5 33.5q17 14 37 21t43 10l72 9z" /><glyph glyph-name="uni049B" unicode="&#x49b;" d="M22 0l106 500l137 25l-37164l-33105h2l24 42q16 28 33.5 55.5t49.5 59.5q20 20 41 36.5t47 30.5q28 15 61 26.5t67 18.5l2590l-206q-2374918t-52.527.5t-51.538.5t-4652q242 4610t3526q811 1328t632l259q03 0.512.5t3.517.5h61l-58273h-123l37 175q-17 927 26q-8 1410.5 30t-3.5 42l-2 68q0 61.5 12.5t-9.5 11.5q-6 414 5.5t-14 1.5q-32395986.5t-60120.5h-126z" /><glyph glyph-name="uni049C" unicode="&#x49c;" horiz-adv-x="673" d="M415 552l-26121q15 4 24 12q11 8 21 24t21 41l40 89q8 19 18.5 36.5t29.5 33.5q17 14 37 21t43 10l72 9l893l-348q-82175t-189q-151024.526.5t-11.519.5l-3368q-16332648.5t-1823.5q-141435.524t-38.515q2911 4532q911 1632.5t939.5l10103q213 4.527t17.524q64 189t197l196l-4697l-74 9q-20 242 15t-33 27q-11 1513.5 32.5t-3.5 53.5l-3 99q-1 177 39t-22 34l-27124h-89l29 137h-41l-66312h-142l148 695h142l-58272h41l28 129h89z" /><glyph glyph-name="uni049D" unicode="&#x49d;" horiz-adv-x="583" d="M357 421l-2199q7 1 12.5 4t10.5 6q8 6 15 15t14 27l20 55q5 14 16 31.5t28 31.5q21 15 44 19.5t41 6.5l45 4l687l-235q-12318.54.5t-12.55.5q-1181817.5t-1016.5l-2046q-491120t-1720.5t-2317t-2910.5q5525 5790l146q09 219.5t1119.5q55 147.5t174.5l154l-3891l-43 5q-25 346 9.5t-35 27.5q-8 1112.5 30t-4.5 36l-1 56q0 3716 53q-2 26.5 5t-9.5 3l-22108h-72l24 116h-40l-47223h-132l106 500l137 25l-44208h40l22 104h74z" /><glyph glyph-name="uni04A2" unicode="&#x4a2;" horiz-adv-x="633" d="M530 116h67l-60288h-135l37 172h-75l66 310h-200l-66310h-139l148 695h139l-58270h200l58 270h142z" /><glyph glyph-name="uni04A3" unicode="&#x4a3;" horiz-adv-x="547" d="M22 0l106 500l138 25l-45208h138l39 183l138 25l-89417h62l-58273h-123l35 165h-71l47 223h-138l-47223h-132z" /><glyph glyph-name="uni04AE" unicode="&#x4ae;" horiz-adv-x="554" d="M356 286l-61286h-146l61 286l-129 409h162l48190q829 1149t540q10 15 24.5 38.5t31.5 48.5l131 192h171z" /><glyph glyph-name="uni04AF" unicode="&#x4af;" horiz-adv-x="455" d="M66 504l138 16l16192q217 234v-34q0190.535.5t-0.530.5q8 23 14.5 40t17.5 40l115 238h148l-295512q-111435t-6.552.5t-8.555.5t-943l-13332q13 64 21.5 110.5t13 84t6 69.5t1.5 67q0 1069 180z" /><glyph glyph-name="uni04B0" unicode="&#x4b0;" horiz-adv-x="554" d="M397 341h139l-1887h-169l-54254h-146l54 254h-162l18 87h133l-111 354h162l48190q829 1149t540q10 15 24.5 38.5t31.5 48.5l131 192h171z" /><glyph glyph-name="uni04B1" unicode="&#x4b1;" horiz-adv-x="455" d="M228 0q-111435t-6.552.5t-8.555.5t-943l-13332q15 75 22.5 125.5t9.5 92.5h-114l20 92h97v21q0 1069 180l-27 211l138 16l16192q217 234v-34q0190.535.5t-0.530.5q8 23 14.5 40t17.5 40l115 238h148l-242420h119l-4892h-117z" /><glyph glyph-name="uni04B2" unicode="&#x4b2;" horiz-adv-x="538" d="M384 366l91250h67l-60288h-135l37 172h-30l-74 240l-171240h-180l300 375l-122 320h163l61194l136 194h167z" /><glyph glyph-name="uni04B3" unicode="&#x4b3;" horiz-adv-x="468" d="M314 265l76157h75l-58273h-123l35 165h-35q-9 2619 51.5t-18.5 48t-14.5 41t-8 30.5q-6112233t-35.547.5t-39.550t-3340.5h-176l251 276l-96 213l138 37q615 13.534t1540t1441.5t11.537.5q9 14 22 33.5t27.5 39.5t27.5 37.5t21 28.5h162z" /><glyph glyph-name="uni04B6" unicode="&#x4b6;" horiz-adv-x="588" d="M481 116h67l-60288h-135l37 172h-71l61 285q-7321.57t-34.58.5t-44.57.5t-51.53q-12 026 1.5t-29 5.5t-29 11t-26 18q-20 2027 47t-7 49q0 11 0.5 18t2.5 15l58 271h138l-47218q-210422.5t-225.5q014 3.527t12.522q1111 2713t282q22 0 43.5 4t56.5 17l66 309h138z" /><glyph glyph-name="uni04B7" unicode="&#x4b7;" horiz-adv-x="500" d="M490 525l-89417h62l-58273h-123l35 165h-71l42 198q-261053.515t-50.55q-48 074 14.5t-37 31.5q-8 1211 25.5t-3 27.5q0 12 2 24t4 23l37 176l138 25l-40188q-312325q015 826q810 1912t192q12 0 29.5 3.5t34.5 11.5l45 213z" /><glyph glyph-name="uni04B8" unicode="&#x4b8;" horiz-adv-x="588" d="M319 0l61 285q-7320.57t-31.58l-30139h-88l27 128h-9q-12 026 1.5t-29 5.5t-29 11t-26 18q-20 2027 47t-7 49q0 11 0.5 18t2.5 15l58 271h138l-47218q-210422.5t-225.5q014 3.527t12.522q57 1510l30 138h88l-30138q21 4 52 16l66 309h138l-148695h-138z" /><glyph glyph-name="uni04B9" unicode="&#x4b9;" horiz-adv-x="514" d="M173 74l22 104h-11q-48 074 14.5t-37 31.5q-8 1211 25.5t-3 27.5q0 12 2 24t4 23l37 176l138 25l-40188q-312325q09 5.521t17.514l23 111h68l-24112q7 2 16.5 5t17.5 6l45 213l138 25l-112525h-132l42 198l-3410l-24114h-71z" /><glyph glyph-name="uni04BA" unicode="&#x4ba;" horiz-adv-x="582" d="M311 695l-61285q7 3 21.5 7t34.5 8.5t44.5 7.5t51.5 3q23 0 557t5529q2020 2747t749q0110.518t-2.515l-58271h-138l47 218q2 10 4 22.5t2 25.5q0 143.5 27t-12.5 22q-11 1127 13t-28 2q-22 043.54t-56.517l-66309h-138l148 695h138z" /><glyph glyph-name="uni04BB" unicode="&#x4bb;" horiz-adv-x="572" d="M535 423q012227t-738l-76358h-131l73 344q4 17 4 33q0 2010 28.5t-31 8.5q-14 030.57t-33.518t-33.525.5t-28.530.5l-71333h-133l120 561q8 38 11.5 63t3.5 44q0 111 19t-3 16l135 43q515 543q023351t-853l-1885q-16315t-4.518t-517t-4.512q29 32 74 53t92 21q61 0 9026.5t2976.5z" /><glyph glyph-name="uni04C0" unicode="&#x4c0;" horiz-adv-x="297" d="M170 0h-145l148 695h145z" /><glyph glyph-name="uni04CF" unicode="&#x4cf;" horiz-adv-x="272" d="M290 746q16 1.516t0.523q0252.556.5t-9.563.5l-125587h-137l118 555q8 35 12 62.5t4 49.5q0 214 36z" /><glyph glyph-name="uni04D8" unicode="&#x4d8;" horiz-adv-x="632" d="M24 170q0 47 22.5 89t65 73.5t105.5 50t144 18.5q13 0 27.51t27.52.5t22.53.5t13.53q4 17 6.5 40.5t2.5 40.5q0 6530.5 94.5t-81.5 29.5t-10022t-10053l-39 98q39 25 73 41.5t65.5 26.5t62 13.5t61.5 3.5q123 0 185.562t62.5185q0471099t-29.5102.5t-4796t-61.578.5q-4950104.571t-120.521q-49 090 10t-70.5 31.5t-46 56t-16.5 83.5zM183 184q038 18.563t66.525q51 0 94 43t67 148q-10 330 4.5t-37 1.5q-31 0636t-57.519t-4234t-16.550z" /><glyph glyph-name="afii10846" unicode="&#x4d9;" horiz-adv-x="516" d="M13 126q0 36 16.5 68t49 56t81 38t112.5 14q22 0 392.5t224.5q2 8 3.5 23t1.5 23q0 4422 63t-64 19q-35 070.514t-71.540l-34 84q52 36 103 53t105 17q92 0 14347t51141q0408.579.5t-23.576t-36.568.5t-46.557q-383781.552.5t-94.515.5q-38 070 8t-55 24.5t-36 43t-13 64.5zM148 137q023 1238t4215q38 0 66 26t43 93q-3 114.5 3t-23.5 2q-22 0444t-4012.5t-29.522t-11.532.5z" /><glyph glyph-name="uni04E2" unicode="&#x4e2;" horiz-adv-x="652" d="M383 0l73 344q3 13 7 31.5t9.5 38.5t10.5 40q5 18 8 35q-19413766q-17273453l-248370h-147l148 695h142l-73344q-7301771t-2176q22 40 39.5 67.5t34.5 53.5l248 370h147l-148695h-142zM584 748h-314l16 78h314z" /><glyph glyph-name="uni04E3" unicode="&#x4e3;" horiz-adv-x="547" d="M447 133q-5262.556t13.548l-11646q-9 1415.5 32t-8.5 36q-29266645t-8219q-60 092.5 28t-32.5 76q0 14 2 33.5t8 47.5l69 328l138 25l-70329q-5207.539t-2.530q017 1028t2211q15 0 31.5 7.5t31.5 18.5t27 24.5t20 25.5l71 333l135 27zM492 622h-294l19 92h294z" /><glyph glyph-name="uni04E8" unicode="&#x4e8;" horiz-adv-x="714" d="M702 454q06617.5132t-49124.5t-75104.5t-96.571q-35177525t-848q-65 0111.5 18.5t-77 51.5t-45 79t-14.5 100q0 74 17.5 137t45 114t62 89.5t68.5 62.5q15 11 34.5 22.5t44 20.5t56 14.5t71.5 5.5q57 0 10317.5t77.549.5t48.578.5t17104.5zM218 306q-5247.546.5t-2.542.5q067 32.594t85.527q30 0 60.5 11.5t54.5 40.5q23 28 41.5 69.5t32.5 88.5h-297zM545 483q0 5128.5 82t-85.5 31q-35 068.516.5t-54.544.5q-17223252t-2765h291q2 18 3.5 34.5t1.5 30.5z" /><glyph glyph-name="uni04E9" unicode="&#x4e9;" horiz-adv-x="546" d="M512 347q06818132t-55114.5t-93.581t-132.530.5q-88 0135 46.5t-47 134.5q0 72 21.5 136t60 112t93 76t120.5 28q87 0 136.545t49.5130zM236 86q19 0 35.5 10t30 26.5t24.5 39t19 47.5h-168q-215328t-124q037 1754t4617zM368 347q0 4516 60.5t-46 15.5q-19 03510t-29.527.5t-24.540t-1946.5h167q3 25 3 48z" /><glyph glyph-name="uni04EE" unicode="&#x4ee;" horiz-adv-x="560" d="M294 436q529 9.560t7.580q13 33 24 56.5t20.5 42t18.5 35t20 35.5l124 230h147l-274489q-417270118.5t-6370.5q-322370.532t-63.512l-354l-4 101l18 5q15 5 27.5 9.5t29.5 12.5q13 7 23.5 14t20 16t18.5 21.5t18 30.5l19 36l-6910l-94 490h150zM544 748h-314l16 78h314z" /><glyph glyph-name="uni04EF" unicode="&#x4ef;" horiz-adv-x="514" d="M2788q-213738.564.5t-33.547t-3133.5t-3124q-291963.530.5t-70.516.5l-27 90q23 5 48 13t42 19q15 9 26.5 18.5t21.5 21.5t19.5 27t21.5 35h-37q-1 142 32t-3 37.5t-4 38.5t-4 36l-46 360l138 16l25299q111 1.526.5t131.5t129t0.519q3 7 9.5 23.5t16 38.5t21 46t22.5 45l129 244h144zM476 622h-294l19 92h294z" /><glyph glyph-name="Wgrave" unicode="&#x1e80;" horiz-adv-x="822" d="M6064h-153l-2 281q0 35 0.5 64.5t2.5 55.5t4.5 51.5t5.5 51.5q-491131q-8231954t-24.566.5t-27.569.5l-118283h-156l-17 699h145l1274q0441.582.5t-3.569.5t-3.552t-2.529q14 44 34.5 102t49.5 124l122 281h151l-2311q023151.5t-2.556t-3.549.5q-120229q3 9 11 32q9 27 22 61.5t27.5 72t27.5 67.5l113 264h150zM616 720l-216 100l66 106l196134z" /><glyph glyph-name="wgrave" unicode="&#x1e81;" horiz-adv-x="699" d="M501 0h-123l-9 176q-2 312.5 64.5t0.5 59.5q1 18 1 27t2 24q-38514.5t-513t-6.515.5t-9.523q-7171840t-22.548.5t-2349.5t-19.542l-48105h-125l-33 503l134 15v-197q022148t-1.549.5t-1.540.5q-115118q1 4 7 19q7 17 17 41.5t23 54.5t28 60l85 172h126l5169q132 162v-54q024141.5t-123.5q3 8 9.5 26t15 41.5t18.5 49.5t21 50l78 183h140zM506 557l-216 100l66 106l196134z" /><glyph glyph-name="Wacute" unicode="&#x1e82;" horiz-adv-x="822" d="M6064h-153l-2 281q0 35 0.5 64.5t2.5 55.5t4.5 51.5t5.5 51.5q-491131q-8231954t-24.566.5t-27.569.5l-118283h-156l-17 699h145l1274q0441.582.5t-3.569.5t-3.552t-2.529q14 44 34.5 102t49.5 124l122 281h151l-2311q023151.5t-2.556t-3.549.5q-120229q3 9 11 32q9 27 22 61.5t27.5 72t27.5 67.5l113 264h150zM418 717l-40 75l231 133l48105z" /><glyph glyph-name="wacute" unicode="&#x1e83;" horiz-adv-x="699" d="M501 0h-123l-9 176q-2 312.5 64.5t0.5 59.5q1 18 1 27t2 24q-38514.5t-513t-6.515.5t-9.523q-7171840t-22.548.5t-2349.5t-19.542l-48105h-125l-33 503l134 15v-197q022148t-1.549.5t-1.540.5q-115118q1 4 7 19q7 17 17 41.5t23 54.5t28 60l85 172h126l5169q132 162v-54q024141.5t-123.5q3 8 9.5 26t15 41.5t18.5 49.5t21 50l78 183h140zM322 554l-40 75l231 133l48105z" /><glyph glyph-name="Wdieresis" unicode="&#x1e84;" horiz-adv-x="822" d="M6064h-153l-2 281q0 35 0.5 64.5t2.5 55.5t4.5 51.5t5.5 51.5q-491131q-8231954t-24.566.5t-27.569.5l-118283h-156l-17 699h145l1274q0441.582.5t-3.569.5t-3.552t-2.529q14 44 34.5 102t49.5 124l122 281h151l-2311q023151.5t-2.556t-3.549.5q-120229q3 9 11 32q9 27 22 61.5t27.5 72t27.5 67.5l113 264h150zM692 800q03222.554.5t-54.522.5t-54 22.5t-22 54.5q0 16 6 30t16.5 24.5t25 16.5t30.5 6q31 0 5322.5t2254.5zM481 800q03222.554.5t-54.522.5q-31 053.5 22.5t-22.5 54.5t23 54.5t55 22.5q31 0 5322.5t2254.5z" /></font>
</defs>
</svg>
