<?xml version="1.0" standalone="no"?>
<!DOCTYPE svg PUBLIC "-//W3C//DTD SVG 1.1//EN" "http://www.w3.org/Graphics/SVG/1.1/DTD/svg11.dtd" >
<svg xmlns="http://www.w3.org/2000/svg" xmlns:xlink="http://www.w3.org/1999/xlink" version="1.1">
<metadata>Created by FontForge 20150318 at Wed Oct 14 14:38:16 2015 By uniteet7</metadata>
<defs>
<font id="wwu_symbol" horiz-adv-x="1664" >
<font-face font-family="wwu_symbol" font-weight="400" font-stretch="normal" units-per-em="1792" panose-1="2 0 5 3 0 0 0 0 0 0" ascent="1536" descent="-256" bbox="-1-256 2304 1536" underline-thickness="0" underline-position="0" unicode-range="U+F005-F1E5" />
<missing-glyph horiz-adv-x="651" d="M59 0v1194h474v-1194h-474zM118 59h356v1076h-356v-1076z"/>
<glyph glyph-name="list" unicode="&#xf03a;" horiz-adv-x="1792" d="M256 224v-192q0-13-9.5-22.5t-22.5-9.5h-192q-13 0-22.5 9.5t-9.5 22.5v192q0 13 9.5 22.5t22.5 9.5h192q13 0 22.5-9.5t9.5-22.5zM256 608v-192q0-13-9.5-22.5t-22.5-9.5h-192q-13 0-22.5 9.5t-9.5 22.5v192q0 13 9.5 22.5t22.5 9.5h192q13 0 22.5-9.5 t9.5-22.5zM256 992v-192q0-13-9.5-22.5t-22.5-9.5h-192q-13 0-22.5 9.5t-9.5 22.5v192q0 13 9.5 22.5t22.5 9.5h192q13 0 22.5-9.5t9.5-22.5zM1792 224v-192q0-13-9.5-22.5t-22.5-9.5h-1344q-13 0-22.5 9.5t-9.5 22.5v192q0 13 9.5 22.5t22.5 9.5h1344 q13 0 22.5-9.5t9.5-22.5zM256 1376v-192q0-13-9.5-22.5t-22.5-9.5h-192q-13 0-22.5 9.5t-9.5 22.5v192q0 13 9.5 22.5t22.5 9.5h192q13 0 22.5-9.5t9.5-22.5zM1792 608v-192q0-13-9.5-22.5t-22.5-9.5h-1344q-13 0-22.5 9.5t-9.5 22.5v192q0 13 9.5 22.5 t22.5 9.5h1344q13 0 22.5-9.5t9.5-22.5zM1792 992v-192q0-13-9.5-22.5t-22.5-9.5h-1344q-13 0-22.5 9.5t-9.5 22.5v192q0 13 9.5 22.5t22.5 9.5h1344q13 0 22.5-9.5t9.5-22.5zM1792 1376v-192q0-13-9.5-22.5t-22.5-9.5h-1344q-13 0-22.5 9.5t-9.5 22.5v192 q0 13 9.5 22.5t22.5 9.5h1344q13 0 22.5-9.5t9.5-22.5z" />
<glyph glyph-name="star" unicode="&#xf005;" d="M1664 889q0-22-26-48l-363-354l86-500q1-7 1-20q0-21-10.5-35.5t-30.5-14.5q-19 0-40 12l-449 236l-449-236q-22-12-40-12q-21 0-31.5 14.5t-10.5 35.5q0 6 2 20l86 500l-364 354q-25 27-25 48q0 37 56 46l502 73l225 455q19 41 49 41t49-41l225-455l502-73q56-9 56-46z"/>
<glyph glyph-name="user" unicode="&#xf007;" horiz-adv-x="1408" d="M1408 131q0-120-73-189.5t-194-69.5h-874q-121 0-194 69.5t-73 189.5q0 53 3.5 103.5t14 109t26.5 108.5t43 97.5t62 81t85.5 53.5t111.5 20q9 0 42-21.5t74.5-48t108-48t133.5-21.5t133.5 21.5t108 48t74.5 48t42 21.5q61 0 111.5-20t85.5-53.5t62-81t43-97.5t26.5-108.5t14-109t3.5-103.5zM1088 1024q0-159-112.5-271.5t-271.5-112.5t-271.5 112.5t-112.5 271.5t112.5 271.5t271.5 112.5t271.5-112.5t112.5-271.5z"/>
<glyph glyph-name="download" unicode="&#xf019;" d="M1280 192q0 26-19 45t-45 19t-45-19t-19-45t19-45t45-19t45 19t19 45zM1536 192q0 26-19 45t-45 19t-45-19t-19-45t19-45t45-19t45 19t19 45zM1664 416v-320q0-40-28-68t-68-28h-1472q-40 0-68 28t-28 68v320q0 40 28 68t68 28h465l135-136q58-56 136-56t136 56l136 136h464q40 0 68-28t28-68zM1339 985q6-15 6-28q0-23-20-42l-448-448q-18-19-45-19t-45 19l-448 448q-20 19-20 42q0 13 6 28q16 39 59 39h256v448q0 26 19 45t45 19h256q26 0 45-19t19-45v-448h256q43 0 59-39z"/>
<glyph glyph-name="book" unicode="&#xf02d;" d="M1639 1058q26-37 26-80q0-24-8-49l-275-906q-19-64-76.5-107.5t-122.5-43.5h-923q-77 0-148 54q-71 52-100 131q-13 35-13 68q1 32 11 59q0 4 3 27t4 37q1 8-3 21.5t-3 19.5q2 11 8 21t16.5 23.5t16.5 23.5q23 38 45 91.5t30 91.5q3 10 0.5 30t-0.5 28q3 11 17 28t17 23q21 36 42 92t25 90q1 9-2.5 32t0.5 28q4 13 22 30.5t22 22.5q19 26 42.5 84.5t27.5 96.5q1 8-3 25.5t-2 26.5q2 8 9 18t18 23t17 21q8 12 16.5 30.5t15 35t16 36t19.5 32t26.5 23.5t36 11.5t47.5-5.5l-1-3q38 9 51 9h761q74 0 114-56q26-36 26-80q0-24-8-50l-274-906q-36-119-71.5-153.5t-128.5-34.5h-869q-27 0-38-15q-11-16-1-43q24-70 144-70h923q29 0 56 15.5t35 41.5l300 987q5 17 5 42q1 6 0 15q38-15 59-43zM575 1056q-4-13 2-22.5t20-9.5h608q13 0 25.5 9.5t16.5 22.5l21 64q4 13-2 22.5t-20 9.5h-608q-13 0-25.5-9.5t-16.5-22.5zM492 800q-4-13 2-22.5t20-9.5h608q13 0 25.5 9.5t16.5 22.5l21 64q4 13-2 22.5t-20 9.5h-608q-13 0-25.5-9.5t-16.5-22.5z"/>
<glyph glyph-name="camera" unicode="&#xf030;" horiz-adv-x="1920" d="M960 864q119 0 203.5-84.5t84.5-203.5t-84.5-203.5t-203.5-84.5t-203.5 84.5t-84.5 203.5t84.5 203.5t203.5 84.5zM1664 1280q106 0 181-75t75-181v-896q0-106-75-181t-181-75h-1408q-106 0-181 75t-75 181v896q0 106 75 181t181 75h224l51 136 q19 49 69.5 84.5t103.5 35.5h512q53 0 103.5-35.5t69.5-84.5l51-136h224zM960 128q185 0 316.5 131.5t131.5 316.5t-131.5 316.5t-316.5 131.5t-316.5-131.5t-131.5-316.5t131.5-316.5t316.5-131.5z" />
<glyph glyph-name="map-marker" unicode="&#xf041;" horiz-adv-x="1024" d="M768 896q0 106-75 181t-181 75t-181-75t-75-181t75-181t181-75t181 75t75 181zM1024 896q0-109-33-179l-364-774q-16-33-47.5-52t-67.5-19t-67.5 19t-46.5 52l-365 774q-33 70-33 179q0 212 150 362t362 150t362-150t150-362z"/>
<glyph glyph-name="check-square-o" unicode="&#xf046;" d="M1408 606v-318q0-119-84.5-203.5t-203.5-84.5h-832q-119 0-203.5 84.5t-84.5 203.5v832q0 119 84.5 203.5t203.5 84.5h832q63 0 117-25q15-7 18-23q3-17-9-29l-49-49q-10-10-23-10q-3 0-9 2q-23 6-45 6h-832q-66 0-113-47t-47-113v-832q0-66 47-113t113-47h832q66 0 113 47t47 113v254q0 13 9 22l64 64q10 10 23 10q6 0 12-3q20-8 20-29zM1639 1095l-814-814q-24-24-57-24t-57 24l-430 430q-24 24-24 57t24 57l110 110q24 24 57 24t57-24l263-263l647 647q24 24 57 24t57-24l110-110q24-24 24-57t-24-57z"/>
<glyph glyph-name="chevron-right" unicode="&#xf054;" d="M472 1500q384-488 695-808q-291-292-695-804l-103 64l414 740l-414 744z"/>
<glyph glyph-name="info-circle" unicode="&#xf05a;" horiz-adv-x="1536" d="M1024 160v160q0 14-9 23t-23 9h-96v512q0 14-9 23t-23 9h-320q-14 0-23-9t-9-23v-160q0-14 9-23t23-9h96v-320h-96q-14 0-23-9t-9-23v-160q0-14 9-23t23-9h448q14 0 23 9t9 23zM896 1056v160q0 14-9 23t-23 9h-192q-14 0-23-9t-9-23v-160q0-14 9-23t23-9h192q14 0 23 9t9 23zM1536 640q0-209-103-385.5t-279.5-279.5t-385.5-103t-385.5 103t-279.5 279.5t-103 385.5t103 385.5t279.5 279.5t385.5 103t385.5-103t279.5-279.5t103-385.5z"/>
<glyph glyph-name="exclamation-circle" unicode="&#xf06a;" horiz-adv-x="1536" d="M768 1408q209 0 385.5-103t279.5-279.5t103-385.5t-103-385.5t-279.5-279.5t-385.5-103t-385.5 103t-279.5 279.5t-103 385.5t103 385.5t279.5 279.5t385.5 103zM896 161v190q0 14-9 23.5t-22 9.5h-192q-13 0-23-10t-10-23v-190q0-13 10-23t23-10h192q13 0 22 9.5t9 23.5zM894 505l18 621q0 12-10 18q-10 8-24 8h-220q-14 0-24-8q-10-6-10-18l17-621q0-10 10-17.5t24-7.5h185q14 0 23.5 7.5t10.5 17.5z"/>
<glyph glyph-name="calendar" unicode="&#xf073;" d="M128-128h288v288h-288v-288zM480-128h320v288h-320v-288zM128 224h288v320h-288v-320zM480 224h320v320h-320v-320zM128 608h288v288h-288v-288zM864-128h320v288h-320v-288zM480 608h320v288h-320v-288zM1248-128h288v288h-288v-288zM864 224h320v320h-320v-320zM512 1088v288q0 13-9.5 22.5t-22.5 9.5h-64q-13 0-22.5-9.5t-9.5-22.5v-288q0-13 9.5-22.5t22.5-9.5h64q13 0 22.5 9.5t9.5 22.5zM1248 224h288v320h-288v-320zM864 608h320v288h-320v-288zM1248 608h288v288h-288v-288zM1280 1088v288q0 13-9.5 22.5t-22.5 9.5h-64q-13 0-22.5-9.5t-9.5-22.5v-288q0-13 9.5-22.5t22.5-9.5h64q13 0 22.5 9.5t9.5 22.5zM1664 1152v-1280q0-52-38-90t-90-38h-1408q-52 0-90 38t-38 90v1280q0 52 38 90t90 38h128v96q0 66 47 113t113 47h64q66 0 113-47t47-113v-96h384v96q0 66 47 113t113 47h64q66 0 113-47t47-113v-96h128q52 0 90-38t38-90z"/>
<glyph glyph-name="bar-chart" unicode="&#xf080;" horiz-adv-x="2048" d="M640 640v-512h-256v512h256zM1024 1152v-1024h-256v1024h256zM2048 0v-128h-2048v1536h128v-1408h1920zM1408 896v-768h-256v768h256zM1792 1280v-1152h-256v1152h256z" />
<glyph glyph-name="cogs" unicode="&#xf085;" horiz-adv-x="1920" d="M896 640q0 106-75 181t-181 75t-181-75t-75-181t75-181t181-75t181 75t75 181zM1664 128q0 52-38 90t-90 38t-90-38t-38-90q0-53 37.5-90.5t90.5-37.5t90.5 37.5t37.5 90.5zM1664 1152q0 52-38 90t-90 38t-90-38t-38-90q0-53 37.5-90.5t90.5-37.5 t90.5 37.5t37.5 90.5zM1280 731v-185q0-10-7-19.5t-16-10.5l-155-24q-11-35-32-76q34-48 90-115q7-10 7-20q0-12-7-19q-23-30-82.5-89.5t-78.5-59.5q-11 0-21 7l-115 90q-37-19-77-31q-11-108-23-155q-7-24-30-24h-186q-11 0-20 7.5t-10 17.5 l-23 153q-34 10-75 31l-118-89q-7-7-20-7q-11 0-21 8q-144 133-144 160q0 9 7 19q10 14 41 53t47 61q-23 44-35 82l-152 24q-10 1-17 9.5t-7 19.5v185q0 10 7 19.5t16 10.5l155 24q11 35 32 76q-34 48-90 115q-7 11-7 20q0 12 7 20q22 30 82 89t79 59q11 0 21-7 l115-90q34 18 77 32q11 108 23 154q7 24 30 24h186q11 0 20-7.5t10-17.5l23-153q34-10 75-31l118 89q8 7 20 7q11 0 21-8q144-133 144-160q0-9-7-19q-12-16-42-54t-45-60q23-48 34-82l152-23q10-2 17-10.5t7-19.5zM1920 198v-140q0-16-149-31 q-12-27-30-52q51-113 51-138q0-4-4-7q-122-71-124-71q-8 0-46 47t-52 68q-20-2-30-2t-30 2q-14-21-52-68t-46-47q-2 0-124 71q-4 3-4 7q0 25 51 138q-18 25-30 52q-149 15-149 31v140q0 16 149 31q13 29 30 52q-51 113-51 138q0 4 4 7q4 2 35 20 t59 34t30 16q8 0 46-46.5t52-67.5q20 2 30 2t30-2q51 71 92 112l6 2q4 0 124-70q4-3 4-7q0-25-51-138q17-23 30-52q149-15 149-31zM1920 1222v-140q0-16-149-31q-12-27-30-52q51-113 51-138q0-4-4-7q-122-71-124-71q-8 0-46 47t-52 68 q-20-2-30-2t-30 2q-14-21-52-68t-46-47q-2 0-124 71q-4 3-4 7q0 25 51 138q-18 25-30 52q-149 15-149 31v140q0 16 149 31q13 29 30 52q-51 113-51 138q0 4 4 7q4 2 35 20t59 34t30 16q8 0 46-46.5t52-67.5q20 2 30 2t30-2q51 71 92 112l6 2q4 0 124-70 q4-3 4-7q0-25-51-138q17-23 30-52q149-15 149-31z" />
<glyph glyph-name="trophy" unicode="&#xf091;" horiz-adv-x="1664" d="M458 653q-74 162-74 371h-256v-96q0-78 94.5-162t235.5-113zM1536 928v96h-256q0-209-74-371q141 29 235.5 113t94.5 162zM1664 1056v-128q0-71-41.5-143t-112-130t-173-97.5t-215.5-44.5q-42-54-95-95q-38-34-52.5-72.5t-14.5-89.5q0-54 30.5-91 t97.5-37q75 0 133.5-45.5t58.5-114.5v-64q0-14-9-23t-23-9h-832q-14 0-23 9t-9 23v64q0 69 58.5 114.5t133.5 45.5q67 0 97.5 37t30.5 91q0 51-14.5 89.5t-52.5 72.5q-53 41-95 95q-113 5-215.5 44.5t-173 97.5t-112 130t-41.5 143v128q0 40 28 68t68 28h288v96 q0 66 47 113t113 47h576q66 0 113-47t47-113v-96h288q40 0 68-28t28-68z" />
<glyph glyph-name="square-o" unicode="&#xf096;" horiz-adv-x="1408" d="M1120 1280h-832q-66 0-113-47t-47-113v-832q0-66 47-113t113-47h832q66 0 113 47t47 113v832q0 66-47 113t-113 47zM1408 1120v-832q0-119-84.5-203.5t-203.5-84.5h-832q-119 0-203.5 84.5t-84.5 203.5v832q0 119 84.5 203.5t203.5 84.5h832q119 0 203.5-84.5t84.5-203.5z"/>
<glyph glyph-name="twitter" unicode="&#xf099;" d="M1620 1128q-67-98-162-167q1-14 1-42q0-130-38-259.5t-115.5-248.5t-184.5-210.5t-258-146t-323-54.5q-271 0-496 145q35-4 78-4q225 0 401 138q-105 2-188 64.5t-114 159.5q33-5 61-5q43 0 85 11q-112 23-185.5 111.5t-73.5 205.5v4q68-38 146-41q-66 44-105 115t-39 154q0 88 44 163q121-149 294.5-238.5t371.5-99.5q-8 38-8 74q0 134 94.5 228.5t228.5 94.5q140 0 236-102q109 21 205 78q-37-115-142-178q93 10 186 50z"/>
<glyph glyph-name="facebook" unicode="&#xf09a;" horiz-adv-x="1024" d="M959 1524v-264h-157q-86 0-116-36t-30-108v-189h293l-39-296h-254v-759h-306v759h-255v296h255v218q0 186 104 288.5t277 102.5q147 0 228-12z"/>
<glyph glyph-name="bullhorn" unicode="&#xf0a1;" horiz-adv-x="1792" d="M1664 896q53 0 90.5 -37.5t37.5 -90.5t-37.5 -90.5t-90.5 -37.5v-384q0 -52 -38 -90t-90 -38q-417 347 -812 380q-58 -19 -91 -66t-31 -100.5t40 -92.5q-20 -33 -23 -65.5t6 -58t33.5 -55t48 -50t61.5 -50.5q-29 -58 -111.5 -83t-168.5 -11.5t-132 55.5q-7 23 -29.5 87.5 t-32 94.5t-23 89t-15 101t3.5 98.5t22 110.5h-122q-66 0 -113 47t-47 113v192q0 66 47 113t113 47h480q435 0 896 384q52 0 90 -38t38 -90v-384zM1536 292v954q-394 -302 -768 -343v-270q377 -42 768 -341z" />
<glyph glyph-name="arrow-right-circle" unicode="&#xf0a9;" horiz-adv-x="1536" d="M768 1408q209 0 385.5-103t279.5-279.5t103-385.5t-103-385.5t-279.5-279.5t-385.5-103t-385.5 103t-279.5 279.5t-103 385.5t103 385.5t279.5 279.5t385.5 103zM768 1331q-139 0-269-55q-124-53-220-147q-95-94-148-220q-54-128-54-269q0-139 55-269q53-124 147-220q94-95 220-148q128-54 269-54q139 0 269 55q124 53 220 147q95 94 148 220q54 128 54 269q0 139-55 269q-54 128-147 220q-92 93-220 147.5t-269 54.5zM495 970q157-199 284-331q-119-119-284-329l-41 27l169 302l-169 304zM798 970q157-199 284-331q-119-119-284-329l-41 27l169 302l-169 304z"/>
<glyph glyph-name="link" unicode="&#xf0c1;" d="M1456 320q0 40-28 68l-208 208q-28 28-68 28q-42 0-72-32q3-3 19-18.5t21.5-21.5t15-19t13-25.5t3.5-27.5q0-40-28-68t-68-28q-15 0-27.5 3.5t-25.5 13t-19 15t-21.5 21.5t-18.5 19q-33-31-33-73q0-40 28-68l206-207q27-27 68-27q40 0 68 26l147 146q28 28 28 67zM753 1025q0 40-28 68l-206 207q-28 28-68 28q-39 0-68-27l-147-146q-28-28-28-67q0-40 28-68l208-208q27-27 68-27q42 0 72 31q-3 3-19 18.5t-21.5 21.5t-15 19t-13 25.5t-3.5 27.5q0 40 28 68t68 28q15 0 27.5-3.5t25.5-13t19-15t21.5-21.5t18.5-19q33 31 33 73zM1648 320q0-120-85-203l-147-146q-83-83-203-83q-121 0-204 85l-206 207q-83 83-83 203q0 123 88 209l-88 88q-86-88-208-88q-120 0-204 84l-208 208q-84 84-84 204t85 203l147 146q83 83 203 83q121 0 204-85l206-207q83-83 83-203q0-123-88-209l88-88q86 88 208 88q120 0 204-84l208-208q84-84 84-204z"/>
<glyph glyph-name="bars" unicode="&#xf0c9;" d="M1536 192v-128q0-26-19-45t-45-19h-1408q-26 0-45 19t-19 45v128q0 26 19 45t45 19h1408q26 0 45-19t19-45zM1536 704v-128q0-26-19-45t-45-19h-1408q-26 0-45 19t-19 45v128q0 26 19 45t45 19h1408q26 0 45-19t19-45zM1536 1216v-128q0-26-19-45 t-45-19h-1408q-26 0-45 19t-19 45v128q0 26 19 45t45 19h1408q26 0 45-19t19-45z"/>
<glyph glyph-name="envelope" unicode="&#xf0e0;" horiz-adv-x="1792" d="M1792 826v-794q0-66-47-113t-113-47h-1472q-66 0-113 47t-47 113v794q44-49 101-87q362-246 497-345q57-42 92.5-65.5t94.5-48t110-24.5h1h1q51 0 110 24.5t94.5 48t92.5 65.5q170 123 498 345q57 39 100 87zM1792 1120q0-79-49-151t-122-123q-376-261-468-325q-10-7-42.5-30.5t-54-38t-52-32.5t-57.5-27t-50-9h-1h-1q-23 0-50 9t-57.5 27t-52 32.5t-54 38t-42.5 30.5q-91 64-262 182.5t-205 142.5q-62 42-117 115.5t-55 136.5q0 78 41.5 130t118.5 52h1472q65 0 112.5-47t47.5-113z"/>
<glyph glyph-name="lightbulb-o" unicode="&#xf0eb;" horiz-adv-x="1024" d="M736 960q0-13-9.5-22.5t-22.5-9.5t-22.5 9.5t-9.5 22.5q0 46-54 71t-106 25q-13 0-22.5 9.5t-9.5 22.5t9.5 22.5t22.5 9.5q50 0 99.5-16t87-54t37.5-90zM896 960q0 72-34.5 134t-90 101.5t-123 62t-136.5 22.5t-136.5-22.5t-123-62t-90-101.5t-34.5-134q0-101 68-180q10-11 30.5-33t30.5-33q128-153 141-298h228q13 145 141 298q10 11 30.5 33t30.5 33q68 79 68 180zM1024 960q0-155-103-268q-45-49-74.5-87t-59.5-95.5t-34-107.5q47-28 47-82q0-37-25-64q25-27 25-64q0-52-45-81q13-23 13-47q0-46-31.5-71t-77.5-25q-20-44-60-70t-87-26t-87 26t-60 70q-46 0-77.5 25t-31.5 71q0 24 13 47q-45 29-45 81q0 37 25 64q-25 27-25 64q0 54 47 82q-4 50-34 107.5t-59.5 95.5t-74.5 87q-103 113-103 268q0 99 44.5 184.5t117 142t164 89t186.5 32.5t186.5-32.5t164-89t117-142t44.5-184.5z"/>
<glyph glyph-name="laptop" unicode="&#xf109;" horiz-adv-x="1920" d="M416 256q-66 0-113 47t-47 113v704q0 66 47 113t113 47h1088q66 0 113-47t47-113v-704q0-66-47-113t-113-47h-1088zM384 1120v-704q0-13 9.5-22.5t22.5-9.5h1088q13 0 22.5 9.5t9.5 22.5v704q0 13-9.5 22.5t-22.5 9.5h-1088q-13 0-22.5-9.5t-9.5-22.5zM1760 192h160v-96q0-40-47-68t-113-28h-1600q-66 0-113 28t-47 68v96h160h1600zM1040 96q16 0 16 16t-16 16h-160q-16 0-16-16t16-16h160z"/>
<glyph glyph-name="spinner" unicode="&#xf110;" horiz-adv-x="1792" d="M526 142q0-53-37.5-90.5t-90.5-37.5q-52 0-90 38t-38 90q0 53 37.5 90.5t90.5 37.5t90.5-37.5t37.5-90.5zM1024-64q0-53-37.5-90.5t-90.5-37.5t-90.5 37.5t-37.5 90.5t37.5 90.5t90.5 37.5t90.5-37.5t37.5-90.5zM320 640q0-53-37.5-90.5t-90.5-37.5 t-90.5 37.5t-37.5 90.5t37.5 90.5t90.5 37.5t90.5-37.5t37.5-90.5zM1522 142q0-52-38-90t-90-38q-53 0-90.5 37.5t-37.5 90.5t37.5 90.5t90.5 37.5t90.5-37.5t37.5-90.5zM558 1138q0-66-47-113t-113-47t-113 47t-47 113t47 113t113 47t113-47t47-113z M1728 640q0-53-37.5-90.5t-90.5-37.5t-90.5 37.5t-37.5 90.5t37.5 90.5t90.5 37.5t90.5-37.5t37.5-90.5zM1088 1344q0-80-56-136t-136-56t-136 56t-56 136t56 136t136 56t136-56t56-136zM1618 1138q0-93-66-158.5t-158-65.5q-93 0-158.5 65.5t-65.5 158.5 q0 92 65.5 158t158.5 66q92 0 158-66t66-158z" />
<glyph glyph-name="mobile" unicode="&#xf10b;" horiz-adv-x="768" d="M464 128q0 33-23.5 56.5t-56.5 23.5t-56.5-23.5t-23.5-56.5t23.5-56.5t56.5-23.5t56.5 23.5t23.5 56.5zM672 288v704q0 13-9.5 22.5t-22.5 9.5h-512q-13 0-22.5-9.5t-9.5-22.5v-704q0-13 9.5-22.5t22.5-9.5h512q13 0 22.5 9.5t9.5 22.5zM480 1136q0 16-16 16h-160q-16 0-16-16t16-16h160q16 0 16 16zM768 1152v-1024q0-52-38-90t-90-38h-512q-52 0-90 38t-38 90v1024q0 52 38 90t90 38h512q52 0 90-38t38-90z"/>
<glyph glyph-name="circle-o" unicode="&#xf10c;" horiz-adv-x="1536" d="M768 1184q-148 0-273-73t-198-198t-73-273t73-273t198-198t273-73t273 73t198 198t73 273t-73 273t-198 198t-273 73zM1536 640q0-209-103-385.5t-279.5-279.5t-385.5-103t-385.5 103t-279.5 279.5t-103 385.5t103 385.5t279.5 279.5t385.5 103t385.5-103t279.5-279.5t103-385.5z"/>
<glyph glyph-name="quote-left" unicode="&#xf10d;" d="M768 1408q209 0 385.5-103t279.5-279.5t103-385.5t-103-385.5t-279.5-279.5t-385.5-103t-385.5 103t-279.5 279.5t-103 385.5t103 385.5t279.5 279.5t385.5 103zM610 987q-51 0-98-20t-81-54q-35-35-54-80q-20-47-20-98v-348q0-40 28-67t67-27h190q41 0 67 27q27 28 27 67v190q0 40-27 67q-28 28-67 28h-111q-20 0-34 14q-13 13-13 33v16q0 52 37 89t89 37h32q14 0 22 9q9 10 9 23v63q0 14-9 22q-10 9-22 9h-32zM1052 987q-52 0-98-20t-80-54q-35-35-54-80q-20-47-20-98v-348q0-41 27-67q28-27 67-27h190q40 0 67 27q28 28 28 67v190q0 39-28 67t-67 28h-111q-18 0-33 14q-14 13-14 33v16q0 52 37 89t89 37h32q14 0 22 9q9 10 9 23v63q0 13-9 22t-22 9h-32z"/>
<glyph glyph-name="chevron-circle-right" unicode="&#xf138;" horiz-adv-x="1536" d="M768 1408q209 0 385.5-103t279.5-279.5t103-385.5t-103-385.5t-279.5-279.5t-385.5-103t-385.5 103t-279.5 279.5t-103 385.5t103 385.5t279.5 279.5t385.5 103zM768 1331q-139 0-269-55q-124-53-220-147q-95-94-148-220q-54-128-54-269q0-139 55-269q53-124 147-220q94-95 220-148q128-54 269-54q139 0 269 55q124 53 220 147q95 94 148 220q54 128 54 269q0 139-55 269q-54 128-147 220q-92 93-220 147.5t-269 54.5zM647 969q157-199 284-330q-119-119-284-328l-42 26l169 302l-169 304z"/>
<glyph glyph-name="unlock-alt" unicode="&#xf13e;" horiz-adv-x="1152" d="M1056 768q40 0 68-28t28-68v-576q0-40-28-68t-68-28h-960q-40 0-68 28t-28 68v576q0 40 28 68t68 28h32v320q0 185 131.5 316.5t316.5 131.5t316.5-131.5t131.5-316.5q0-26-19-45t-45-19h-64q-26 0-45 19t-19 45q0 106-75 181t-181 75t-181-75t-75-181v-320h736z"/>
<glyph glyph-name="rss-square" unicode="&#xf143;" horiz-adv-x="1536" d="M512 256q0 53-37.5 90.5t-90.5 37.5t-90.5-37.5t-37.5-90.5t37.5-90.5t90.5-37.5t90.5 37.5t37.5 90.5zM863 162q-13 232-177 396t-396 177q-14 1-24-9t-10-23v-128q0-13 8.5-22t21.5-10q154-11 264-121t121-264q1-13 10-21.5t22-8.5h128q13 0 23 10t9 24zM1247 161q-5 154-56 297.5t-139.5 260t-205 205t-260 139.5t-297.5 56q-14 1-23-9q-10-10-10-23v-128q0-13 9-22t22-10q204-7 378-111.5t278.5-278.5t111.5-378q1-13 10-22t22-9h128q13 0 23 10q11 9 9 23zM1536 1120v-960q0-119-84.5-203.5t-203.5-84.5h-960q-119 0-203.5 84.5t-84.5 203.5v960q0 119 84.5 203.5t203.5 84.5h960q119 0 203.5-84.5t84.5-203.5z"/>
<glyph glyph-name="sort-alpha-asc" unicode="&#xf15d;" d="M1191 1128h177l-72 218l-12 47q-2 16-2 20h-4l-3-20q0-1-3.5-18t-7.5-29zM736 96q0-12-10-24l-319-319q-10-9-23-9q-12 0-23 9l-320 320q-15 16-7 35q8 20 30 20h192v1376q0 14 9 23t23 9h192q14 0 23-9t9-23v-1376h192q14 0 23-9t9-23zM1572-23v-233h-584v90l369 529q12 18 21 27l11 9v3q-2 0-6.5-0.5t-7.5-0.5q-12-3-30-3h-232v-115h-120v229h567v-89l-369-530q-6-8-21-26l-11-11v-2l14 2q9 2 30 2h248v119h121zM1661 874v-106h-288v106h75l-47 144h-243l-47-144h75v-106h-287v106h70l230 662h162l230-662h70z"/>
<glyph glyph-name="youtube-play" unicode="&#xf16a;" horiz-adv-x="1792" d="M1280 640q0 37-30 54l-512 320q-16 11-33 11q-17-1-32-9q-33-18-33-56v-640q0-38 33-56q16-8 31-8q20 0 34 10l512 320q30 17 30 54zM1792 640q0-96-1-150t-8.5-136.5t-22.5-147.5q-16-73-69-123t-124-58q-222-25-671-25t-671 25q-71 8-124.5 58t-69.5 123q-14 65-21.5 147.5t-8.5 136.5t-1 150t1 150t8.5 136.5t22.5 147.5q16 73 69 123t124 58q222 25 671 25t671-25q71-8 124.5-58t69.5-123q14-65 21.5-147.5t8.5-136.5t1-150z"/>
<glyph glyph-name="dot-circle-o" unicode="&#xf192;" horiz-adv-x="1536" d="M1024 640q0-106-75-181t-181-75t-181 75t-75 181t75 181t181 75t181-75t75-181zM768 1184q-148 0-273-73t-198-198t-73-273t73-273t198-198t273-73t273 73t198 198t73 273t-73 273t-198 198t-273 73zM1536 640q0-209-103-385.5t-279.5-279.5t-385.5-103t-385.5 103t-279.5 279.5t-103 385.5t103 385.5t279.5 279.5t385.5 103t385.5-103t279.5-279.5t103-385.5z"/>
<glyph glyph-name="university" unicode="&#xf19c;" horiz-adv-x="2048" d="M960 1536l960-384v-128h-128q0-26-20.5-45t-48.5-19h-1526q-28 0-48.5 19t-20.5 45h-128v128zM256 896h256v-768h128v768h256v-768h128v768h256v-768h128v768h256v-768h59q28 0 48.5-19t20.5-45v-64h-1664v64q0 26 20.5 45t48.5 19h59v768zM1851-64q28 0 48.5-19t20.5-45v-128h-1920v128q0 26 20.5 45t48.5 19h1782z"/>
<glyph glyph-name="graduation-cap" unicode="&#xf19d;" horiz-adv-x="2304" d="M1774 828l18-316v-42v-1q0-32-82-85q-92-59-235-94q-149-34-323-34t-323 34q-148 35-235 94q-82 56-82 122v6l18 316l574-181q22-7 48-7t48 7zM2304 1152q0-23-22-31l-1120-352q-4-1-10-1t-10 1l-652 206q-43-34-71-112q-28-77-34-178q63-36 63-109q0-69-58-107l58-433q2-14-8-25t-24-11h-192q-15 0-24 11q-10 11-8 25l58 433q-58 38-58 107q0 73 65 111q11 207 98 330l-333 104q-22 8-22 31t22 31l1120 352q4 1 10 1t10-1l1120-352q22-8 22-31z"/>
<glyph glyph-name="soundcloud" unicode="&#xf1be;" horiz-adv-x="2304" d="M2121 58q15 19 15.5 49.5t-14.5 46.5q-11 8-28.5 11.5t-29.5 3.5h-12v-128q54 1 69 17zM2076 210q49 0 76.5-30.5t27.5-74.5q-1-47-32-75.5t-75-29.5h-63v210h66zM1916 92v118h42v-117q0-42-24-69t-61-27q-40 1-62.5 29t-22.5 66v118h42v-117q1-35 22-46.5t42 2.5t22 43zM1692 57q12 25 12 48q1 24-13 48q-13 19-37.5 19t-34.5-18q-11-22-11-49q0-28 12-48q15-19 38-18t34 18zM1722 183q25-35 25-79.5t-25-76.5q-27-29-66-29h-2q-40 0-65 29q-24 36-24 80t24 76q28 29 66 29h3q38 0 64-29zM1461 210v-168h84v-42h-126v210h42zM1269 153q-12-21-12.5-49t12.5-47q19-20 42.5-16t35.5 24l35-21q-22-38-70-46q-6-1-12-1q-40 3-62 29q-25 36-25 80.5t26 76.5q29 27 68 27q4 1 10 0q47-8 66-43l-39-18q-13 22-37.5 22t-37.5-18zM1117 58q15 19 15.5 48.5t-14.5 46.5q-10 8-27.5 12t-30.5 4h-12v-128q54 1 69 17zM1072 210q49 0 76.5-30.5t27.5-74.5q-1-47-32-75.5t-75-29.5h-63v210h66zM911 210h41v-210h-37q-12 22-45.5 67.5t-46.5 70.5l1-138h-42v210h40l89-135v135zM688 92v118h42v-117q0-42-24-69t-61-27q-40 1-62.5 29t-22.5 66v118h42v-117q1-35 22-46.5t42 2.5t22 43zM464 57q12 22 12 49t-12 47q-13 18-38 18.5t-35-17.5q-11-22-11-49q0-28 12-48q15-18 37.5-17.5t34.5 17.5zM494 183q25-35 25-79.5t-25-76.5q-27-29-66-29h-2q-40 0-65 29q-24 36-24 80t24 76q28 29 66 29h3q38 0 64-29zM193 154q2-14 42.5-26.5t50.5-20.5q20-16 18.5-44.5t-20.5-47.5q-24-19-56-19q-8 0-17 1q-43 8-70 38l30 27q16-18 51-21q34-3 33 23q-1 6-3 13q-11 5-41 13.5t-46 19.5q-18 15-15.5 42.5t21.5 43.5q24 16 52 16q6 0 13-1q33-2 64-31l-30-29q-9 9-25 16t-32 5.5t-20-18.5zM1413 1295q130 0 239-60q110-60 179-165t80-231q53 22 110 22q117 0 200-83t83-200q0-118-83-200t-200-82q-374-1-571-1q-196 0-215 1q-29 4-31 32v900q3 24 28 33q91 34 181 34zM1103 559l12 635q1 13 11 23.5t21 10.5q13-1 21.5-10t9.5-21l14-638l-14-232q-1-13-10.5-22t-21.5-9q-13 1-21.5 10t-9.5 21zM1050 295q-14 0-20 8q-8 10-9 21l-11 235l10 580q8 36 30 34q12-1 20.5-9.5t8.5-19.5l12-585l-12-235q-1-12-9-20.5t-20-8.5zM760 1106q22 0 24-23l16-524l-16-240q-4-23-24-23q-23 1-23 23l-14 240l14 524q0 9 7 16t16 7zM856 1095q25 0 25-25l15-511l-15-238q-3-25-25-25q-11 1-18 8t-7 17l-14 238l14 510q0 10 8 18q7 8 17 8zM665 1087q20-1 22-21l18-507l-18-242q-1-9-7.5-15t-14.5-6q-9 1-15 7t-6 14l-16 242l16 507q2 21 21 21zM953 1078q11 0 19-9q8-7 8-18l14-492l-14-237q-2-12-9-19.5t-18-7.5q-25 2-28 27l-12 237l12 492q0 11 9 20q8 7 19 7zM570 1045q7 0 14-6q5-6 5-13l19-468l-19-245q-1-8-6.5-13.5t-12.5-5.5q-18 1-20 19l-16 245l16 468q0 7 7 13q6 6 13 6zM478 957q17-1 17-17l21-381l-21-246q-1-17-17-17t-18 17l-18 246l18 381q2 17 18 17zM293 825q12 0 14-13l23-253l-23-244q-1-13-14-13q-12 0-13 13l-21 244l21 253q1 13 13 13zM202 816q10 0 11-11l25-246l-25-236q-1-12-11-12q-11 0-12 12l-21 236l21 246q1 11 12 11zM385 809q14-1 16-16l21-234l-21-246q-1-15-16-15t-15 15l-20 246l20 234q1 16 15 16zM111 776q9 0 10-10l26-207l-26-202q-1-8-10-9q-8-1-9 9l-23 202l23 207q1 10 9 10zM26 696q8 0 9-9l20-128l-20-125q-1-8-9-9t-9 9l-17 125l17 128q1 9 9 9z"/>
<glyph glyph-name="search" unicode="&#xf1e5;" d="M1152 704q0 185-131.5 316.5t-316.5 131.5t-316.5-131.5t-131.5-316.5t131.5-316.5t316.5-131.5t316.5 131.5t131.5 316.5zM1664-128q0-52-38-90t-90-38q-54 0-90 38l-343 342q-179-124-399-124q-143 0-273.5 55.5t-225 150t-150 225t-55.5 273.5t55.5 273.5t150 225t225 150t273.5 55.5t273.5-55.5t225-150t150-225t55.5-273.5q0-220-124-399l343-343q37-37 37-90z"/>
</font>
</defs>
</svg>
